%TF.GenerationSoftware,KiCad,Pcbnew,(5.1.6)-1*%
%TF.CreationDate,2021-03-22T21:05:39-07:00*%
%TF.ProjectId,TSA Location Tracker,54534120-4c6f-4636-9174-696f6e205472,rev?*%
%TF.SameCoordinates,Original*%
%TF.FileFunction,Soldermask,Bot*%
%TF.FilePolarity,Negative*%
%FSLAX46Y46*%
G04 Gerber Fmt 4.6, Leading zero omitted, Abs format (unit mm)*
G04 Created by KiCad (PCBNEW (5.1.6)-1) date 2021-03-22 21:05:39*
%MOMM*%
%LPD*%
G01*
G04 APERTURE LIST*
%ADD10C,1.300000*%
%ADD11R,1.300000X1.300000*%
%ADD12C,2.250000*%
%ADD13O,1.800000X1.800000*%
%ADD14C,1.800000*%
%ADD15R,1.900000X1.900000*%
%ADD16C,1.900000*%
%ADD17C,5.500000*%
%ADD18C,2.100000*%
%ADD19C,3.299892*%
%ADD20C,1.370000*%
%ADD21C,1.500000*%
%ADD22R,1.500000X1.500000*%
G04 APERTURE END LIST*
D10*
%TO.C,Mode_Switch1*%
X91250000Y-48728000D03*
X95250000Y-48728000D03*
X97250000Y-48728000D03*
D11*
X99250000Y-48728000D03*
D12*
X87400000Y-48728000D03*
X103099999Y-48728000D03*
%TD*%
D13*
%TO.C,Arduino1*%
X95250000Y-70104000D03*
X97790000Y-70104000D03*
X100330000Y-70104000D03*
X102870000Y-70104000D03*
X105410000Y-70104000D03*
X107950000Y-70104000D03*
X110490000Y-70104000D03*
X113030000Y-70104000D03*
X115570000Y-70104000D03*
X118110000Y-70104000D03*
X120650000Y-70104000D03*
X123190000Y-70104000D03*
X125730000Y-70104000D03*
X128270000Y-70104000D03*
D14*
X130810000Y-70104000D03*
X130810000Y-68834000D03*
X128270000Y-68834000D03*
X125730000Y-68834000D03*
X123190000Y-68834000D03*
X118110000Y-68834000D03*
X120650000Y-68834000D03*
X115570000Y-68834000D03*
X110490000Y-68834000D03*
X113030000Y-68834000D03*
X105410000Y-68834000D03*
X102870000Y-68834000D03*
X107950000Y-68834000D03*
X100330000Y-68834000D03*
X95250000Y-68834000D03*
X97790000Y-68834000D03*
X100330000Y-86614000D03*
X125730000Y-86614000D03*
X97790000Y-86614000D03*
X130810000Y-86614000D03*
X105410000Y-86614000D03*
X128270000Y-86614000D03*
D13*
X123190000Y-85344000D03*
X130810000Y-85344000D03*
D14*
X95250000Y-85344000D03*
D13*
X97790000Y-85344000D03*
X100330000Y-85344000D03*
X102870000Y-85344000D03*
X105410000Y-85344000D03*
X128270000Y-85344000D03*
X107950000Y-85344000D03*
D14*
X120650000Y-86614000D03*
D13*
X120650000Y-85344000D03*
X118110000Y-85344000D03*
X110490000Y-85344000D03*
D14*
X118110000Y-86614000D03*
X107950000Y-86614000D03*
X115570000Y-86614000D03*
X113030000Y-86614000D03*
X102870000Y-86614000D03*
D13*
X113030000Y-85344000D03*
X115570000Y-85344000D03*
D14*
X95250000Y-86614000D03*
D13*
X125730000Y-85344000D03*
D14*
X110490000Y-86614000D03*
X123190000Y-86614000D03*
%TD*%
D15*
%TO.C,D1*%
X133858000Y-51562000D03*
D16*
X131318000Y-51562000D03*
%TD*%
D17*
%TO.C,H1*%
X69342000Y-49022000D03*
%TD*%
%TO.C,H2*%
X143500000Y-49000000D03*
%TD*%
%TO.C,H3*%
X69342000Y-88138000D03*
%TD*%
%TO.C,H4*%
X143510000Y-88646000D03*
%TD*%
D18*
%TO.C,LED_Switch1*%
X121562000Y-49022000D03*
X121562000Y-53522000D03*
X115062000Y-49022000D03*
X115062000Y-53522000D03*
%TD*%
D19*
%TO.C,U1*%
X86338000Y-60080000D03*
X86338000Y-74050000D03*
X70590000Y-60080000D03*
X70590000Y-74050000D03*
D20*
X74908000Y-74050000D03*
X82528000Y-74050000D03*
X79988000Y-74050000D03*
X77448000Y-74050000D03*
%TD*%
D21*
%TO.C,Power_Switch1*%
X146556000Y-66374000D03*
X146556000Y-68874000D03*
X146556000Y-71374000D03*
X143256000Y-66374000D03*
X143256000Y-68874000D03*
D22*
X143256000Y-71374000D03*
%TD*%
M02*
