%TF.GenerationSoftware,KiCad,Pcbnew,(5.1.6)-1*%
%TF.CreationDate,2021-03-22T21:05:39-07:00*%
%TF.ProjectId,TSA Location Tracker,54534120-4c6f-4636-9174-696f6e205472,rev?*%
%TF.SameCoordinates,Original*%
%TF.FileFunction,Legend,Top*%
%TF.FilePolarity,Positive*%
%FSLAX46Y46*%
G04 Gerber Fmt 4.6, Leading zero omitted, Abs format (unit mm)*
G04 Created by KiCad (PCBNEW (5.1.6)-1) date 2021-03-22 21:05:39*
%MOMM*%
%LPD*%
G01*
G04 APERTURE LIST*
%ADD10C,0.150000*%
%ADD11C,0.250000*%
%ADD12C,0.120000*%
G04 APERTURE END LIST*
D10*
X93945714Y-66492380D02*
X93945714Y-65492380D01*
X94183809Y-65492380D01*
X94326666Y-65540000D01*
X94421904Y-65635238D01*
X94469523Y-65730476D01*
X94517142Y-65920952D01*
X94517142Y-66063809D01*
X94469523Y-66254285D01*
X94421904Y-66349523D01*
X94326666Y-66444761D01*
X94183809Y-66492380D01*
X93945714Y-66492380D01*
X95469523Y-66492380D02*
X94898095Y-66492380D01*
X95183809Y-66492380D02*
X95183809Y-65492380D01*
X95088571Y-65635238D01*
X94993333Y-65730476D01*
X94898095Y-65778095D01*
X95850476Y-65587619D02*
X95898095Y-65540000D01*
X95993333Y-65492380D01*
X96231428Y-65492380D01*
X96326666Y-65540000D01*
X96374285Y-65587619D01*
X96421904Y-65682857D01*
X96421904Y-65778095D01*
X96374285Y-65920952D01*
X95802857Y-66492380D01*
X96421904Y-66492380D01*
X103892857Y-56468571D02*
X103559523Y-56468571D01*
X103559523Y-56992380D02*
X103559523Y-55992380D01*
X104035714Y-55992380D01*
X90206666Y-56992380D02*
X90206666Y-55992380D01*
X90540000Y-56706666D01*
X90873333Y-55992380D01*
X90873333Y-56992380D01*
X96721904Y-56706666D02*
X97198095Y-56706666D01*
X96626666Y-56992380D02*
X96960000Y-55992380D01*
X97293333Y-56992380D01*
X143587619Y-74482380D02*
X143778095Y-74482380D01*
X143873333Y-74530000D01*
X143968571Y-74625238D01*
X144016190Y-74815714D01*
X144016190Y-75149047D01*
X143968571Y-75339523D01*
X143873333Y-75434761D01*
X143778095Y-75482380D01*
X143587619Y-75482380D01*
X143492380Y-75434761D01*
X143397142Y-75339523D01*
X143349523Y-75149047D01*
X143349523Y-74815714D01*
X143397142Y-74625238D01*
X143492380Y-74530000D01*
X143587619Y-74482380D01*
X144778095Y-74958571D02*
X144444761Y-74958571D01*
X144444761Y-75482380D02*
X144444761Y-74482380D01*
X144920952Y-74482380D01*
X145635238Y-74958571D02*
X145301904Y-74958571D01*
X145301904Y-75482380D02*
X145301904Y-74482380D01*
X145778095Y-74482380D01*
X144160952Y-62582380D02*
X144351428Y-62582380D01*
X144446666Y-62630000D01*
X144541904Y-62725238D01*
X144589523Y-62915714D01*
X144589523Y-63249047D01*
X144541904Y-63439523D01*
X144446666Y-63534761D01*
X144351428Y-63582380D01*
X144160952Y-63582380D01*
X144065714Y-63534761D01*
X143970476Y-63439523D01*
X143922857Y-63249047D01*
X143922857Y-62915714D01*
X143970476Y-62725238D01*
X144065714Y-62630000D01*
X144160952Y-62582380D01*
X145018095Y-63582380D02*
X145018095Y-62582380D01*
X145589523Y-63582380D01*
X145589523Y-62582380D01*
X112145714Y-66216666D02*
X112621904Y-66216666D01*
X112050476Y-66502380D02*
X112383809Y-65502380D01*
X112717142Y-66502380D01*
X113574285Y-66502380D02*
X113002857Y-66502380D01*
X113288571Y-66502380D02*
X113288571Y-65502380D01*
X113193333Y-65645238D01*
X113098095Y-65740476D01*
X113002857Y-65788095D01*
X84026476Y-48966380D02*
X84026476Y-47966380D01*
X84359809Y-48680666D01*
X84693142Y-47966380D01*
X84693142Y-48966380D01*
X85693142Y-48966380D02*
X85121714Y-48966380D01*
X85407428Y-48966380D02*
X85407428Y-47966380D01*
X85312190Y-48109238D01*
X85216952Y-48204476D01*
X85121714Y-48252095D01*
X118197333Y-56078380D02*
X117721142Y-56078380D01*
X117721142Y-55078380D01*
X119054476Y-56078380D02*
X118483047Y-56078380D01*
X118768761Y-56078380D02*
X118768761Y-55078380D01*
X118673523Y-55221238D01*
X118578285Y-55316476D01*
X118483047Y-55364095D01*
X139702380Y-69488095D02*
X138702380Y-69488095D01*
X138702380Y-69107142D01*
X138750000Y-69011904D01*
X138797619Y-68964285D01*
X138892857Y-68916666D01*
X139035714Y-68916666D01*
X139130952Y-68964285D01*
X139178571Y-69011904D01*
X139226190Y-69107142D01*
X139226190Y-69488095D01*
X139702380Y-67964285D02*
X139702380Y-68535714D01*
X139702380Y-68250000D02*
X138702380Y-68250000D01*
X138845238Y-68345238D01*
X138940476Y-68440476D01*
X138988095Y-68535714D01*
X102236571Y-89876380D02*
X102808000Y-89876380D01*
X102522285Y-90876380D02*
X102522285Y-89876380D01*
X103093714Y-90828761D02*
X103236571Y-90876380D01*
X103474666Y-90876380D01*
X103569904Y-90828761D01*
X103617523Y-90781142D01*
X103665142Y-90685904D01*
X103665142Y-90590666D01*
X103617523Y-90495428D01*
X103569904Y-90447809D01*
X103474666Y-90400190D01*
X103284190Y-90352571D01*
X103188952Y-90304952D01*
X103141333Y-90257333D01*
X103093714Y-90162095D01*
X103093714Y-90066857D01*
X103141333Y-89971619D01*
X103188952Y-89924000D01*
X103284190Y-89876380D01*
X103522285Y-89876380D01*
X103665142Y-89924000D01*
X104046095Y-90590666D02*
X104522285Y-90590666D01*
X103950857Y-90876380D02*
X104284190Y-89876380D01*
X104617523Y-90876380D01*
X106188952Y-90876380D02*
X105712761Y-90876380D01*
X105712761Y-89876380D01*
X106665142Y-90876380D02*
X106569904Y-90828761D01*
X106522285Y-90781142D01*
X106474666Y-90685904D01*
X106474666Y-90400190D01*
X106522285Y-90304952D01*
X106569904Y-90257333D01*
X106665142Y-90209714D01*
X106808000Y-90209714D01*
X106903238Y-90257333D01*
X106950857Y-90304952D01*
X106998476Y-90400190D01*
X106998476Y-90685904D01*
X106950857Y-90781142D01*
X106903238Y-90828761D01*
X106808000Y-90876380D01*
X106665142Y-90876380D01*
X107855619Y-90828761D02*
X107760380Y-90876380D01*
X107569904Y-90876380D01*
X107474666Y-90828761D01*
X107427047Y-90781142D01*
X107379428Y-90685904D01*
X107379428Y-90400190D01*
X107427047Y-90304952D01*
X107474666Y-90257333D01*
X107569904Y-90209714D01*
X107760380Y-90209714D01*
X107855619Y-90257333D01*
X108712761Y-90876380D02*
X108712761Y-90352571D01*
X108665142Y-90257333D01*
X108569904Y-90209714D01*
X108379428Y-90209714D01*
X108284190Y-90257333D01*
X108712761Y-90828761D02*
X108617523Y-90876380D01*
X108379428Y-90876380D01*
X108284190Y-90828761D01*
X108236571Y-90733523D01*
X108236571Y-90638285D01*
X108284190Y-90543047D01*
X108379428Y-90495428D01*
X108617523Y-90495428D01*
X108712761Y-90447809D01*
X109046095Y-90209714D02*
X109427047Y-90209714D01*
X109188952Y-89876380D02*
X109188952Y-90733523D01*
X109236571Y-90828761D01*
X109331809Y-90876380D01*
X109427047Y-90876380D01*
X109760380Y-90876380D02*
X109760380Y-90209714D01*
X109760380Y-89876380D02*
X109712761Y-89924000D01*
X109760380Y-89971619D01*
X109808000Y-89924000D01*
X109760380Y-89876380D01*
X109760380Y-89971619D01*
X110379428Y-90876380D02*
X110284190Y-90828761D01*
X110236571Y-90781142D01*
X110188952Y-90685904D01*
X110188952Y-90400190D01*
X110236571Y-90304952D01*
X110284190Y-90257333D01*
X110379428Y-90209714D01*
X110522285Y-90209714D01*
X110617523Y-90257333D01*
X110665142Y-90304952D01*
X110712761Y-90400190D01*
X110712761Y-90685904D01*
X110665142Y-90781142D01*
X110617523Y-90828761D01*
X110522285Y-90876380D01*
X110379428Y-90876380D01*
X111141333Y-90209714D02*
X111141333Y-90876380D01*
X111141333Y-90304952D02*
X111188952Y-90257333D01*
X111284190Y-90209714D01*
X111427047Y-90209714D01*
X111522285Y-90257333D01*
X111569904Y-90352571D01*
X111569904Y-90876380D01*
X112665142Y-89876380D02*
X113236571Y-89876380D01*
X112950857Y-90876380D02*
X112950857Y-89876380D01*
X113569904Y-90876380D02*
X113569904Y-90209714D01*
X113569904Y-90400190D02*
X113617523Y-90304952D01*
X113665142Y-90257333D01*
X113760380Y-90209714D01*
X113855619Y-90209714D01*
X114617523Y-90876380D02*
X114617523Y-90352571D01*
X114569904Y-90257333D01*
X114474666Y-90209714D01*
X114284190Y-90209714D01*
X114188952Y-90257333D01*
X114617523Y-90828761D02*
X114522285Y-90876380D01*
X114284190Y-90876380D01*
X114188952Y-90828761D01*
X114141333Y-90733523D01*
X114141333Y-90638285D01*
X114188952Y-90543047D01*
X114284190Y-90495428D01*
X114522285Y-90495428D01*
X114617523Y-90447809D01*
X115522285Y-90828761D02*
X115427047Y-90876380D01*
X115236571Y-90876380D01*
X115141333Y-90828761D01*
X115093714Y-90781142D01*
X115046095Y-90685904D01*
X115046095Y-90400190D01*
X115093714Y-90304952D01*
X115141333Y-90257333D01*
X115236571Y-90209714D01*
X115427047Y-90209714D01*
X115522285Y-90257333D01*
X115950857Y-90876380D02*
X115950857Y-89876380D01*
X116046095Y-90495428D02*
X116331809Y-90876380D01*
X116331809Y-90209714D02*
X115950857Y-90590666D01*
X117141333Y-90828761D02*
X117046095Y-90876380D01*
X116855619Y-90876380D01*
X116760380Y-90828761D01*
X116712761Y-90733523D01*
X116712761Y-90352571D01*
X116760380Y-90257333D01*
X116855619Y-90209714D01*
X117046095Y-90209714D01*
X117141333Y-90257333D01*
X117188952Y-90352571D01*
X117188952Y-90447809D01*
X116712761Y-90543047D01*
X117617523Y-90876380D02*
X117617523Y-90209714D01*
X117617523Y-90400190D02*
X117665142Y-90304952D01*
X117712761Y-90257333D01*
X117808000Y-90209714D01*
X117903238Y-90209714D01*
X118998476Y-90876380D02*
X118998476Y-89876380D01*
X119569904Y-90876380D01*
X119569904Y-89876380D01*
X120188952Y-90876380D02*
X120093714Y-90828761D01*
X120046095Y-90781142D01*
X119998476Y-90685904D01*
X119998476Y-90400190D01*
X120046095Y-90304952D01*
X120093714Y-90257333D01*
X120188952Y-90209714D01*
X120331809Y-90209714D01*
X120427047Y-90257333D01*
X120474666Y-90304952D01*
X120522285Y-90400190D01*
X120522285Y-90685904D01*
X120474666Y-90781142D01*
X120427047Y-90828761D01*
X120331809Y-90876380D01*
X120188952Y-90876380D01*
X121379428Y-90876380D02*
X121379428Y-89876380D01*
X121379428Y-90828761D02*
X121284190Y-90876380D01*
X121093714Y-90876380D01*
X120998476Y-90828761D01*
X120950857Y-90781142D01*
X120903238Y-90685904D01*
X120903238Y-90400190D01*
X120950857Y-90304952D01*
X120998476Y-90257333D01*
X121093714Y-90209714D01*
X121284190Y-90209714D01*
X121379428Y-90257333D01*
X122236571Y-90828761D02*
X122141333Y-90876380D01*
X121950857Y-90876380D01*
X121855619Y-90828761D01*
X121807999Y-90733523D01*
X121807999Y-90352571D01*
X121855619Y-90257333D01*
X121950857Y-90209714D01*
X122141333Y-90209714D01*
X122236571Y-90257333D01*
X122284190Y-90352571D01*
X122284190Y-90447809D01*
X121807999Y-90543047D01*
X124046095Y-90876380D02*
X123712761Y-90400190D01*
X123474666Y-90876380D02*
X123474666Y-89876380D01*
X123855619Y-89876380D01*
X123950857Y-89924000D01*
X123998476Y-89971619D01*
X124046095Y-90066857D01*
X124046095Y-90209714D01*
X123998476Y-90304952D01*
X123950857Y-90352571D01*
X123855619Y-90400190D01*
X123474666Y-90400190D01*
X124855619Y-90828761D02*
X124760380Y-90876380D01*
X124569904Y-90876380D01*
X124474666Y-90828761D01*
X124427047Y-90733523D01*
X124427047Y-90352571D01*
X124474666Y-90257333D01*
X124569904Y-90209714D01*
X124760380Y-90209714D01*
X124855619Y-90257333D01*
X124903238Y-90352571D01*
X124903238Y-90447809D01*
X124427047Y-90543047D01*
X125236571Y-90209714D02*
X125474666Y-90876380D01*
X125712761Y-90209714D01*
X126807999Y-90590666D02*
X127284190Y-90590666D01*
X126712761Y-90876380D02*
X127046095Y-89876380D01*
X127379428Y-90876380D01*
%TO.C,Mode_Switch1*%
X103250000Y-50628000D02*
X87250000Y-50628000D01*
D11*
X99449999Y-51203000D02*
G75*
G03*
X99449999Y-51203000I-125000J0D01*
G01*
D12*
%TO.C,D1*%
X134148000Y-52798000D02*
X134148000Y-52642000D01*
X134148000Y-50482000D02*
X134148000Y-50326000D01*
X130915665Y-52640608D02*
G75*
G03*
X134148000Y-52797516I1672335J1078608D01*
G01*
X130915665Y-50483392D02*
G75*
G02*
X134148000Y-50326484I1672335J-1078608D01*
G01*
X131546870Y-52641837D02*
G75*
G03*
X133628961Y-52642000I1041130J1079837D01*
G01*
X131546870Y-50482163D02*
G75*
G02*
X133628961Y-50482000I1041130J-1079837D01*
G01*
%TO.C,LED_Switch1*%
X121812000Y-52022000D02*
X121812000Y-50522000D01*
X120562000Y-48022000D02*
X116062000Y-48022000D01*
X114812000Y-50522000D02*
X114812000Y-52022000D01*
X116062000Y-54522000D02*
X120562000Y-54522000D01*
%TO.C,R1*%
X103803267Y-55120000D02*
X103460733Y-55120000D01*
X103803267Y-54100000D02*
X103460733Y-54100000D01*
%TO.C,R2*%
X97171267Y-55010000D02*
X96828733Y-55010000D01*
X97171267Y-53990000D02*
X96828733Y-53990000D01*
%TO.C,R3*%
X91103267Y-55120000D02*
X90760733Y-55120000D01*
X91103267Y-54100000D02*
X90760733Y-54100000D01*
%TO.C,R4*%
X126748000Y-51225267D02*
X126748000Y-50882733D01*
X125728000Y-51225267D02*
X125728000Y-50882733D01*
%TO.C,R5*%
X110492000Y-51225267D02*
X110492000Y-50882733D01*
X109472000Y-51225267D02*
X109472000Y-50882733D01*
%TO.C,Power_Switch1*%
X142806000Y-72274000D02*
X142806000Y-73474000D01*
X142806000Y-73474000D02*
X147006000Y-73474000D01*
X147006000Y-73474000D02*
X147006000Y-72274000D01*
X142806000Y-65474000D02*
X142806000Y-64274000D01*
X142806000Y-64274000D02*
X147006000Y-64274000D01*
X147006000Y-64274000D02*
X147006000Y-65474000D01*
X142506000Y-72574000D02*
X142506000Y-73774000D01*
X142506000Y-73774000D02*
X143706000Y-73774000D01*
%TO.C,Mode_Switch1*%
D10*
X88927261Y-51982380D02*
X88927261Y-50982380D01*
X89260595Y-51696666D01*
X89593928Y-50982380D01*
X89593928Y-51982380D01*
X90212976Y-51982380D02*
X90117738Y-51934761D01*
X90070119Y-51887142D01*
X90022500Y-51791904D01*
X90022500Y-51506190D01*
X90070119Y-51410952D01*
X90117738Y-51363333D01*
X90212976Y-51315714D01*
X90355833Y-51315714D01*
X90451071Y-51363333D01*
X90498690Y-51410952D01*
X90546309Y-51506190D01*
X90546309Y-51791904D01*
X90498690Y-51887142D01*
X90451071Y-51934761D01*
X90355833Y-51982380D01*
X90212976Y-51982380D01*
X91403452Y-51982380D02*
X91403452Y-50982380D01*
X91403452Y-51934761D02*
X91308214Y-51982380D01*
X91117738Y-51982380D01*
X91022500Y-51934761D01*
X90974880Y-51887142D01*
X90927261Y-51791904D01*
X90927261Y-51506190D01*
X90974880Y-51410952D01*
X91022500Y-51363333D01*
X91117738Y-51315714D01*
X91308214Y-51315714D01*
X91403452Y-51363333D01*
X92260595Y-51934761D02*
X92165357Y-51982380D01*
X91974880Y-51982380D01*
X91879642Y-51934761D01*
X91832023Y-51839523D01*
X91832023Y-51458571D01*
X91879642Y-51363333D01*
X91974880Y-51315714D01*
X92165357Y-51315714D01*
X92260595Y-51363333D01*
X92308214Y-51458571D01*
X92308214Y-51553809D01*
X91832023Y-51649047D01*
X92498690Y-52077619D02*
X93260595Y-52077619D01*
X93451071Y-51934761D02*
X93593928Y-51982380D01*
X93832023Y-51982380D01*
X93927261Y-51934761D01*
X93974880Y-51887142D01*
X94022500Y-51791904D01*
X94022500Y-51696666D01*
X93974880Y-51601428D01*
X93927261Y-51553809D01*
X93832023Y-51506190D01*
X93641547Y-51458571D01*
X93546309Y-51410952D01*
X93498690Y-51363333D01*
X93451071Y-51268095D01*
X93451071Y-51172857D01*
X93498690Y-51077619D01*
X93546309Y-51030000D01*
X93641547Y-50982380D01*
X93879642Y-50982380D01*
X94022500Y-51030000D01*
X94355833Y-51315714D02*
X94546309Y-51982380D01*
X94736785Y-51506190D01*
X94927261Y-51982380D01*
X95117738Y-51315714D01*
X95498690Y-51982380D02*
X95498690Y-51315714D01*
X95498690Y-50982380D02*
X95451071Y-51030000D01*
X95498690Y-51077619D01*
X95546309Y-51030000D01*
X95498690Y-50982380D01*
X95498690Y-51077619D01*
X95832023Y-51315714D02*
X96212976Y-51315714D01*
X95974880Y-50982380D02*
X95974880Y-51839523D01*
X96022500Y-51934761D01*
X96117738Y-51982380D01*
X96212976Y-51982380D01*
X96974880Y-51934761D02*
X96879642Y-51982380D01*
X96689166Y-51982380D01*
X96593928Y-51934761D01*
X96546309Y-51887142D01*
X96498690Y-51791904D01*
X96498690Y-51506190D01*
X96546309Y-51410952D01*
X96593928Y-51363333D01*
X96689166Y-51315714D01*
X96879642Y-51315714D01*
X96974880Y-51363333D01*
X97403452Y-51982380D02*
X97403452Y-50982380D01*
X97832023Y-51982380D02*
X97832023Y-51458571D01*
X97784404Y-51363333D01*
X97689166Y-51315714D01*
X97546309Y-51315714D01*
X97451071Y-51363333D01*
X97403452Y-51410952D01*
X98832023Y-51982380D02*
X98260595Y-51982380D01*
X98546309Y-51982380D02*
X98546309Y-50982380D01*
X98451071Y-51125238D01*
X98355833Y-51220476D01*
X98260595Y-51268095D01*
X91095285Y-47250047D02*
X91276714Y-47310523D01*
X91579095Y-47310523D01*
X91700047Y-47250047D01*
X91760523Y-47189571D01*
X91821000Y-47068619D01*
X91821000Y-46947666D01*
X91760523Y-46826714D01*
X91700047Y-46766238D01*
X91579095Y-46705761D01*
X91337190Y-46645285D01*
X91216238Y-46584809D01*
X91155761Y-46524333D01*
X91095285Y-46403380D01*
X91095285Y-46282428D01*
X91155761Y-46161476D01*
X91216238Y-46101000D01*
X91337190Y-46040523D01*
X91639571Y-46040523D01*
X91821000Y-46101000D01*
X92244333Y-46040523D02*
X92546714Y-47310523D01*
X92788619Y-46403380D01*
X93030523Y-47310523D01*
X93332904Y-46040523D01*
X93514333Y-47431476D02*
X94481952Y-47431476D01*
X94723857Y-47250047D02*
X94905285Y-47310523D01*
X95207666Y-47310523D01*
X95328619Y-47250047D01*
X95389095Y-47189571D01*
X95449571Y-47068619D01*
X95449571Y-46947666D01*
X95389095Y-46826714D01*
X95328619Y-46766238D01*
X95207666Y-46705761D01*
X94965761Y-46645285D01*
X94844809Y-46584809D01*
X94784333Y-46524333D01*
X94723857Y-46403380D01*
X94723857Y-46282428D01*
X94784333Y-46161476D01*
X94844809Y-46101000D01*
X94965761Y-46040523D01*
X95268142Y-46040523D01*
X95449571Y-46101000D01*
X95993857Y-47310523D02*
X95993857Y-46040523D01*
X96477666Y-46040523D01*
X96598619Y-46101000D01*
X96659095Y-46161476D01*
X96719571Y-46282428D01*
X96719571Y-46463857D01*
X96659095Y-46584809D01*
X96598619Y-46645285D01*
X96477666Y-46705761D01*
X95993857Y-46705761D01*
X97142904Y-46040523D02*
X97929095Y-46040523D01*
X97505761Y-46524333D01*
X97687190Y-46524333D01*
X97808142Y-46584809D01*
X97868619Y-46645285D01*
X97929095Y-46766238D01*
X97929095Y-47068619D01*
X97868619Y-47189571D01*
X97808142Y-47250047D01*
X97687190Y-47310523D01*
X97324333Y-47310523D01*
X97203380Y-47250047D01*
X97142904Y-47189571D01*
X98291952Y-46040523D02*
X99017666Y-46040523D01*
X98654809Y-47310523D02*
X98654809Y-46040523D01*
%TO.C,D1*%
X131849904Y-48966380D02*
X131849904Y-47966380D01*
X132088000Y-47966380D01*
X132230857Y-48014000D01*
X132326095Y-48109238D01*
X132373714Y-48204476D01*
X132421333Y-48394952D01*
X132421333Y-48537809D01*
X132373714Y-48728285D01*
X132326095Y-48823523D01*
X132230857Y-48918761D01*
X132088000Y-48966380D01*
X131849904Y-48966380D01*
X133373714Y-48966380D02*
X132802285Y-48966380D01*
X133088000Y-48966380D02*
X133088000Y-47966380D01*
X132992761Y-48109238D01*
X132897523Y-48204476D01*
X132802285Y-48252095D01*
%TO.C,H1*%
X68834095Y-53538380D02*
X68834095Y-52538380D01*
X68834095Y-53014571D02*
X69405523Y-53014571D01*
X69405523Y-53538380D02*
X69405523Y-52538380D01*
X70405523Y-53538380D02*
X69834095Y-53538380D01*
X70119809Y-53538380D02*
X70119809Y-52538380D01*
X70024571Y-52681238D01*
X69929333Y-52776476D01*
X69834095Y-52824095D01*
%TO.C,H2*%
X143002095Y-53538380D02*
X143002095Y-52538380D01*
X143002095Y-53014571D02*
X143573523Y-53014571D01*
X143573523Y-53538380D02*
X143573523Y-52538380D01*
X144002095Y-52633619D02*
X144049714Y-52586000D01*
X144144952Y-52538380D01*
X144383047Y-52538380D01*
X144478285Y-52586000D01*
X144525904Y-52633619D01*
X144573523Y-52728857D01*
X144573523Y-52824095D01*
X144525904Y-52966952D01*
X143954476Y-53538380D01*
X144573523Y-53538380D01*
%TO.C,H3*%
X68580095Y-84890380D02*
X68580095Y-83890380D01*
X68580095Y-84366571D02*
X69151523Y-84366571D01*
X69151523Y-84890380D02*
X69151523Y-83890380D01*
X69532476Y-83890380D02*
X70151523Y-83890380D01*
X69818190Y-84271333D01*
X69961047Y-84271333D01*
X70056285Y-84318952D01*
X70103904Y-84366571D01*
X70151523Y-84461809D01*
X70151523Y-84699904D01*
X70103904Y-84795142D01*
X70056285Y-84842761D01*
X69961047Y-84890380D01*
X69675333Y-84890380D01*
X69580095Y-84842761D01*
X69532476Y-84795142D01*
%TO.C,H4*%
X142748095Y-85398380D02*
X142748095Y-84398380D01*
X142748095Y-84874571D02*
X143319523Y-84874571D01*
X143319523Y-85398380D02*
X143319523Y-84398380D01*
X144224285Y-84731714D02*
X144224285Y-85398380D01*
X143986190Y-84350761D02*
X143748095Y-85065047D01*
X144367142Y-85065047D01*
%TO.C,LED_Switch1*%
X114205238Y-47188380D02*
X113729047Y-47188380D01*
X113729047Y-46188380D01*
X114538571Y-46664571D02*
X114871904Y-46664571D01*
X115014761Y-47188380D02*
X114538571Y-47188380D01*
X114538571Y-46188380D01*
X115014761Y-46188380D01*
X115443333Y-47188380D02*
X115443333Y-46188380D01*
X115681428Y-46188380D01*
X115824285Y-46236000D01*
X115919523Y-46331238D01*
X115967142Y-46426476D01*
X116014761Y-46616952D01*
X116014761Y-46759809D01*
X115967142Y-46950285D01*
X115919523Y-47045523D01*
X115824285Y-47140761D01*
X115681428Y-47188380D01*
X115443333Y-47188380D01*
X116205238Y-47283619D02*
X116967142Y-47283619D01*
X117157619Y-47140761D02*
X117300476Y-47188380D01*
X117538571Y-47188380D01*
X117633809Y-47140761D01*
X117681428Y-47093142D01*
X117729047Y-46997904D01*
X117729047Y-46902666D01*
X117681428Y-46807428D01*
X117633809Y-46759809D01*
X117538571Y-46712190D01*
X117348095Y-46664571D01*
X117252857Y-46616952D01*
X117205238Y-46569333D01*
X117157619Y-46474095D01*
X117157619Y-46378857D01*
X117205238Y-46283619D01*
X117252857Y-46236000D01*
X117348095Y-46188380D01*
X117586190Y-46188380D01*
X117729047Y-46236000D01*
X118062380Y-46521714D02*
X118252857Y-47188380D01*
X118443333Y-46712190D01*
X118633809Y-47188380D01*
X118824285Y-46521714D01*
X119205238Y-47188380D02*
X119205238Y-46521714D01*
X119205238Y-46188380D02*
X119157619Y-46236000D01*
X119205238Y-46283619D01*
X119252857Y-46236000D01*
X119205238Y-46188380D01*
X119205238Y-46283619D01*
X119538571Y-46521714D02*
X119919523Y-46521714D01*
X119681428Y-46188380D02*
X119681428Y-47045523D01*
X119729047Y-47140761D01*
X119824285Y-47188380D01*
X119919523Y-47188380D01*
X120681428Y-47140761D02*
X120586190Y-47188380D01*
X120395714Y-47188380D01*
X120300476Y-47140761D01*
X120252857Y-47093142D01*
X120205238Y-46997904D01*
X120205238Y-46712190D01*
X120252857Y-46616952D01*
X120300476Y-46569333D01*
X120395714Y-46521714D01*
X120586190Y-46521714D01*
X120681428Y-46569333D01*
X121110000Y-47188380D02*
X121110000Y-46188380D01*
X121538571Y-47188380D02*
X121538571Y-46664571D01*
X121490952Y-46569333D01*
X121395714Y-46521714D01*
X121252857Y-46521714D01*
X121157619Y-46569333D01*
X121110000Y-46616952D01*
X122538571Y-47188380D02*
X121967142Y-47188380D01*
X122252857Y-47188380D02*
X122252857Y-46188380D01*
X122157619Y-46331238D01*
X122062380Y-46426476D01*
X121967142Y-46474095D01*
%TO.C,R1*%
X100417333Y-55062380D02*
X100084000Y-54586190D01*
X99845904Y-55062380D02*
X99845904Y-54062380D01*
X100226857Y-54062380D01*
X100322095Y-54110000D01*
X100369714Y-54157619D01*
X100417333Y-54252857D01*
X100417333Y-54395714D01*
X100369714Y-54490952D01*
X100322095Y-54538571D01*
X100226857Y-54586190D01*
X99845904Y-54586190D01*
X101369714Y-55062380D02*
X100798285Y-55062380D01*
X101084000Y-55062380D02*
X101084000Y-54062380D01*
X100988761Y-54205238D01*
X100893523Y-54300476D01*
X100798285Y-54348095D01*
%TO.C,R2*%
X93813333Y-55062380D02*
X93480000Y-54586190D01*
X93241904Y-55062380D02*
X93241904Y-54062380D01*
X93622857Y-54062380D01*
X93718095Y-54110000D01*
X93765714Y-54157619D01*
X93813333Y-54252857D01*
X93813333Y-54395714D01*
X93765714Y-54490952D01*
X93718095Y-54538571D01*
X93622857Y-54586190D01*
X93241904Y-54586190D01*
X94194285Y-54157619D02*
X94241904Y-54110000D01*
X94337142Y-54062380D01*
X94575238Y-54062380D01*
X94670476Y-54110000D01*
X94718095Y-54157619D01*
X94765714Y-54252857D01*
X94765714Y-54348095D01*
X94718095Y-54490952D01*
X94146666Y-55062380D01*
X94765714Y-55062380D01*
%TO.C,R3*%
X87717333Y-55062380D02*
X87384000Y-54586190D01*
X87145904Y-55062380D02*
X87145904Y-54062380D01*
X87526857Y-54062380D01*
X87622095Y-54110000D01*
X87669714Y-54157619D01*
X87717333Y-54252857D01*
X87717333Y-54395714D01*
X87669714Y-54490952D01*
X87622095Y-54538571D01*
X87526857Y-54586190D01*
X87145904Y-54586190D01*
X88050666Y-54062380D02*
X88669714Y-54062380D01*
X88336380Y-54443333D01*
X88479238Y-54443333D01*
X88574476Y-54490952D01*
X88622095Y-54538571D01*
X88669714Y-54633809D01*
X88669714Y-54871904D01*
X88622095Y-54967142D01*
X88574476Y-55014761D01*
X88479238Y-55062380D01*
X88193523Y-55062380D01*
X88098285Y-55014761D01*
X88050666Y-54967142D01*
%TO.C,R4*%
X126071333Y-48712380D02*
X125738000Y-48236190D01*
X125499904Y-48712380D02*
X125499904Y-47712380D01*
X125880857Y-47712380D01*
X125976095Y-47760000D01*
X126023714Y-47807619D01*
X126071333Y-47902857D01*
X126071333Y-48045714D01*
X126023714Y-48140952D01*
X125976095Y-48188571D01*
X125880857Y-48236190D01*
X125499904Y-48236190D01*
X126928476Y-48045714D02*
X126928476Y-48712380D01*
X126690380Y-47664761D02*
X126452285Y-48379047D01*
X127071333Y-48379047D01*
%TO.C,R5*%
X110069333Y-48712380D02*
X109736000Y-48236190D01*
X109497904Y-48712380D02*
X109497904Y-47712380D01*
X109878857Y-47712380D01*
X109974095Y-47760000D01*
X110021714Y-47807619D01*
X110069333Y-47902857D01*
X110069333Y-48045714D01*
X110021714Y-48140952D01*
X109974095Y-48188571D01*
X109878857Y-48236190D01*
X109497904Y-48236190D01*
X110974095Y-47712380D02*
X110497904Y-47712380D01*
X110450285Y-48188571D01*
X110497904Y-48140952D01*
X110593142Y-48093333D01*
X110831238Y-48093333D01*
X110926476Y-48140952D01*
X110974095Y-48188571D01*
X111021714Y-48283809D01*
X111021714Y-48521904D01*
X110974095Y-48617142D01*
X110926476Y-48664761D01*
X110831238Y-48712380D01*
X110593142Y-48712380D01*
X110497904Y-48664761D01*
X110450285Y-48617142D01*
%TO.C,Power_Switch1*%
X141422380Y-74580095D02*
X140422380Y-74580095D01*
X140422380Y-74199142D01*
X140470000Y-74103904D01*
X140517619Y-74056285D01*
X140612857Y-74008666D01*
X140755714Y-74008666D01*
X140850952Y-74056285D01*
X140898571Y-74103904D01*
X140946190Y-74199142D01*
X140946190Y-74580095D01*
X141422380Y-73437238D02*
X141374761Y-73532476D01*
X141327142Y-73580095D01*
X141231904Y-73627714D01*
X140946190Y-73627714D01*
X140850952Y-73580095D01*
X140803333Y-73532476D01*
X140755714Y-73437238D01*
X140755714Y-73294380D01*
X140803333Y-73199142D01*
X140850952Y-73151523D01*
X140946190Y-73103904D01*
X141231904Y-73103904D01*
X141327142Y-73151523D01*
X141374761Y-73199142D01*
X141422380Y-73294380D01*
X141422380Y-73437238D01*
X140755714Y-72770571D02*
X141422380Y-72580095D01*
X140946190Y-72389619D01*
X141422380Y-72199142D01*
X140755714Y-72008666D01*
X141374761Y-71246761D02*
X141422380Y-71342000D01*
X141422380Y-71532476D01*
X141374761Y-71627714D01*
X141279523Y-71675333D01*
X140898571Y-71675333D01*
X140803333Y-71627714D01*
X140755714Y-71532476D01*
X140755714Y-71342000D01*
X140803333Y-71246761D01*
X140898571Y-71199142D01*
X140993809Y-71199142D01*
X141089047Y-71675333D01*
X141422380Y-70770571D02*
X140755714Y-70770571D01*
X140946190Y-70770571D02*
X140850952Y-70722952D01*
X140803333Y-70675333D01*
X140755714Y-70580095D01*
X140755714Y-70484857D01*
X141517619Y-70389619D02*
X141517619Y-69627714D01*
X141374761Y-69437238D02*
X141422380Y-69294380D01*
X141422380Y-69056285D01*
X141374761Y-68961047D01*
X141327142Y-68913428D01*
X141231904Y-68865809D01*
X141136666Y-68865809D01*
X141041428Y-68913428D01*
X140993809Y-68961047D01*
X140946190Y-69056285D01*
X140898571Y-69246761D01*
X140850952Y-69342000D01*
X140803333Y-69389619D01*
X140708095Y-69437238D01*
X140612857Y-69437238D01*
X140517619Y-69389619D01*
X140470000Y-69342000D01*
X140422380Y-69246761D01*
X140422380Y-69008666D01*
X140470000Y-68865809D01*
X140755714Y-68532476D02*
X141422380Y-68342000D01*
X140946190Y-68151523D01*
X141422380Y-67961047D01*
X140755714Y-67770571D01*
X141422380Y-67389619D02*
X140755714Y-67389619D01*
X140422380Y-67389619D02*
X140470000Y-67437238D01*
X140517619Y-67389619D01*
X140470000Y-67342000D01*
X140422380Y-67389619D01*
X140517619Y-67389619D01*
X140755714Y-67056285D02*
X140755714Y-66675333D01*
X140422380Y-66913428D02*
X141279523Y-66913428D01*
X141374761Y-66865809D01*
X141422380Y-66770571D01*
X141422380Y-66675333D01*
X141374761Y-65913428D02*
X141422380Y-66008666D01*
X141422380Y-66199142D01*
X141374761Y-66294380D01*
X141327142Y-66342000D01*
X141231904Y-66389619D01*
X140946190Y-66389619D01*
X140850952Y-66342000D01*
X140803333Y-66294380D01*
X140755714Y-66199142D01*
X140755714Y-66008666D01*
X140803333Y-65913428D01*
X141422380Y-65484857D02*
X140422380Y-65484857D01*
X141422380Y-65056285D02*
X140898571Y-65056285D01*
X140803333Y-65103904D01*
X140755714Y-65199142D01*
X140755714Y-65342000D01*
X140803333Y-65437238D01*
X140850952Y-65484857D01*
X141422380Y-64056285D02*
X141422380Y-64627714D01*
X141422380Y-64342000D02*
X140422380Y-64342000D01*
X140565238Y-64437238D01*
X140660476Y-64532476D01*
X140708095Y-64627714D01*
%TD*%
M02*
