%TF.GenerationSoftware,KiCad,Pcbnew,(5.1.6)-1*%
%TF.CreationDate,2021-03-22T21:05:39-07:00*%
%TF.ProjectId,TSA Location Tracker,54534120-4c6f-4636-9174-696f6e205472,rev?*%
%TF.SameCoordinates,Original*%
%TF.FileFunction,Copper,L1,Top*%
%TF.FilePolarity,Positive*%
%FSLAX46Y46*%
G04 Gerber Fmt 4.6, Leading zero omitted, Abs format (unit mm)*
G04 Created by KiCad (PCBNEW (5.1.6)-1) date 2021-03-22 21:05:39*
%MOMM*%
%LPD*%
G01*
G04 APERTURE LIST*
%TA.AperFunction,ComponentPad*%
%ADD10C,1.200000*%
%TD*%
%TA.AperFunction,ComponentPad*%
%ADD11R,1.200000X1.200000*%
%TD*%
%TA.AperFunction,ComponentPad*%
%ADD12C,2.150000*%
%TD*%
%TA.AperFunction,ComponentPad*%
%ADD13O,1.700000X1.700000*%
%TD*%
%TA.AperFunction,ComponentPad*%
%ADD14C,1.700000*%
%TD*%
%TA.AperFunction,SMDPad,CuDef*%
%ADD15O,1.700000X3.000000*%
%TD*%
%TA.AperFunction,Conductor*%
%ADD16O,1.700000X3.000000*%
%TD*%
%TA.AperFunction,ComponentPad*%
%ADD17R,1.800000X1.800000*%
%TD*%
%TA.AperFunction,ComponentPad*%
%ADD18C,1.800000*%
%TD*%
%TA.AperFunction,ComponentPad*%
%ADD19C,5.400000*%
%TD*%
%TA.AperFunction,ComponentPad*%
%ADD20C,2.000000*%
%TD*%
%TA.AperFunction,ComponentPad*%
%ADD21C,3.199892*%
%TD*%
%TA.AperFunction,ComponentPad*%
%ADD22C,1.270000*%
%TD*%
%TA.AperFunction,ComponentPad*%
%ADD23C,1.400000*%
%TD*%
%TA.AperFunction,ComponentPad*%
%ADD24R,1.400000X1.400000*%
%TD*%
%TA.AperFunction,ViaPad*%
%ADD25C,2.200000*%
%TD*%
%TA.AperFunction,Conductor*%
%ADD26C,0.250000*%
%TD*%
%TA.AperFunction,Conductor*%
%ADD27C,0.500000*%
%TD*%
%TA.AperFunction,Conductor*%
%ADD28C,0.254000*%
%TD*%
G04 APERTURE END LIST*
D10*
%TO.P,Mode_Switch1,4*%
%TO.N,Net-(Arduino1-Pad26)*%
X91250000Y-48728000D03*
%TO.P,Mode_Switch1,3*%
%TO.N,Net-(Arduino1-Pad2)*%
X95250000Y-48728000D03*
%TO.P,Mode_Switch1,2*%
%TO.N,Net-(Arduino1-Pad27)*%
X97250000Y-48728000D03*
D11*
%TO.P,Mode_Switch1,1*%
%TO.N,Net-(Arduino1-Pad28)*%
X99250000Y-48728000D03*
D12*
%TO.P,Mode_Switch1,6*%
%TO.N,N/C*%
X87400000Y-48728000D03*
%TO.P,Mode_Switch1,5*%
X103099999Y-48728000D03*
%TD*%
D13*
%TO.P,Arduino1,30*%
%TO.N,Net-(Arduino1-Pad30)*%
X95250000Y-70104000D03*
%TO.P,Arduino1,29*%
%TO.N,Net-(Arduino1-Pad29)*%
X97790000Y-70104000D03*
%TO.P,Arduino1,28*%
%TO.N,Net-(Arduino1-Pad28)*%
X100330000Y-70104000D03*
%TO.P,Arduino1,27*%
%TO.N,Net-(Arduino1-Pad27)*%
X102870000Y-70104000D03*
%TO.P,Arduino1,26*%
%TO.N,Net-(Arduino1-Pad26)*%
X105410000Y-70104000D03*
%TO.P,Arduino1,25*%
%TO.N,Net-(Arduino1-Pad25)*%
X107950000Y-70104000D03*
%TO.P,Arduino1,24*%
%TO.N,Net-(Arduino1-Pad24)*%
X110490000Y-70104000D03*
%TO.P,Arduino1,23*%
%TO.N,Net-(Arduino1-Pad23)*%
X113030000Y-70104000D03*
%TO.P,Arduino1,22*%
%TO.N,Net-(Arduino1-Pad22)*%
X115570000Y-70104000D03*
%TO.P,Arduino1,21*%
%TO.N,Net-(Arduino1-Pad21)*%
X118110000Y-70104000D03*
%TO.P,Arduino1,20*%
%TO.N,Net-(Arduino1-Pad20)*%
X120650000Y-70104000D03*
%TO.P,Arduino1,19*%
%TO.N,Net-(Arduino1-Pad19)*%
X123190000Y-70104000D03*
%TO.P,Arduino1,18*%
%TO.N,Net-(Arduino1-Pad18)*%
X125730000Y-70104000D03*
%TO.P,Arduino1,17*%
%TO.N,Net-(Arduino1-Pad17)*%
X128270000Y-70104000D03*
D14*
%TO.P,Arduino1,16*%
%TO.N,Net-(Arduino1-Pad16)*%
X130810000Y-70104000D03*
X130810000Y-68834000D03*
D15*
X130810000Y-69469000D03*
D14*
%TO.P,Arduino1,17*%
%TO.N,Net-(Arduino1-Pad17)*%
X128270000Y-68834000D03*
%TO.P,Arduino1,18*%
%TO.N,Net-(Arduino1-Pad18)*%
X125730000Y-68834000D03*
%TO.P,Arduino1,19*%
%TO.N,Net-(Arduino1-Pad19)*%
X123190000Y-68834000D03*
%TO.P,Arduino1,21*%
%TO.N,Net-(Arduino1-Pad21)*%
X118110000Y-68834000D03*
%TO.P,Arduino1,20*%
%TO.N,Net-(Arduino1-Pad20)*%
X120650000Y-68834000D03*
%TO.P,Arduino1,22*%
%TO.N,Net-(Arduino1-Pad22)*%
X115570000Y-68834000D03*
%TO.P,Arduino1,24*%
%TO.N,Net-(Arduino1-Pad24)*%
X110490000Y-68834000D03*
%TO.P,Arduino1,23*%
%TO.N,Net-(Arduino1-Pad23)*%
X113030000Y-68834000D03*
%TO.P,Arduino1,26*%
%TO.N,Net-(Arduino1-Pad26)*%
X105410000Y-68834000D03*
%TO.P,Arduino1,27*%
%TO.N,Net-(Arduino1-Pad27)*%
X102870000Y-68834000D03*
%TO.P,Arduino1,25*%
%TO.N,Net-(Arduino1-Pad25)*%
X107950000Y-68834000D03*
%TO.P,Arduino1,28*%
%TO.N,Net-(Arduino1-Pad28)*%
X100330000Y-68834000D03*
%TO.P,Arduino1,30*%
%TO.N,Net-(Arduino1-Pad30)*%
X95250000Y-68834000D03*
%TO.P,Arduino1,29*%
%TO.N,Net-(Arduino1-Pad29)*%
X97790000Y-68834000D03*
D15*
%TO.P,Arduino1,17*%
%TO.N,Net-(Arduino1-Pad17)*%
X128270000Y-69469000D03*
%TO.P,Arduino1,18*%
%TO.N,Net-(Arduino1-Pad18)*%
X125730000Y-69469000D03*
%TO.P,Arduino1,19*%
%TO.N,Net-(Arduino1-Pad19)*%
X123190000Y-69469000D03*
%TO.P,Arduino1,20*%
%TO.N,Net-(Arduino1-Pad20)*%
X120650000Y-69469000D03*
%TO.P,Arduino1,21*%
%TO.N,Net-(Arduino1-Pad21)*%
X118110000Y-69469000D03*
%TO.P,Arduino1,22*%
%TO.N,Net-(Arduino1-Pad22)*%
X115570000Y-69469000D03*
%TO.P,Arduino1,23*%
%TO.N,Net-(Arduino1-Pad23)*%
X113030000Y-69469000D03*
%TO.P,Arduino1,24*%
%TO.N,Net-(Arduino1-Pad24)*%
X110490000Y-69469000D03*
%TO.P,Arduino1,25*%
%TO.N,Net-(Arduino1-Pad25)*%
X107950000Y-69469000D03*
%TO.P,Arduino1,26*%
%TO.N,Net-(Arduino1-Pad26)*%
X105410000Y-69469000D03*
%TO.P,Arduino1,27*%
%TO.N,Net-(Arduino1-Pad27)*%
X102870000Y-69469000D03*
%TO.P,Arduino1,28*%
%TO.N,Net-(Arduino1-Pad28)*%
X100330000Y-69469000D03*
%TO.P,Arduino1,29*%
%TO.N,Net-(Arduino1-Pad29)*%
X97790000Y-69469000D03*
%TO.P,Arduino1,30*%
%TO.N,Net-(Arduino1-Pad30)*%
X95250000Y-69469000D03*
D14*
%TO.P,Arduino1,3*%
%TO.N,Net-(Arduino1-Pad3)*%
X100330000Y-86614000D03*
%TO.P,Arduino1,13*%
%TO.N,Net-(Arduino1-Pad13)*%
X125730000Y-86614000D03*
%TO.P,Arduino1,2*%
%TO.N,Net-(Arduino1-Pad2)*%
X97790000Y-86614000D03*
D15*
X97790000Y-85979000D03*
%TO.P,Arduino1,15*%
%TO.N,Net-(Arduino1-Pad15)*%
X130810000Y-85979000D03*
%TO.P,Arduino1,8*%
%TO.N,Net-(Arduino1-Pad8)*%
X113030000Y-85979000D03*
D14*
%TO.P,Arduino1,15*%
%TO.N,Net-(Arduino1-Pad15)*%
X130810000Y-86614000D03*
%TO.P,Arduino1,5*%
%TO.N,Net-(Arduino1-Pad5)*%
X105410000Y-86614000D03*
%TO.P,Arduino1,14*%
%TO.N,GND*%
X128270000Y-86614000D03*
D13*
%TO.P,Arduino1,12*%
%TO.N,Net-(Arduino1-Pad12)*%
X123190000Y-85344000D03*
D15*
%TO.P,Arduino1,6*%
%TO.N,Net-(Arduino1-Pad6)*%
X107950000Y-85979000D03*
D13*
%TO.P,Arduino1,15*%
%TO.N,Net-(Arduino1-Pad15)*%
X130810000Y-85344000D03*
D15*
%TO.P,Arduino1,7*%
%TO.N,Net-(Arduino1-Pad7)*%
X110490000Y-85979000D03*
D14*
%TO.P,Arduino1,1*%
%TO.N,Net-(Arduino1-Pad1)*%
X95250000Y-85344000D03*
D13*
%TO.P,Arduino1,2*%
%TO.N,Net-(Arduino1-Pad2)*%
X97790000Y-85344000D03*
%TO.P,Arduino1,3*%
%TO.N,Net-(Arduino1-Pad3)*%
X100330000Y-85344000D03*
%TO.P,Arduino1,4*%
%TO.N,Net-(Arduino1-Pad4)*%
X102870000Y-85344000D03*
%TO.P,Arduino1,5*%
%TO.N,Net-(Arduino1-Pad5)*%
X105410000Y-85344000D03*
%TO.P,Arduino1,14*%
%TO.N,GND*%
X128270000Y-85344000D03*
%TO.P,Arduino1,6*%
%TO.N,Net-(Arduino1-Pad6)*%
X107950000Y-85344000D03*
D14*
%TO.P,Arduino1,11*%
%TO.N,Net-(Arduino1-Pad11)*%
X120650000Y-86614000D03*
D15*
%TO.P,Arduino1,9*%
%TO.N,Net-(Arduino1-Pad9)*%
X115570000Y-85979000D03*
%TO.P,Arduino1,10*%
%TO.N,Net-(Arduino1-Pad10)*%
X118110000Y-85979000D03*
D13*
%TO.P,Arduino1,11*%
%TO.N,Net-(Arduino1-Pad11)*%
X120650000Y-85344000D03*
%TO.P,Arduino1,10*%
%TO.N,Net-(Arduino1-Pad10)*%
X118110000Y-85344000D03*
D15*
%TO.P,Arduino1,4*%
%TO.N,Net-(Arduino1-Pad4)*%
X102870000Y-85979000D03*
D13*
%TO.P,Arduino1,7*%
%TO.N,Net-(Arduino1-Pad7)*%
X110490000Y-85344000D03*
D14*
%TO.P,Arduino1,10*%
%TO.N,Net-(Arduino1-Pad10)*%
X118110000Y-86614000D03*
%TO.P,Arduino1,6*%
%TO.N,Net-(Arduino1-Pad6)*%
X107950000Y-86614000D03*
D16*
%TD*%
%TO.N,GND*%
%TO.C,Arduino1*%
X128270000Y-85979000D03*
D15*
%TO.P,Arduino1,1*%
%TO.N,Net-(Arduino1-Pad1)*%
X95250000Y-85979000D03*
D14*
%TO.P,Arduino1,9*%
%TO.N,Net-(Arduino1-Pad9)*%
X115570000Y-86614000D03*
%TO.P,Arduino1,8*%
%TO.N,Net-(Arduino1-Pad8)*%
X113030000Y-86614000D03*
%TO.P,Arduino1,4*%
%TO.N,Net-(Arduino1-Pad4)*%
X102870000Y-86614000D03*
D13*
%TO.P,Arduino1,8*%
%TO.N,Net-(Arduino1-Pad8)*%
X113030000Y-85344000D03*
%TO.P,Arduino1,9*%
%TO.N,Net-(Arduino1-Pad9)*%
X115570000Y-85344000D03*
D14*
%TO.P,Arduino1,1*%
%TO.N,Net-(Arduino1-Pad1)*%
X95250000Y-86614000D03*
D13*
%TO.P,Arduino1,13*%
%TO.N,Net-(Arduino1-Pad13)*%
X125730000Y-85344000D03*
D14*
%TO.P,Arduino1,7*%
%TO.N,Net-(Arduino1-Pad7)*%
X110490000Y-86614000D03*
D15*
%TO.P,Arduino1,12*%
%TO.N,Net-(Arduino1-Pad12)*%
X123190000Y-85979000D03*
%TO.P,Arduino1,13*%
%TO.N,Net-(Arduino1-Pad13)*%
X125730000Y-85979000D03*
%TO.P,Arduino1,5*%
%TO.N,Net-(Arduino1-Pad5)*%
X105410000Y-85979000D03*
%TO.P,Arduino1,3*%
%TO.N,Net-(Arduino1-Pad3)*%
X100330000Y-85979000D03*
D14*
%TO.P,Arduino1,12*%
%TO.N,Net-(Arduino1-Pad12)*%
X123190000Y-86614000D03*
D15*
%TO.P,Arduino1,11*%
%TO.N,Net-(Arduino1-Pad11)*%
X120650000Y-85979000D03*
%TD*%
D17*
%TO.P,D1,1*%
%TO.N,Net-(Arduino1-Pad19)*%
X133858000Y-51562000D03*
D18*
%TO.P,D1,2*%
%TO.N,Net-(D1-Pad2)*%
X131318000Y-51562000D03*
%TD*%
D19*
%TO.P,H1,1*%
%TO.N,GND*%
X69342000Y-49022000D03*
%TD*%
%TO.P,H2,1*%
%TO.N,GND*%
X143500000Y-49000000D03*
%TD*%
%TO.P,H3,1*%
%TO.N,GND*%
X69342000Y-88138000D03*
%TD*%
%TO.P,H4,1*%
%TO.N,GND*%
X143510000Y-88646000D03*
%TD*%
D20*
%TO.P,LED_Switch1,1*%
%TO.N,Net-(Arduino1-Pad21)*%
X121562000Y-49022000D03*
%TO.P,LED_Switch1,2*%
%TO.N,Net-(Arduino1-Pad2)*%
X121562000Y-53522000D03*
%TO.P,LED_Switch1,1*%
%TO.N,Net-(Arduino1-Pad21)*%
X115062000Y-49022000D03*
%TO.P,LED_Switch1,2*%
%TO.N,Net-(Arduino1-Pad2)*%
X115062000Y-53522000D03*
%TD*%
%TO.P,R1,1*%
%TO.N,Net-(Arduino1-Pad26)*%
%TA.AperFunction,SMDPad,CuDef*%
G36*
G01*
X105032000Y-54372500D02*
X105032000Y-54847500D01*
G75*
G02*
X104794500Y-55085000I-237500J0D01*
G01*
X104219500Y-55085000D01*
G75*
G02*
X103982000Y-54847500I0J237500D01*
G01*
X103982000Y-54372500D01*
G75*
G02*
X104219500Y-54135000I237500J0D01*
G01*
X104794500Y-54135000D01*
G75*
G02*
X105032000Y-54372500I0J-237500D01*
G01*
G37*
%TD.AperFunction*%
%TO.P,R1,2*%
%TO.N,GND*%
%TA.AperFunction,SMDPad,CuDef*%
G36*
G01*
X103282000Y-54372500D02*
X103282000Y-54847500D01*
G75*
G02*
X103044500Y-55085000I-237500J0D01*
G01*
X102469500Y-55085000D01*
G75*
G02*
X102232000Y-54847500I0J237500D01*
G01*
X102232000Y-54372500D01*
G75*
G02*
X102469500Y-54135000I237500J0D01*
G01*
X103044500Y-54135000D01*
G75*
G02*
X103282000Y-54372500I0J-237500D01*
G01*
G37*
%TD.AperFunction*%
%TD*%
%TO.P,R2,1*%
%TO.N,Net-(Arduino1-Pad27)*%
%TA.AperFunction,SMDPad,CuDef*%
G36*
G01*
X98400000Y-54262500D02*
X98400000Y-54737500D01*
G75*
G02*
X98162500Y-54975000I-237500J0D01*
G01*
X97587500Y-54975000D01*
G75*
G02*
X97350000Y-54737500I0J237500D01*
G01*
X97350000Y-54262500D01*
G75*
G02*
X97587500Y-54025000I237500J0D01*
G01*
X98162500Y-54025000D01*
G75*
G02*
X98400000Y-54262500I0J-237500D01*
G01*
G37*
%TD.AperFunction*%
%TO.P,R2,2*%
%TO.N,GND*%
%TA.AperFunction,SMDPad,CuDef*%
G36*
G01*
X96650000Y-54262500D02*
X96650000Y-54737500D01*
G75*
G02*
X96412500Y-54975000I-237500J0D01*
G01*
X95837500Y-54975000D01*
G75*
G02*
X95600000Y-54737500I0J237500D01*
G01*
X95600000Y-54262500D01*
G75*
G02*
X95837500Y-54025000I237500J0D01*
G01*
X96412500Y-54025000D01*
G75*
G02*
X96650000Y-54262500I0J-237500D01*
G01*
G37*
%TD.AperFunction*%
%TD*%
%TO.P,R3,1*%
%TO.N,Net-(Arduino1-Pad28)*%
%TA.AperFunction,SMDPad,CuDef*%
G36*
G01*
X92332000Y-54372500D02*
X92332000Y-54847500D01*
G75*
G02*
X92094500Y-55085000I-237500J0D01*
G01*
X91519500Y-55085000D01*
G75*
G02*
X91282000Y-54847500I0J237500D01*
G01*
X91282000Y-54372500D01*
G75*
G02*
X91519500Y-54135000I237500J0D01*
G01*
X92094500Y-54135000D01*
G75*
G02*
X92332000Y-54372500I0J-237500D01*
G01*
G37*
%TD.AperFunction*%
%TO.P,R3,2*%
%TO.N,GND*%
%TA.AperFunction,SMDPad,CuDef*%
G36*
G01*
X90582000Y-54372500D02*
X90582000Y-54847500D01*
G75*
G02*
X90344500Y-55085000I-237500J0D01*
G01*
X89769500Y-55085000D01*
G75*
G02*
X89532000Y-54847500I0J237500D01*
G01*
X89532000Y-54372500D01*
G75*
G02*
X89769500Y-54135000I237500J0D01*
G01*
X90344500Y-54135000D01*
G75*
G02*
X90582000Y-54372500I0J-237500D01*
G01*
G37*
%TD.AperFunction*%
%TD*%
%TO.P,R4,2*%
%TO.N,Net-(Arduino1-Pad20)*%
%TA.AperFunction,SMDPad,CuDef*%
G36*
G01*
X126475500Y-50704000D02*
X126000500Y-50704000D01*
G75*
G02*
X125763000Y-50466500I0J237500D01*
G01*
X125763000Y-49891500D01*
G75*
G02*
X126000500Y-49654000I237500J0D01*
G01*
X126475500Y-49654000D01*
G75*
G02*
X126713000Y-49891500I0J-237500D01*
G01*
X126713000Y-50466500D01*
G75*
G02*
X126475500Y-50704000I-237500J0D01*
G01*
G37*
%TD.AperFunction*%
%TO.P,R4,1*%
%TO.N,Net-(D1-Pad2)*%
%TA.AperFunction,SMDPad,CuDef*%
G36*
G01*
X126475500Y-52454000D02*
X126000500Y-52454000D01*
G75*
G02*
X125763000Y-52216500I0J237500D01*
G01*
X125763000Y-51641500D01*
G75*
G02*
X126000500Y-51404000I237500J0D01*
G01*
X126475500Y-51404000D01*
G75*
G02*
X126713000Y-51641500I0J-237500D01*
G01*
X126713000Y-52216500D01*
G75*
G02*
X126475500Y-52454000I-237500J0D01*
G01*
G37*
%TD.AperFunction*%
%TD*%
%TO.P,R5,2*%
%TO.N,GND*%
%TA.AperFunction,SMDPad,CuDef*%
G36*
G01*
X110219500Y-50704000D02*
X109744500Y-50704000D01*
G75*
G02*
X109507000Y-50466500I0J237500D01*
G01*
X109507000Y-49891500D01*
G75*
G02*
X109744500Y-49654000I237500J0D01*
G01*
X110219500Y-49654000D01*
G75*
G02*
X110457000Y-49891500I0J-237500D01*
G01*
X110457000Y-50466500D01*
G75*
G02*
X110219500Y-50704000I-237500J0D01*
G01*
G37*
%TD.AperFunction*%
%TO.P,R5,1*%
%TO.N,Net-(Arduino1-Pad21)*%
%TA.AperFunction,SMDPad,CuDef*%
G36*
G01*
X110219500Y-52454000D02*
X109744500Y-52454000D01*
G75*
G02*
X109507000Y-52216500I0J237500D01*
G01*
X109507000Y-51641500D01*
G75*
G02*
X109744500Y-51404000I237500J0D01*
G01*
X110219500Y-51404000D01*
G75*
G02*
X110457000Y-51641500I0J-237500D01*
G01*
X110457000Y-52216500D01*
G75*
G02*
X110219500Y-52454000I-237500J0D01*
G01*
G37*
%TD.AperFunction*%
%TD*%
D21*
%TO.P,U1,8*%
%TO.N,N/C*%
X86338000Y-60080000D03*
%TO.P,U1,6*%
X86338000Y-74050000D03*
%TO.P,U1,7*%
X70590000Y-60080000D03*
%TO.P,U1,5*%
X70590000Y-74050000D03*
D22*
%TO.P,U1,1*%
X74908000Y-74050000D03*
%TO.P,U1,4*%
%TO.N,Net-(Power_Switch1-Pad2)*%
X82528000Y-74050000D03*
%TO.P,U1,3*%
%TO.N,GND*%
X79988000Y-74050000D03*
%TO.P,U1,2*%
X77448000Y-74050000D03*
%TD*%
D23*
%TO.P,Power_Switch1,6*%
%TO.N,N/C*%
X146556000Y-66374000D03*
%TO.P,Power_Switch1,5*%
X146556000Y-68874000D03*
%TO.P,Power_Switch1,4*%
X146556000Y-71374000D03*
%TO.P,Power_Switch1,3*%
%TO.N,Net-(Arduino1-Pad2)*%
X143256000Y-66374000D03*
%TO.P,Power_Switch1,2*%
%TO.N,Net-(Power_Switch1-Pad2)*%
X143256000Y-68874000D03*
D24*
%TO.P,Power_Switch1,1*%
%TO.N,N/C*%
X143256000Y-71374000D03*
%TD*%
D25*
%TO.N,GND*%
X130610000Y-55470000D03*
X126520000Y-58590000D03*
X100230000Y-53280000D03*
X98080000Y-58100000D03*
%TD*%
D26*
%TO.N,Net-(Arduino1-Pad29)*%
X97875000Y-68749000D02*
X97790000Y-68834000D01*
%TO.N,Net-(Arduino1-Pad28)*%
X91807000Y-54610000D02*
X92456000Y-54610000D01*
X92456000Y-54610000D02*
X96266000Y-50800000D01*
X98324999Y-47802999D02*
X99250000Y-48728000D01*
X96805999Y-47802999D02*
X98324999Y-47802999D01*
X96266000Y-48342998D02*
X96805999Y-47802999D01*
X96266000Y-50800000D02*
X96266000Y-48342998D01*
X100330000Y-66280000D02*
X100330000Y-69469000D01*
X91807000Y-54610000D02*
X91807000Y-55437000D01*
X100330000Y-63960000D02*
X100330000Y-66280000D01*
X91807000Y-55437000D02*
X100330000Y-63960000D01*
%TO.N,Net-(Arduino1-Pad27)*%
X97250000Y-53875000D02*
X97875000Y-54500000D01*
X97250000Y-48728000D02*
X97250000Y-53875000D01*
X102870000Y-60930000D02*
X102870000Y-69469000D01*
X97875000Y-54500000D02*
X97970000Y-54500000D01*
X102870000Y-59400000D02*
X102870000Y-60930000D01*
X97970000Y-54500000D02*
X102870000Y-59400000D01*
%TO.N,Net-(Arduino1-Pad26)*%
X91250000Y-48728000D02*
X92242000Y-48728000D01*
X92242000Y-48728000D02*
X93980000Y-46990000D01*
X99297002Y-46990000D02*
X101346000Y-49038998D01*
X93980000Y-46990000D02*
X99297002Y-46990000D01*
X101346000Y-51449000D02*
X104507000Y-54610000D01*
X101346000Y-49038998D02*
X101346000Y-51449000D01*
X105410000Y-56807305D02*
X105410000Y-69469000D01*
X104507000Y-54610000D02*
X104630000Y-54610000D01*
X105410000Y-55390000D02*
X105410000Y-56807305D01*
X104630000Y-54610000D02*
X105410000Y-55390000D01*
%TO.N,Net-(Arduino1-Pad21)*%
X115062000Y-49022000D02*
X121562000Y-49022000D01*
X112889000Y-49022000D02*
X109982000Y-51929000D01*
X115062000Y-49022000D02*
X112889000Y-49022000D01*
X109982000Y-60706000D02*
X118110000Y-68834000D01*
X109982000Y-51929000D02*
X109982000Y-60706000D01*
%TO.N,Net-(Arduino1-Pad20)*%
X126238000Y-50179000D02*
X125589000Y-50179000D01*
X125589000Y-50179000D02*
X123952000Y-51816000D01*
X123952000Y-65532000D02*
X120650000Y-68834000D01*
X123952000Y-51816000D02*
X123952000Y-65532000D01*
%TO.N,Net-(Arduino1-Pad19)*%
X133858000Y-58166000D02*
X123190000Y-68834000D01*
X133858000Y-51562000D02*
X133858000Y-58166000D01*
%TO.N,Net-(D1-Pad2)*%
X126605000Y-51562000D02*
X126238000Y-51929000D01*
X131318000Y-51562000D02*
X126605000Y-51562000D01*
%TO.N,GND*%
X128270000Y-85979000D02*
X128270000Y-86650000D01*
D27*
X128270000Y-86650000D02*
X129500000Y-87880000D01*
D26*
X129500000Y-87880000D02*
X128280000Y-86660000D01*
X128280000Y-86660000D02*
X128280000Y-84050000D01*
D27*
X128270000Y-86614000D02*
X127130000Y-87754000D01*
%TD*%
D28*
%TO.N,GND*%
G36*
X142850707Y-45712366D02*
G01*
X142221797Y-45902208D01*
X141642008Y-46211096D01*
X141634411Y-46216172D01*
X141334231Y-46654626D01*
X143500000Y-48820395D01*
X145665769Y-46654626D01*
X145365589Y-46216172D01*
X144786644Y-45905704D01*
X144158254Y-45714148D01*
X143616057Y-45660000D01*
X146840000Y-45660000D01*
X146840000Y-48889923D01*
X146787634Y-48350707D01*
X146597792Y-47721797D01*
X146288904Y-47142008D01*
X146283828Y-47134411D01*
X145845374Y-46834231D01*
X143679605Y-49000000D01*
X145845374Y-51165769D01*
X146283828Y-50865589D01*
X146594296Y-50286644D01*
X146785852Y-49658254D01*
X146840000Y-49116056D01*
X146840000Y-65069337D01*
X146687486Y-65039000D01*
X146424514Y-65039000D01*
X146166595Y-65090304D01*
X145923641Y-65190939D01*
X145704987Y-65337038D01*
X145519038Y-65522987D01*
X145372939Y-65741641D01*
X145272304Y-65984595D01*
X145221000Y-66242514D01*
X145221000Y-66505486D01*
X145272304Y-66763405D01*
X145372939Y-67006359D01*
X145519038Y-67225013D01*
X145704987Y-67410962D01*
X145923641Y-67557061D01*
X146085246Y-67624000D01*
X145923641Y-67690939D01*
X145704987Y-67837038D01*
X145519038Y-68022987D01*
X145372939Y-68241641D01*
X145272304Y-68484595D01*
X145221000Y-68742514D01*
X145221000Y-69005486D01*
X145272304Y-69263405D01*
X145372939Y-69506359D01*
X145519038Y-69725013D01*
X145704987Y-69910962D01*
X145923641Y-70057061D01*
X146085246Y-70124000D01*
X145923641Y-70190939D01*
X145704987Y-70337038D01*
X145519038Y-70522987D01*
X145372939Y-70741641D01*
X145272304Y-70984595D01*
X145221000Y-71242514D01*
X145221000Y-71505486D01*
X145272304Y-71763405D01*
X145372939Y-72006359D01*
X145519038Y-72225013D01*
X145704987Y-72410962D01*
X145923641Y-72557061D01*
X146166595Y-72657696D01*
X146424514Y-72709000D01*
X146687486Y-72709000D01*
X146840001Y-72678663D01*
X146840001Y-88432961D01*
X146797634Y-87996707D01*
X146607792Y-87367797D01*
X146298904Y-86788008D01*
X146293828Y-86780411D01*
X145855374Y-86480231D01*
X143689605Y-88646000D01*
X145855374Y-90811769D01*
X146293828Y-90511589D01*
X146604296Y-89932644D01*
X146795852Y-89304254D01*
X146840001Y-88862180D01*
X146840001Y-91840000D01*
X144469484Y-91840000D01*
X144788203Y-91743792D01*
X145367992Y-91434904D01*
X145375589Y-91429828D01*
X145675769Y-90991374D01*
X143510000Y-88825605D01*
X141344231Y-90991374D01*
X141644411Y-91429828D01*
X142223356Y-91740296D01*
X142550430Y-91840000D01*
X65660000Y-91840000D01*
X65660000Y-90483374D01*
X67176231Y-90483374D01*
X67476411Y-90921828D01*
X68055356Y-91232296D01*
X68683746Y-91423852D01*
X69337431Y-91489134D01*
X69991293Y-91425634D01*
X70620203Y-91235792D01*
X71199992Y-90926904D01*
X71207589Y-90921828D01*
X71507769Y-90483374D01*
X69342000Y-88317605D01*
X67176231Y-90483374D01*
X65660000Y-90483374D01*
X65660000Y-88133431D01*
X65990866Y-88133431D01*
X66054366Y-88787293D01*
X66244208Y-89416203D01*
X66553096Y-89995992D01*
X66558172Y-90003589D01*
X66996626Y-90303769D01*
X69162395Y-88138000D01*
X69521605Y-88138000D01*
X71687374Y-90303769D01*
X72125828Y-90003589D01*
X72436296Y-89424644D01*
X72627852Y-88796254D01*
X72643313Y-88641431D01*
X140158866Y-88641431D01*
X140222366Y-89295293D01*
X140412208Y-89924203D01*
X140721096Y-90503992D01*
X140726172Y-90511589D01*
X141164626Y-90811769D01*
X143330395Y-88646000D01*
X141164626Y-86480231D01*
X140726172Y-86780411D01*
X140415704Y-87359356D01*
X140224148Y-87987746D01*
X140158866Y-88641431D01*
X72643313Y-88641431D01*
X72693134Y-88142569D01*
X72629634Y-87488707D01*
X72439792Y-86859797D01*
X72130904Y-86280008D01*
X72125828Y-86272411D01*
X71687374Y-85972231D01*
X69521605Y-88138000D01*
X69162395Y-88138000D01*
X66996626Y-85972231D01*
X66558172Y-86272411D01*
X66247704Y-86851356D01*
X66056148Y-87479746D01*
X65990866Y-88133431D01*
X65660000Y-88133431D01*
X65660000Y-85792626D01*
X67176231Y-85792626D01*
X69342000Y-87958395D01*
X71507769Y-85792626D01*
X71207589Y-85354172D01*
X70915883Y-85197740D01*
X93765000Y-85197740D01*
X93765000Y-86760260D01*
X93776376Y-86817449D01*
X93786487Y-86920111D01*
X93816433Y-87018830D01*
X93822068Y-87047158D01*
X93833121Y-87073843D01*
X93871401Y-87200034D01*
X93933560Y-87316325D01*
X93934010Y-87317411D01*
X93934663Y-87318389D01*
X94009295Y-87458014D01*
X94194867Y-87684134D01*
X94420987Y-87869706D01*
X94678967Y-88007599D01*
X94958890Y-88092513D01*
X95250000Y-88121185D01*
X95541111Y-88092513D01*
X95821034Y-88007599D01*
X96079014Y-87869706D01*
X96305134Y-87684134D01*
X96490706Y-87458014D01*
X96520000Y-87403208D01*
X96549295Y-87458014D01*
X96734867Y-87684134D01*
X96960987Y-87869706D01*
X97218967Y-88007599D01*
X97498890Y-88092513D01*
X97790000Y-88121185D01*
X98081111Y-88092513D01*
X98361034Y-88007599D01*
X98619014Y-87869706D01*
X98845134Y-87684134D01*
X99030706Y-87458014D01*
X99060000Y-87403208D01*
X99089295Y-87458014D01*
X99274867Y-87684134D01*
X99500987Y-87869706D01*
X99758967Y-88007599D01*
X100038890Y-88092513D01*
X100330000Y-88121185D01*
X100621111Y-88092513D01*
X100901034Y-88007599D01*
X101159014Y-87869706D01*
X101385134Y-87684134D01*
X101570706Y-87458014D01*
X101600000Y-87403208D01*
X101629295Y-87458014D01*
X101814867Y-87684134D01*
X102040987Y-87869706D01*
X102298967Y-88007599D01*
X102578890Y-88092513D01*
X102870000Y-88121185D01*
X103161111Y-88092513D01*
X103441034Y-88007599D01*
X103699014Y-87869706D01*
X103925134Y-87684134D01*
X104110706Y-87458014D01*
X104140000Y-87403208D01*
X104169295Y-87458014D01*
X104354867Y-87684134D01*
X104580987Y-87869706D01*
X104838967Y-88007599D01*
X105118890Y-88092513D01*
X105410000Y-88121185D01*
X105701111Y-88092513D01*
X105981034Y-88007599D01*
X106239014Y-87869706D01*
X106465134Y-87684134D01*
X106650706Y-87458014D01*
X106680000Y-87403208D01*
X106709295Y-87458014D01*
X106894867Y-87684134D01*
X107120987Y-87869706D01*
X107378967Y-88007599D01*
X107658890Y-88092513D01*
X107950000Y-88121185D01*
X108241111Y-88092513D01*
X108521034Y-88007599D01*
X108779014Y-87869706D01*
X109005134Y-87684134D01*
X109190706Y-87458014D01*
X109220000Y-87403208D01*
X109249295Y-87458014D01*
X109434867Y-87684134D01*
X109660987Y-87869706D01*
X109918967Y-88007599D01*
X110198890Y-88092513D01*
X110490000Y-88121185D01*
X110781111Y-88092513D01*
X111061034Y-88007599D01*
X111319014Y-87869706D01*
X111545134Y-87684134D01*
X111730706Y-87458014D01*
X111760000Y-87403208D01*
X111789295Y-87458014D01*
X111974867Y-87684134D01*
X112200987Y-87869706D01*
X112458967Y-88007599D01*
X112738890Y-88092513D01*
X113030000Y-88121185D01*
X113321111Y-88092513D01*
X113601034Y-88007599D01*
X113859014Y-87869706D01*
X114085134Y-87684134D01*
X114270706Y-87458014D01*
X114300000Y-87403208D01*
X114329295Y-87458014D01*
X114514867Y-87684134D01*
X114740987Y-87869706D01*
X114998967Y-88007599D01*
X115278890Y-88092513D01*
X115570000Y-88121185D01*
X115861111Y-88092513D01*
X116141034Y-88007599D01*
X116399014Y-87869706D01*
X116625134Y-87684134D01*
X116810706Y-87458014D01*
X116840000Y-87403208D01*
X116869295Y-87458014D01*
X117054867Y-87684134D01*
X117280987Y-87869706D01*
X117538967Y-88007599D01*
X117818890Y-88092513D01*
X118110000Y-88121185D01*
X118401111Y-88092513D01*
X118681034Y-88007599D01*
X118939014Y-87869706D01*
X119165134Y-87684134D01*
X119350706Y-87458014D01*
X119380000Y-87403208D01*
X119409295Y-87458014D01*
X119594867Y-87684134D01*
X119820987Y-87869706D01*
X120078967Y-88007599D01*
X120358890Y-88092513D01*
X120650000Y-88121185D01*
X120941111Y-88092513D01*
X121221034Y-88007599D01*
X121479014Y-87869706D01*
X121705134Y-87684134D01*
X121890706Y-87458014D01*
X121920000Y-87403208D01*
X121949295Y-87458014D01*
X122134867Y-87684134D01*
X122360987Y-87869706D01*
X122618967Y-88007599D01*
X122898890Y-88092513D01*
X123190000Y-88121185D01*
X123481111Y-88092513D01*
X123761034Y-88007599D01*
X124019014Y-87869706D01*
X124245134Y-87684134D01*
X124430706Y-87458014D01*
X124460000Y-87403208D01*
X124489295Y-87458014D01*
X124674867Y-87684134D01*
X124900987Y-87869706D01*
X125158967Y-88007599D01*
X125438890Y-88092513D01*
X125730000Y-88121185D01*
X126021111Y-88092513D01*
X126301034Y-88007599D01*
X126559014Y-87869706D01*
X126785134Y-87684134D01*
X126970706Y-87458014D01*
X127001895Y-87399663D01*
X127105824Y-87559619D01*
X127309748Y-87768857D01*
X127550574Y-87934291D01*
X127819047Y-88049563D01*
X127913110Y-88070476D01*
X127932267Y-88060366D01*
X128046411Y-88089339D01*
X128338531Y-88104611D01*
X128615427Y-88064426D01*
X128626890Y-88070476D01*
X128720953Y-88049563D01*
X128989426Y-87934291D01*
X129230252Y-87768857D01*
X129434176Y-87559619D01*
X129538105Y-87399662D01*
X129569295Y-87458014D01*
X129754867Y-87684134D01*
X129980987Y-87869706D01*
X130238967Y-88007599D01*
X130518890Y-88092513D01*
X130810000Y-88121185D01*
X131101111Y-88092513D01*
X131381034Y-88007599D01*
X131639014Y-87869706D01*
X131865134Y-87684134D01*
X132050706Y-87458014D01*
X132125339Y-87318385D01*
X132125990Y-87317411D01*
X132126438Y-87316328D01*
X132188599Y-87200034D01*
X132226879Y-87073843D01*
X132237932Y-87047158D01*
X132243567Y-87018830D01*
X132273513Y-86920111D01*
X132283624Y-86817449D01*
X132295000Y-86760260D01*
X132295000Y-86300626D01*
X141344231Y-86300626D01*
X143510000Y-88466395D01*
X145675769Y-86300626D01*
X145375589Y-85862172D01*
X144796644Y-85551704D01*
X144168254Y-85360148D01*
X143514569Y-85294866D01*
X142860707Y-85358366D01*
X142231797Y-85548208D01*
X141652008Y-85857096D01*
X141644411Y-85862172D01*
X141344231Y-86300626D01*
X132295000Y-86300626D01*
X132295000Y-85197740D01*
X132283624Y-85140551D01*
X132273513Y-85037889D01*
X132243567Y-84939170D01*
X132237932Y-84910842D01*
X132226879Y-84884157D01*
X132188599Y-84757966D01*
X132126438Y-84641672D01*
X132125990Y-84640589D01*
X132125339Y-84639615D01*
X132050706Y-84499986D01*
X131865134Y-84273866D01*
X131639013Y-84088294D01*
X131381033Y-83950401D01*
X131101110Y-83865487D01*
X130810000Y-83836815D01*
X130518889Y-83865487D01*
X130238966Y-83950401D01*
X129980986Y-84088294D01*
X129754866Y-84273866D01*
X129569294Y-84499987D01*
X129538105Y-84558338D01*
X129434176Y-84398381D01*
X129230252Y-84189143D01*
X128989426Y-84023709D01*
X128720953Y-83908437D01*
X128626890Y-83887524D01*
X128397000Y-84008845D01*
X128397000Y-85133611D01*
X128201469Y-85123389D01*
X128143000Y-85131874D01*
X128143000Y-84008845D01*
X127913110Y-83887524D01*
X127819047Y-83908437D01*
X127550574Y-84023709D01*
X127309748Y-84189143D01*
X127105824Y-84398381D01*
X127001895Y-84558337D01*
X126970706Y-84499986D01*
X126785134Y-84273866D01*
X126559013Y-84088294D01*
X126301033Y-83950401D01*
X126021110Y-83865487D01*
X125730000Y-83836815D01*
X125438889Y-83865487D01*
X125158966Y-83950401D01*
X124900986Y-84088294D01*
X124674866Y-84273866D01*
X124489294Y-84499987D01*
X124460000Y-84554792D01*
X124430706Y-84499986D01*
X124245134Y-84273866D01*
X124019013Y-84088294D01*
X123761033Y-83950401D01*
X123481110Y-83865487D01*
X123190000Y-83836815D01*
X122898889Y-83865487D01*
X122618966Y-83950401D01*
X122360986Y-84088294D01*
X122134866Y-84273866D01*
X121949294Y-84499987D01*
X121920000Y-84554792D01*
X121890706Y-84499986D01*
X121705134Y-84273866D01*
X121479013Y-84088294D01*
X121221033Y-83950401D01*
X120941110Y-83865487D01*
X120650000Y-83836815D01*
X120358889Y-83865487D01*
X120078966Y-83950401D01*
X119820986Y-84088294D01*
X119594866Y-84273866D01*
X119409294Y-84499987D01*
X119380000Y-84554792D01*
X119350706Y-84499986D01*
X119165134Y-84273866D01*
X118939013Y-84088294D01*
X118681033Y-83950401D01*
X118401110Y-83865487D01*
X118110000Y-83836815D01*
X117818889Y-83865487D01*
X117538966Y-83950401D01*
X117280986Y-84088294D01*
X117054866Y-84273866D01*
X116869294Y-84499987D01*
X116840000Y-84554792D01*
X116810706Y-84499986D01*
X116625134Y-84273866D01*
X116399013Y-84088294D01*
X116141033Y-83950401D01*
X115861110Y-83865487D01*
X115570000Y-83836815D01*
X115278889Y-83865487D01*
X114998966Y-83950401D01*
X114740986Y-84088294D01*
X114514866Y-84273866D01*
X114329294Y-84499987D01*
X114300000Y-84554792D01*
X114270706Y-84499986D01*
X114085134Y-84273866D01*
X113859013Y-84088294D01*
X113601033Y-83950401D01*
X113321110Y-83865487D01*
X113030000Y-83836815D01*
X112738889Y-83865487D01*
X112458966Y-83950401D01*
X112200986Y-84088294D01*
X111974866Y-84273866D01*
X111789294Y-84499987D01*
X111760000Y-84554792D01*
X111730706Y-84499986D01*
X111545134Y-84273866D01*
X111319013Y-84088294D01*
X111061033Y-83950401D01*
X110781110Y-83865487D01*
X110490000Y-83836815D01*
X110198889Y-83865487D01*
X109918966Y-83950401D01*
X109660986Y-84088294D01*
X109434866Y-84273866D01*
X109249294Y-84499987D01*
X109220000Y-84554792D01*
X109190706Y-84499986D01*
X109005134Y-84273866D01*
X108779013Y-84088294D01*
X108521033Y-83950401D01*
X108241110Y-83865487D01*
X107950000Y-83836815D01*
X107658889Y-83865487D01*
X107378966Y-83950401D01*
X107120986Y-84088294D01*
X106894866Y-84273866D01*
X106709294Y-84499987D01*
X106680000Y-84554792D01*
X106650706Y-84499986D01*
X106465134Y-84273866D01*
X106239013Y-84088294D01*
X105981033Y-83950401D01*
X105701110Y-83865487D01*
X105410000Y-83836815D01*
X105118889Y-83865487D01*
X104838966Y-83950401D01*
X104580986Y-84088294D01*
X104354866Y-84273866D01*
X104169294Y-84499987D01*
X104140000Y-84554792D01*
X104110706Y-84499986D01*
X103925134Y-84273866D01*
X103699013Y-84088294D01*
X103441033Y-83950401D01*
X103161110Y-83865487D01*
X102870000Y-83836815D01*
X102578889Y-83865487D01*
X102298966Y-83950401D01*
X102040986Y-84088294D01*
X101814866Y-84273866D01*
X101629294Y-84499987D01*
X101600000Y-84554792D01*
X101570706Y-84499986D01*
X101385134Y-84273866D01*
X101159013Y-84088294D01*
X100901033Y-83950401D01*
X100621110Y-83865487D01*
X100330000Y-83836815D01*
X100038889Y-83865487D01*
X99758966Y-83950401D01*
X99500986Y-84088294D01*
X99274866Y-84273866D01*
X99089294Y-84499987D01*
X99060000Y-84554792D01*
X99030706Y-84499986D01*
X98845134Y-84273866D01*
X98619013Y-84088294D01*
X98361033Y-83950401D01*
X98081110Y-83865487D01*
X97790000Y-83836815D01*
X97498889Y-83865487D01*
X97218966Y-83950401D01*
X96960986Y-84088294D01*
X96734866Y-84273866D01*
X96549294Y-84499987D01*
X96520000Y-84554792D01*
X96490706Y-84499986D01*
X96305134Y-84273866D01*
X96079013Y-84088294D01*
X95821033Y-83950401D01*
X95541110Y-83865487D01*
X95250000Y-83836815D01*
X94958889Y-83865487D01*
X94678966Y-83950401D01*
X94420986Y-84088294D01*
X94194866Y-84273866D01*
X94009294Y-84499987D01*
X93934664Y-84639611D01*
X93934010Y-84640589D01*
X93933560Y-84641676D01*
X93871401Y-84757967D01*
X93833122Y-84884154D01*
X93822068Y-84910842D01*
X93816433Y-84939173D01*
X93786487Y-85037890D01*
X93776376Y-85140550D01*
X93765000Y-85197740D01*
X70915883Y-85197740D01*
X70628644Y-85043704D01*
X70000254Y-84852148D01*
X69346569Y-84786866D01*
X68692707Y-84850366D01*
X68063797Y-85040208D01*
X67484008Y-85349096D01*
X67476411Y-85354172D01*
X67176231Y-85792626D01*
X65660000Y-85792626D01*
X65660000Y-73829877D01*
X68355054Y-73829877D01*
X68355054Y-74270123D01*
X68440942Y-74701910D01*
X68609417Y-75108644D01*
X68854004Y-75474695D01*
X69165305Y-75785996D01*
X69531356Y-76030583D01*
X69938090Y-76199058D01*
X70369877Y-76284946D01*
X70810123Y-76284946D01*
X71241910Y-76199058D01*
X71648644Y-76030583D01*
X72014695Y-75785996D01*
X72325996Y-75474695D01*
X72570583Y-75108644D01*
X72739058Y-74701910D01*
X72824946Y-74270123D01*
X72824946Y-73924916D01*
X73638000Y-73924916D01*
X73638000Y-74175084D01*
X73686805Y-74420445D01*
X73782541Y-74651571D01*
X73921527Y-74859578D01*
X74098422Y-75036473D01*
X74306429Y-75175459D01*
X74537555Y-75271195D01*
X74782916Y-75320000D01*
X75033084Y-75320000D01*
X75278445Y-75271195D01*
X75509571Y-75175459D01*
X75717578Y-75036473D01*
X75829251Y-74924800D01*
X76752805Y-74924800D01*
X76804369Y-75151946D01*
X77031716Y-75256339D01*
X77275059Y-75314373D01*
X77525049Y-75323818D01*
X77772078Y-75284310D01*
X78006653Y-75197369D01*
X78091631Y-75151946D01*
X78143195Y-74924800D01*
X79292805Y-74924800D01*
X79344369Y-75151946D01*
X79571716Y-75256339D01*
X79815059Y-75314373D01*
X80065049Y-75323818D01*
X80312078Y-75284310D01*
X80546653Y-75197369D01*
X80631631Y-75151946D01*
X80683195Y-74924800D01*
X79988000Y-74229605D01*
X79292805Y-74924800D01*
X78143195Y-74924800D01*
X77448000Y-74229605D01*
X76752805Y-74924800D01*
X75829251Y-74924800D01*
X75894473Y-74859578D01*
X76033459Y-74651571D01*
X76129195Y-74420445D01*
X76178000Y-74175084D01*
X76178000Y-74150922D01*
X76213690Y-74374078D01*
X76300631Y-74608653D01*
X76346054Y-74693631D01*
X76573200Y-74745195D01*
X77268395Y-74050000D01*
X77627605Y-74050000D01*
X78322800Y-74745195D01*
X78549946Y-74693631D01*
X78654339Y-74466284D01*
X78712373Y-74222941D01*
X78715649Y-74136224D01*
X78753690Y-74374078D01*
X78840631Y-74608653D01*
X78886054Y-74693631D01*
X79113200Y-74745195D01*
X79808395Y-74050000D01*
X80167605Y-74050000D01*
X80862800Y-74745195D01*
X81089946Y-74693631D01*
X81194339Y-74466284D01*
X81252373Y-74222941D01*
X81258000Y-74074006D01*
X81258000Y-74175084D01*
X81306805Y-74420445D01*
X81402541Y-74651571D01*
X81541527Y-74859578D01*
X81718422Y-75036473D01*
X81926429Y-75175459D01*
X82157555Y-75271195D01*
X82402916Y-75320000D01*
X82653084Y-75320000D01*
X82898445Y-75271195D01*
X83129571Y-75175459D01*
X83337578Y-75036473D01*
X83514473Y-74859578D01*
X83653459Y-74651571D01*
X83749195Y-74420445D01*
X83798000Y-74175084D01*
X83798000Y-73924916D01*
X83779096Y-73829877D01*
X84103054Y-73829877D01*
X84103054Y-74270123D01*
X84188942Y-74701910D01*
X84357417Y-75108644D01*
X84602004Y-75474695D01*
X84913305Y-75785996D01*
X85279356Y-76030583D01*
X85686090Y-76199058D01*
X86117877Y-76284946D01*
X86558123Y-76284946D01*
X86989910Y-76199058D01*
X87396644Y-76030583D01*
X87762695Y-75785996D01*
X88073996Y-75474695D01*
X88318583Y-75108644D01*
X88487058Y-74701910D01*
X88572946Y-74270123D01*
X88572946Y-73829877D01*
X88487058Y-73398090D01*
X88318583Y-72991356D01*
X88073996Y-72625305D01*
X87762695Y-72314004D01*
X87396644Y-72069417D01*
X86989910Y-71900942D01*
X86558123Y-71815054D01*
X86117877Y-71815054D01*
X85686090Y-71900942D01*
X85279356Y-72069417D01*
X84913305Y-72314004D01*
X84602004Y-72625305D01*
X84357417Y-72991356D01*
X84188942Y-73398090D01*
X84103054Y-73829877D01*
X83779096Y-73829877D01*
X83749195Y-73679555D01*
X83653459Y-73448429D01*
X83514473Y-73240422D01*
X83337578Y-73063527D01*
X83129571Y-72924541D01*
X82898445Y-72828805D01*
X82653084Y-72780000D01*
X82402916Y-72780000D01*
X82157555Y-72828805D01*
X81926429Y-72924541D01*
X81718422Y-73063527D01*
X81541527Y-73240422D01*
X81402541Y-73448429D01*
X81306805Y-73679555D01*
X81258000Y-73924916D01*
X81258000Y-73949078D01*
X81222310Y-73725922D01*
X81135369Y-73491347D01*
X81089946Y-73406369D01*
X80862800Y-73354805D01*
X80167605Y-74050000D01*
X79808395Y-74050000D01*
X79113200Y-73354805D01*
X78886054Y-73406369D01*
X78781661Y-73633716D01*
X78723627Y-73877059D01*
X78720351Y-73963776D01*
X78682310Y-73725922D01*
X78595369Y-73491347D01*
X78549946Y-73406369D01*
X78322800Y-73354805D01*
X77627605Y-74050000D01*
X77268395Y-74050000D01*
X76573200Y-73354805D01*
X76346054Y-73406369D01*
X76241661Y-73633716D01*
X76183627Y-73877059D01*
X76178000Y-74025994D01*
X76178000Y-73924916D01*
X76129195Y-73679555D01*
X76033459Y-73448429D01*
X75894473Y-73240422D01*
X75829251Y-73175200D01*
X76752805Y-73175200D01*
X77448000Y-73870395D01*
X78143195Y-73175200D01*
X79292805Y-73175200D01*
X79988000Y-73870395D01*
X80683195Y-73175200D01*
X80631631Y-72948054D01*
X80404284Y-72843661D01*
X80160941Y-72785627D01*
X79910951Y-72776182D01*
X79663922Y-72815690D01*
X79429347Y-72902631D01*
X79344369Y-72948054D01*
X79292805Y-73175200D01*
X78143195Y-73175200D01*
X78091631Y-72948054D01*
X77864284Y-72843661D01*
X77620941Y-72785627D01*
X77370951Y-72776182D01*
X77123922Y-72815690D01*
X76889347Y-72902631D01*
X76804369Y-72948054D01*
X76752805Y-73175200D01*
X75829251Y-73175200D01*
X75717578Y-73063527D01*
X75509571Y-72924541D01*
X75278445Y-72828805D01*
X75033084Y-72780000D01*
X74782916Y-72780000D01*
X74537555Y-72828805D01*
X74306429Y-72924541D01*
X74098422Y-73063527D01*
X73921527Y-73240422D01*
X73782541Y-73448429D01*
X73686805Y-73679555D01*
X73638000Y-73924916D01*
X72824946Y-73924916D01*
X72824946Y-73829877D01*
X72739058Y-73398090D01*
X72570583Y-72991356D01*
X72325996Y-72625305D01*
X72014695Y-72314004D01*
X71648644Y-72069417D01*
X71241910Y-71900942D01*
X70810123Y-71815054D01*
X70369877Y-71815054D01*
X69938090Y-71900942D01*
X69531356Y-72069417D01*
X69165305Y-72314004D01*
X68854004Y-72625305D01*
X68609417Y-72991356D01*
X68440942Y-73398090D01*
X68355054Y-73829877D01*
X65660000Y-73829877D01*
X65660000Y-59859877D01*
X68355054Y-59859877D01*
X68355054Y-60300123D01*
X68440942Y-60731910D01*
X68609417Y-61138644D01*
X68854004Y-61504695D01*
X69165305Y-61815996D01*
X69531356Y-62060583D01*
X69938090Y-62229058D01*
X70369877Y-62314946D01*
X70810123Y-62314946D01*
X71241910Y-62229058D01*
X71648644Y-62060583D01*
X72014695Y-61815996D01*
X72325996Y-61504695D01*
X72570583Y-61138644D01*
X72739058Y-60731910D01*
X72824946Y-60300123D01*
X72824946Y-59859877D01*
X84103054Y-59859877D01*
X84103054Y-60300123D01*
X84188942Y-60731910D01*
X84357417Y-61138644D01*
X84602004Y-61504695D01*
X84913305Y-61815996D01*
X85279356Y-62060583D01*
X85686090Y-62229058D01*
X86117877Y-62314946D01*
X86558123Y-62314946D01*
X86989910Y-62229058D01*
X87396644Y-62060583D01*
X87762695Y-61815996D01*
X88073996Y-61504695D01*
X88318583Y-61138644D01*
X88487058Y-60731910D01*
X88572946Y-60300123D01*
X88572946Y-59859877D01*
X88487058Y-59428090D01*
X88318583Y-59021356D01*
X88073996Y-58655305D01*
X87762695Y-58344004D01*
X87396644Y-58099417D01*
X86989910Y-57930942D01*
X86558123Y-57845054D01*
X86117877Y-57845054D01*
X85686090Y-57930942D01*
X85279356Y-58099417D01*
X84913305Y-58344004D01*
X84602004Y-58655305D01*
X84357417Y-59021356D01*
X84188942Y-59428090D01*
X84103054Y-59859877D01*
X72824946Y-59859877D01*
X72739058Y-59428090D01*
X72570583Y-59021356D01*
X72325996Y-58655305D01*
X72014695Y-58344004D01*
X71648644Y-58099417D01*
X71241910Y-57930942D01*
X70810123Y-57845054D01*
X70369877Y-57845054D01*
X69938090Y-57930942D01*
X69531356Y-58099417D01*
X69165305Y-58344004D01*
X68854004Y-58655305D01*
X68609417Y-59021356D01*
X68440942Y-59428090D01*
X68355054Y-59859877D01*
X65660000Y-59859877D01*
X65660000Y-55085000D01*
X88893928Y-55085000D01*
X88906188Y-55209482D01*
X88942498Y-55329180D01*
X89001463Y-55439494D01*
X89080815Y-55536185D01*
X89177506Y-55615537D01*
X89287820Y-55674502D01*
X89407518Y-55710812D01*
X89532000Y-55723072D01*
X89771250Y-55720000D01*
X89930000Y-55561250D01*
X89930000Y-54737000D01*
X89055750Y-54737000D01*
X88897000Y-54895750D01*
X88893928Y-55085000D01*
X65660000Y-55085000D01*
X65660000Y-54135000D01*
X88893928Y-54135000D01*
X88897000Y-54324250D01*
X89055750Y-54483000D01*
X89930000Y-54483000D01*
X89930000Y-53658750D01*
X89771250Y-53500000D01*
X89532000Y-53496928D01*
X89407518Y-53509188D01*
X89287820Y-53545498D01*
X89177506Y-53604463D01*
X89080815Y-53683815D01*
X89001463Y-53780506D01*
X88942498Y-53890820D01*
X88906188Y-54010518D01*
X88893928Y-54135000D01*
X65660000Y-54135000D01*
X65660000Y-51367374D01*
X67176231Y-51367374D01*
X67476411Y-51805828D01*
X68055356Y-52116296D01*
X68683746Y-52307852D01*
X69337431Y-52373134D01*
X69991293Y-52309634D01*
X70620203Y-52119792D01*
X71199992Y-51810904D01*
X71207589Y-51805828D01*
X71507769Y-51367374D01*
X69342000Y-49201605D01*
X67176231Y-51367374D01*
X65660000Y-51367374D01*
X65660000Y-49017431D01*
X65990866Y-49017431D01*
X66054366Y-49671293D01*
X66244208Y-50300203D01*
X66553096Y-50879992D01*
X66558172Y-50887589D01*
X66996626Y-51187769D01*
X69162395Y-49022000D01*
X69521605Y-49022000D01*
X71687374Y-51187769D01*
X72125828Y-50887589D01*
X72436296Y-50308644D01*
X72627852Y-49680254D01*
X72693134Y-49026569D01*
X72647783Y-48559580D01*
X85690000Y-48559580D01*
X85690000Y-48896420D01*
X85755714Y-49226789D01*
X85884618Y-49537989D01*
X86071756Y-49818061D01*
X86309939Y-50056244D01*
X86590011Y-50243382D01*
X86901211Y-50372286D01*
X87231580Y-50438000D01*
X87568420Y-50438000D01*
X87898789Y-50372286D01*
X88209989Y-50243382D01*
X88490061Y-50056244D01*
X88728244Y-49818061D01*
X88915382Y-49537989D01*
X89044286Y-49226789D01*
X89110000Y-48896420D01*
X89110000Y-48606363D01*
X90015000Y-48606363D01*
X90015000Y-48849637D01*
X90062460Y-49088236D01*
X90155557Y-49312992D01*
X90290713Y-49515267D01*
X90462733Y-49687287D01*
X90665008Y-49822443D01*
X90889764Y-49915540D01*
X91128363Y-49963000D01*
X91371637Y-49963000D01*
X91610236Y-49915540D01*
X91834992Y-49822443D01*
X92037267Y-49687287D01*
X92209287Y-49515267D01*
X92226097Y-49490110D01*
X92242000Y-49491676D01*
X92279322Y-49488000D01*
X92279333Y-49488000D01*
X92390986Y-49477003D01*
X92534247Y-49433546D01*
X92666276Y-49362974D01*
X92782001Y-49268001D01*
X92805804Y-49238997D01*
X94294802Y-47750000D01*
X94490739Y-47750000D01*
X94462733Y-47768713D01*
X94290713Y-47940733D01*
X94155557Y-48143008D01*
X94062460Y-48367764D01*
X94015000Y-48606363D01*
X94015000Y-48849637D01*
X94062460Y-49088236D01*
X94155557Y-49312992D01*
X94290713Y-49515267D01*
X94462733Y-49687287D01*
X94665008Y-49822443D01*
X94889764Y-49915540D01*
X95128363Y-49963000D01*
X95371637Y-49963000D01*
X95506000Y-49936274D01*
X95506000Y-50485198D01*
X92428075Y-53563124D01*
X92265316Y-53513752D01*
X92094500Y-53496928D01*
X91519500Y-53496928D01*
X91348684Y-53513752D01*
X91184433Y-53563577D01*
X91033058Y-53644488D01*
X91009161Y-53664099D01*
X90936494Y-53604463D01*
X90826180Y-53545498D01*
X90706482Y-53509188D01*
X90582000Y-53496928D01*
X90342750Y-53500000D01*
X90184000Y-53658750D01*
X90184000Y-54483000D01*
X90204000Y-54483000D01*
X90204000Y-54737000D01*
X90184000Y-54737000D01*
X90184000Y-55561250D01*
X90342750Y-55720000D01*
X90582000Y-55723072D01*
X90706482Y-55710812D01*
X90826180Y-55674502D01*
X90936494Y-55615537D01*
X91009161Y-55555901D01*
X91033058Y-55575512D01*
X91059032Y-55589395D01*
X91066214Y-55613072D01*
X91101454Y-55729246D01*
X91172026Y-55861276D01*
X91228428Y-55930001D01*
X91267000Y-55977001D01*
X91295998Y-56000799D01*
X99570000Y-64274802D01*
X99570001Y-66242658D01*
X99570000Y-66242668D01*
X99570000Y-67541406D01*
X99500987Y-67578294D01*
X99274867Y-67763866D01*
X99089295Y-67989986D01*
X99060000Y-68044792D01*
X99030706Y-67989986D01*
X98845134Y-67763866D01*
X98619014Y-67578294D01*
X98361034Y-67440401D01*
X98081111Y-67355487D01*
X97790000Y-67326815D01*
X97498890Y-67355487D01*
X97218967Y-67440401D01*
X96960987Y-67578294D01*
X96734867Y-67763866D01*
X96549295Y-67989986D01*
X96520000Y-68044792D01*
X96490706Y-67989986D01*
X96305134Y-67763866D01*
X96079014Y-67578294D01*
X95821034Y-67440401D01*
X95541111Y-67355487D01*
X95250000Y-67326815D01*
X94958890Y-67355487D01*
X94678967Y-67440401D01*
X94420987Y-67578294D01*
X94194867Y-67763866D01*
X94009295Y-67989986D01*
X93934663Y-68129611D01*
X93934010Y-68130589D01*
X93933560Y-68131675D01*
X93871401Y-68247966D01*
X93833121Y-68374157D01*
X93822068Y-68400842D01*
X93816433Y-68429170D01*
X93786487Y-68527889D01*
X93776376Y-68630551D01*
X93765000Y-68687740D01*
X93765000Y-70250260D01*
X93776376Y-70307450D01*
X93786487Y-70410110D01*
X93816433Y-70508827D01*
X93822068Y-70537158D01*
X93833122Y-70563846D01*
X93871401Y-70690033D01*
X93933560Y-70806324D01*
X93934010Y-70807411D01*
X93934664Y-70808389D01*
X94009294Y-70948013D01*
X94194866Y-71174134D01*
X94420986Y-71359706D01*
X94678966Y-71497599D01*
X94958889Y-71582513D01*
X95250000Y-71611185D01*
X95541110Y-71582513D01*
X95821033Y-71497599D01*
X96079013Y-71359706D01*
X96305134Y-71174134D01*
X96490706Y-70948014D01*
X96520000Y-70893208D01*
X96549294Y-70948013D01*
X96734866Y-71174134D01*
X96960986Y-71359706D01*
X97218966Y-71497599D01*
X97498889Y-71582513D01*
X97790000Y-71611185D01*
X98081110Y-71582513D01*
X98361033Y-71497599D01*
X98619013Y-71359706D01*
X98845134Y-71174134D01*
X99030706Y-70948014D01*
X99060000Y-70893208D01*
X99089294Y-70948013D01*
X99274866Y-71174134D01*
X99500986Y-71359706D01*
X99758966Y-71497599D01*
X100038889Y-71582513D01*
X100330000Y-71611185D01*
X100621110Y-71582513D01*
X100901033Y-71497599D01*
X101159013Y-71359706D01*
X101385134Y-71174134D01*
X101570706Y-70948014D01*
X101600000Y-70893208D01*
X101629294Y-70948013D01*
X101814866Y-71174134D01*
X102040986Y-71359706D01*
X102298966Y-71497599D01*
X102578889Y-71582513D01*
X102870000Y-71611185D01*
X103161110Y-71582513D01*
X103441033Y-71497599D01*
X103699013Y-71359706D01*
X103925134Y-71174134D01*
X104110706Y-70948014D01*
X104140000Y-70893208D01*
X104169294Y-70948013D01*
X104354866Y-71174134D01*
X104580986Y-71359706D01*
X104838966Y-71497599D01*
X105118889Y-71582513D01*
X105410000Y-71611185D01*
X105701110Y-71582513D01*
X105981033Y-71497599D01*
X106239013Y-71359706D01*
X106465134Y-71174134D01*
X106650706Y-70948014D01*
X106680000Y-70893208D01*
X106709294Y-70948013D01*
X106894866Y-71174134D01*
X107120986Y-71359706D01*
X107378966Y-71497599D01*
X107658889Y-71582513D01*
X107950000Y-71611185D01*
X108241110Y-71582513D01*
X108521033Y-71497599D01*
X108779013Y-71359706D01*
X109005134Y-71174134D01*
X109190706Y-70948014D01*
X109220000Y-70893208D01*
X109249294Y-70948013D01*
X109434866Y-71174134D01*
X109660986Y-71359706D01*
X109918966Y-71497599D01*
X110198889Y-71582513D01*
X110490000Y-71611185D01*
X110781110Y-71582513D01*
X111061033Y-71497599D01*
X111319013Y-71359706D01*
X111545134Y-71174134D01*
X111730706Y-70948014D01*
X111760000Y-70893208D01*
X111789294Y-70948013D01*
X111974866Y-71174134D01*
X112200986Y-71359706D01*
X112458966Y-71497599D01*
X112738889Y-71582513D01*
X113030000Y-71611185D01*
X113321110Y-71582513D01*
X113601033Y-71497599D01*
X113859013Y-71359706D01*
X114085134Y-71174134D01*
X114270706Y-70948014D01*
X114300000Y-70893208D01*
X114329294Y-70948013D01*
X114514866Y-71174134D01*
X114740986Y-71359706D01*
X114998966Y-71497599D01*
X115278889Y-71582513D01*
X115570000Y-71611185D01*
X115861110Y-71582513D01*
X116141033Y-71497599D01*
X116399013Y-71359706D01*
X116625134Y-71174134D01*
X116810706Y-70948014D01*
X116840000Y-70893208D01*
X116869294Y-70948013D01*
X117054866Y-71174134D01*
X117280986Y-71359706D01*
X117538966Y-71497599D01*
X117818889Y-71582513D01*
X118110000Y-71611185D01*
X118401110Y-71582513D01*
X118681033Y-71497599D01*
X118939013Y-71359706D01*
X119165134Y-71174134D01*
X119350706Y-70948014D01*
X119380000Y-70893208D01*
X119409294Y-70948013D01*
X119594866Y-71174134D01*
X119820986Y-71359706D01*
X120078966Y-71497599D01*
X120358889Y-71582513D01*
X120650000Y-71611185D01*
X120941110Y-71582513D01*
X121221033Y-71497599D01*
X121479013Y-71359706D01*
X121705134Y-71174134D01*
X121890706Y-70948014D01*
X121920000Y-70893208D01*
X121949294Y-70948013D01*
X122134866Y-71174134D01*
X122360986Y-71359706D01*
X122618966Y-71497599D01*
X122898889Y-71582513D01*
X123190000Y-71611185D01*
X123481110Y-71582513D01*
X123761033Y-71497599D01*
X124019013Y-71359706D01*
X124245134Y-71174134D01*
X124430706Y-70948014D01*
X124460000Y-70893208D01*
X124489294Y-70948013D01*
X124674866Y-71174134D01*
X124900986Y-71359706D01*
X125158966Y-71497599D01*
X125438889Y-71582513D01*
X125730000Y-71611185D01*
X126021110Y-71582513D01*
X126301033Y-71497599D01*
X126559013Y-71359706D01*
X126785134Y-71174134D01*
X126970706Y-70948014D01*
X127000000Y-70893208D01*
X127029294Y-70948013D01*
X127214866Y-71174134D01*
X127440986Y-71359706D01*
X127698966Y-71497599D01*
X127978889Y-71582513D01*
X128270000Y-71611185D01*
X128561110Y-71582513D01*
X128841033Y-71497599D01*
X129099013Y-71359706D01*
X129325134Y-71174134D01*
X129510706Y-70948014D01*
X129540000Y-70893208D01*
X129569294Y-70948013D01*
X129754866Y-71174134D01*
X129980986Y-71359706D01*
X130238966Y-71497599D01*
X130518889Y-71582513D01*
X130810000Y-71611185D01*
X131101110Y-71582513D01*
X131381033Y-71497599D01*
X131639013Y-71359706D01*
X131865134Y-71174134D01*
X132050706Y-70948014D01*
X132125339Y-70808385D01*
X132125990Y-70807411D01*
X132126438Y-70806328D01*
X132188599Y-70690034D01*
X132193462Y-70674000D01*
X141917928Y-70674000D01*
X141917928Y-72074000D01*
X141930188Y-72198482D01*
X141966498Y-72318180D01*
X142025463Y-72428494D01*
X142104815Y-72525185D01*
X142201506Y-72604537D01*
X142311820Y-72663502D01*
X142431518Y-72699812D01*
X142556000Y-72712072D01*
X143956000Y-72712072D01*
X144080482Y-72699812D01*
X144200180Y-72663502D01*
X144310494Y-72604537D01*
X144407185Y-72525185D01*
X144486537Y-72428494D01*
X144545502Y-72318180D01*
X144581812Y-72198482D01*
X144594072Y-72074000D01*
X144594072Y-70674000D01*
X144581812Y-70549518D01*
X144545502Y-70429820D01*
X144486537Y-70319506D01*
X144407185Y-70222815D01*
X144310494Y-70143463D01*
X144200180Y-70084498D01*
X144080482Y-70048188D01*
X143956000Y-70035928D01*
X143919987Y-70035928D01*
X144107013Y-69910962D01*
X144292962Y-69725013D01*
X144439061Y-69506359D01*
X144539696Y-69263405D01*
X144591000Y-69005486D01*
X144591000Y-68742514D01*
X144539696Y-68484595D01*
X144439061Y-68241641D01*
X144292962Y-68022987D01*
X144107013Y-67837038D01*
X143888359Y-67690939D01*
X143726754Y-67624000D01*
X143888359Y-67557061D01*
X144107013Y-67410962D01*
X144292962Y-67225013D01*
X144439061Y-67006359D01*
X144539696Y-66763405D01*
X144591000Y-66505486D01*
X144591000Y-66242514D01*
X144539696Y-65984595D01*
X144439061Y-65741641D01*
X144292962Y-65522987D01*
X144107013Y-65337038D01*
X143888359Y-65190939D01*
X143645405Y-65090304D01*
X143387486Y-65039000D01*
X143124514Y-65039000D01*
X142866595Y-65090304D01*
X142623641Y-65190939D01*
X142404987Y-65337038D01*
X142219038Y-65522987D01*
X142072939Y-65741641D01*
X141972304Y-65984595D01*
X141921000Y-66242514D01*
X141921000Y-66505486D01*
X141972304Y-66763405D01*
X142072939Y-67006359D01*
X142219038Y-67225013D01*
X142404987Y-67410962D01*
X142623641Y-67557061D01*
X142785246Y-67624000D01*
X142623641Y-67690939D01*
X142404987Y-67837038D01*
X142219038Y-68022987D01*
X142072939Y-68241641D01*
X141972304Y-68484595D01*
X141921000Y-68742514D01*
X141921000Y-69005486D01*
X141972304Y-69263405D01*
X142072939Y-69506359D01*
X142219038Y-69725013D01*
X142404987Y-69910962D01*
X142592013Y-70035928D01*
X142556000Y-70035928D01*
X142431518Y-70048188D01*
X142311820Y-70084498D01*
X142201506Y-70143463D01*
X142104815Y-70222815D01*
X142025463Y-70319506D01*
X141966498Y-70429820D01*
X141930188Y-70549518D01*
X141917928Y-70674000D01*
X132193462Y-70674000D01*
X132226879Y-70563843D01*
X132237932Y-70537158D01*
X132243567Y-70508830D01*
X132273513Y-70410111D01*
X132283624Y-70307449D01*
X132295000Y-70250260D01*
X132295000Y-68687740D01*
X132283624Y-68630551D01*
X132273513Y-68527889D01*
X132243567Y-68429170D01*
X132237932Y-68400842D01*
X132226879Y-68374157D01*
X132188599Y-68247966D01*
X132126438Y-68131672D01*
X132125990Y-68130589D01*
X132125339Y-68129615D01*
X132050706Y-67989986D01*
X131865134Y-67763866D01*
X131639014Y-67578294D01*
X131381034Y-67440401D01*
X131101111Y-67355487D01*
X130810000Y-67326815D01*
X130518890Y-67355487D01*
X130238967Y-67440401D01*
X129980987Y-67578294D01*
X129754867Y-67763866D01*
X129569295Y-67989986D01*
X129540000Y-68044792D01*
X129510706Y-67989986D01*
X129325134Y-67763866D01*
X129099014Y-67578294D01*
X128841034Y-67440401D01*
X128561111Y-67355487D01*
X128270000Y-67326815D01*
X127978890Y-67355487D01*
X127698967Y-67440401D01*
X127440987Y-67578294D01*
X127214867Y-67763866D01*
X127029295Y-67989986D01*
X127000000Y-68044792D01*
X126970706Y-67989986D01*
X126785134Y-67763866D01*
X126559014Y-67578294D01*
X126301034Y-67440401D01*
X126021111Y-67355487D01*
X125768222Y-67330580D01*
X134369003Y-58729799D01*
X134398001Y-58706001D01*
X134492974Y-58590276D01*
X134563546Y-58458247D01*
X134607003Y-58314986D01*
X134618000Y-58203333D01*
X134618000Y-58203324D01*
X134621676Y-58166001D01*
X134618000Y-58128678D01*
X134618000Y-53100072D01*
X134758000Y-53100072D01*
X134882482Y-53087812D01*
X135002180Y-53051502D01*
X135112494Y-52992537D01*
X135209185Y-52913185D01*
X135288537Y-52816494D01*
X135347502Y-52706180D01*
X135383812Y-52586482D01*
X135396072Y-52462000D01*
X135396072Y-51345374D01*
X141334231Y-51345374D01*
X141634411Y-51783828D01*
X142213356Y-52094296D01*
X142841746Y-52285852D01*
X143495431Y-52351134D01*
X144149293Y-52287634D01*
X144778203Y-52097792D01*
X145357992Y-51788904D01*
X145365589Y-51783828D01*
X145665769Y-51345374D01*
X143500000Y-49179605D01*
X141334231Y-51345374D01*
X135396072Y-51345374D01*
X135396072Y-50662000D01*
X135383812Y-50537518D01*
X135347502Y-50417820D01*
X135288537Y-50307506D01*
X135209185Y-50210815D01*
X135112494Y-50131463D01*
X135002180Y-50072498D01*
X134882482Y-50036188D01*
X134758000Y-50023928D01*
X132958000Y-50023928D01*
X132833518Y-50036188D01*
X132713820Y-50072498D01*
X132603506Y-50131463D01*
X132506815Y-50210815D01*
X132427463Y-50307506D01*
X132368498Y-50417820D01*
X132362944Y-50436127D01*
X132296505Y-50369688D01*
X132045095Y-50201701D01*
X131765743Y-50085989D01*
X131469184Y-50027000D01*
X131166816Y-50027000D01*
X130870257Y-50085989D01*
X130590905Y-50201701D01*
X130339495Y-50369688D01*
X130125688Y-50583495D01*
X129979687Y-50802000D01*
X127284192Y-50802000D01*
X127284423Y-50801567D01*
X127334248Y-50637316D01*
X127351072Y-50466500D01*
X127351072Y-49891500D01*
X127334248Y-49720684D01*
X127284423Y-49556433D01*
X127203512Y-49405058D01*
X127094623Y-49272377D01*
X126961942Y-49163488D01*
X126810567Y-49082577D01*
X126646316Y-49032752D01*
X126475500Y-49015928D01*
X126000500Y-49015928D01*
X125829684Y-49032752D01*
X125665433Y-49082577D01*
X125514058Y-49163488D01*
X125381377Y-49272377D01*
X125272488Y-49405058D01*
X125211602Y-49518969D01*
X125164724Y-49544026D01*
X125048999Y-49638999D01*
X125025201Y-49667997D01*
X123441003Y-51252196D01*
X123411999Y-51275999D01*
X123371582Y-51325248D01*
X123317026Y-51391724D01*
X123246455Y-51523753D01*
X123246454Y-51523754D01*
X123202997Y-51667015D01*
X123192000Y-51778668D01*
X123192000Y-51778678D01*
X123188324Y-51816000D01*
X123192000Y-51853322D01*
X123192000Y-53335831D01*
X123134168Y-53045088D01*
X123010918Y-52747537D01*
X122831987Y-52479748D01*
X122604252Y-52252013D01*
X122336463Y-52073082D01*
X122038912Y-51949832D01*
X121723033Y-51887000D01*
X121400967Y-51887000D01*
X121085088Y-51949832D01*
X120787537Y-52073082D01*
X120519748Y-52252013D01*
X120292013Y-52479748D01*
X120113082Y-52747537D01*
X119989832Y-53045088D01*
X119927000Y-53360967D01*
X119927000Y-53683033D01*
X119989832Y-53998912D01*
X120113082Y-54296463D01*
X120292013Y-54564252D01*
X120519748Y-54791987D01*
X120787537Y-54970918D01*
X121085088Y-55094168D01*
X121400967Y-55157000D01*
X121723033Y-55157000D01*
X122038912Y-55094168D01*
X122336463Y-54970918D01*
X122604252Y-54791987D01*
X122831987Y-54564252D01*
X123010918Y-54296463D01*
X123134168Y-53998912D01*
X123192000Y-53708169D01*
X123192001Y-65217197D01*
X121027504Y-67381694D01*
X120941111Y-67355487D01*
X120650000Y-67326815D01*
X120358890Y-67355487D01*
X120078967Y-67440401D01*
X119820987Y-67578294D01*
X119594867Y-67763866D01*
X119409295Y-67989986D01*
X119380000Y-68044792D01*
X119350706Y-67989986D01*
X119165134Y-67763866D01*
X118939014Y-67578294D01*
X118681034Y-67440401D01*
X118401111Y-67355487D01*
X118110000Y-67326815D01*
X117818890Y-67355487D01*
X117732496Y-67381694D01*
X110742000Y-60391199D01*
X110742000Y-53360967D01*
X113427000Y-53360967D01*
X113427000Y-53683033D01*
X113489832Y-53998912D01*
X113613082Y-54296463D01*
X113792013Y-54564252D01*
X114019748Y-54791987D01*
X114287537Y-54970918D01*
X114585088Y-55094168D01*
X114900967Y-55157000D01*
X115223033Y-55157000D01*
X115538912Y-55094168D01*
X115836463Y-54970918D01*
X116104252Y-54791987D01*
X116331987Y-54564252D01*
X116510918Y-54296463D01*
X116634168Y-53998912D01*
X116697000Y-53683033D01*
X116697000Y-53360967D01*
X116634168Y-53045088D01*
X116510918Y-52747537D01*
X116331987Y-52479748D01*
X116104252Y-52252013D01*
X115836463Y-52073082D01*
X115538912Y-51949832D01*
X115223033Y-51887000D01*
X114900967Y-51887000D01*
X114585088Y-51949832D01*
X114287537Y-52073082D01*
X114019748Y-52252013D01*
X113792013Y-52479748D01*
X113613082Y-52747537D01*
X113489832Y-53045088D01*
X113427000Y-53360967D01*
X110742000Y-53360967D01*
X110742000Y-52914920D01*
X110838623Y-52835623D01*
X110947512Y-52702942D01*
X111028423Y-52551567D01*
X111078248Y-52387316D01*
X111095072Y-52216500D01*
X111095072Y-51890729D01*
X113203802Y-49782000D01*
X113607091Y-49782000D01*
X113613082Y-49796463D01*
X113792013Y-50064252D01*
X114019748Y-50291987D01*
X114287537Y-50470918D01*
X114585088Y-50594168D01*
X114900967Y-50657000D01*
X115223033Y-50657000D01*
X115538912Y-50594168D01*
X115836463Y-50470918D01*
X116104252Y-50291987D01*
X116331987Y-50064252D01*
X116510918Y-49796463D01*
X116516909Y-49782000D01*
X120107091Y-49782000D01*
X120113082Y-49796463D01*
X120292013Y-50064252D01*
X120519748Y-50291987D01*
X120787537Y-50470918D01*
X121085088Y-50594168D01*
X121400967Y-50657000D01*
X121723033Y-50657000D01*
X122038912Y-50594168D01*
X122336463Y-50470918D01*
X122604252Y-50291987D01*
X122831987Y-50064252D01*
X123010918Y-49796463D01*
X123134168Y-49498912D01*
X123197000Y-49183033D01*
X123197000Y-48995431D01*
X140148866Y-48995431D01*
X140212366Y-49649293D01*
X140402208Y-50278203D01*
X140711096Y-50857992D01*
X140716172Y-50865589D01*
X141154626Y-51165769D01*
X143320395Y-49000000D01*
X141154626Y-46834231D01*
X140716172Y-47134411D01*
X140405704Y-47713356D01*
X140214148Y-48341746D01*
X140148866Y-48995431D01*
X123197000Y-48995431D01*
X123197000Y-48860967D01*
X123134168Y-48545088D01*
X123010918Y-48247537D01*
X122831987Y-47979748D01*
X122604252Y-47752013D01*
X122336463Y-47573082D01*
X122038912Y-47449832D01*
X121723033Y-47387000D01*
X121400967Y-47387000D01*
X121085088Y-47449832D01*
X120787537Y-47573082D01*
X120519748Y-47752013D01*
X120292013Y-47979748D01*
X120113082Y-48247537D01*
X120107091Y-48262000D01*
X116516909Y-48262000D01*
X116510918Y-48247537D01*
X116331987Y-47979748D01*
X116104252Y-47752013D01*
X115836463Y-47573082D01*
X115538912Y-47449832D01*
X115223033Y-47387000D01*
X114900967Y-47387000D01*
X114585088Y-47449832D01*
X114287537Y-47573082D01*
X114019748Y-47752013D01*
X113792013Y-47979748D01*
X113613082Y-48247537D01*
X113607091Y-48262000D01*
X112926323Y-48262000D01*
X112889000Y-48258324D01*
X112851677Y-48262000D01*
X112851667Y-48262000D01*
X112740014Y-48272997D01*
X112596753Y-48316454D01*
X112464724Y-48387026D01*
X112348999Y-48481999D01*
X112325201Y-48510997D01*
X111093939Y-49742260D01*
X111095072Y-49654000D01*
X111082812Y-49529518D01*
X111046502Y-49409820D01*
X110987537Y-49299506D01*
X110908185Y-49202815D01*
X110811494Y-49123463D01*
X110701180Y-49064498D01*
X110581482Y-49028188D01*
X110457000Y-49015928D01*
X110267750Y-49019000D01*
X110109000Y-49177750D01*
X110109000Y-50052000D01*
X110129000Y-50052000D01*
X110129000Y-50306000D01*
X110109000Y-50306000D01*
X110109000Y-50326000D01*
X109855000Y-50326000D01*
X109855000Y-50306000D01*
X109030750Y-50306000D01*
X108872000Y-50464750D01*
X108868928Y-50704000D01*
X108881188Y-50828482D01*
X108917498Y-50948180D01*
X108976463Y-51058494D01*
X109036099Y-51131161D01*
X109016488Y-51155058D01*
X108935577Y-51306433D01*
X108885752Y-51470684D01*
X108868928Y-51641500D01*
X108868928Y-52216500D01*
X108885752Y-52387316D01*
X108935577Y-52551567D01*
X109016488Y-52702942D01*
X109125377Y-52835623D01*
X109222000Y-52914920D01*
X109222001Y-60668668D01*
X109218324Y-60706000D01*
X109232998Y-60854985D01*
X109276454Y-60998246D01*
X109347026Y-61130276D01*
X109353894Y-61138644D01*
X109442000Y-61246001D01*
X109470998Y-61269799D01*
X115531778Y-67330580D01*
X115278890Y-67355487D01*
X114998967Y-67440401D01*
X114740987Y-67578294D01*
X114514867Y-67763866D01*
X114329295Y-67989986D01*
X114300000Y-68044792D01*
X114270706Y-67989986D01*
X114085134Y-67763866D01*
X113859014Y-67578294D01*
X113601034Y-67440401D01*
X113321111Y-67355487D01*
X113030000Y-67326815D01*
X112738890Y-67355487D01*
X112458967Y-67440401D01*
X112200987Y-67578294D01*
X111974867Y-67763866D01*
X111789295Y-67989986D01*
X111760000Y-68044792D01*
X111730706Y-67989986D01*
X111545134Y-67763866D01*
X111319014Y-67578294D01*
X111061034Y-67440401D01*
X110781111Y-67355487D01*
X110490000Y-67326815D01*
X110198890Y-67355487D01*
X109918967Y-67440401D01*
X109660987Y-67578294D01*
X109434867Y-67763866D01*
X109249295Y-67989986D01*
X109220000Y-68044792D01*
X109190706Y-67989986D01*
X109005134Y-67763866D01*
X108779014Y-67578294D01*
X108521034Y-67440401D01*
X108241111Y-67355487D01*
X107950000Y-67326815D01*
X107658890Y-67355487D01*
X107378967Y-67440401D01*
X107120987Y-67578294D01*
X106894867Y-67763866D01*
X106709295Y-67989986D01*
X106680000Y-68044792D01*
X106650706Y-67989986D01*
X106465134Y-67763866D01*
X106239014Y-67578294D01*
X106170000Y-67541405D01*
X106170000Y-55427333D01*
X106173677Y-55390000D01*
X106159003Y-55241014D01*
X106115546Y-55097753D01*
X106044974Y-54965724D01*
X105973799Y-54878997D01*
X105950001Y-54849999D01*
X105921004Y-54826202D01*
X105670072Y-54575270D01*
X105670072Y-54372500D01*
X105653248Y-54201684D01*
X105603423Y-54037433D01*
X105522512Y-53886058D01*
X105413623Y-53753377D01*
X105280942Y-53644488D01*
X105129567Y-53563577D01*
X104965316Y-53513752D01*
X104794500Y-53496928D01*
X104468730Y-53496928D01*
X102106000Y-51134199D01*
X102106000Y-50120431D01*
X102290010Y-50243382D01*
X102601210Y-50372286D01*
X102931579Y-50438000D01*
X103268419Y-50438000D01*
X103598788Y-50372286D01*
X103909988Y-50243382D01*
X104190060Y-50056244D01*
X104428243Y-49818061D01*
X104537864Y-49654000D01*
X108868928Y-49654000D01*
X108872000Y-49893250D01*
X109030750Y-50052000D01*
X109855000Y-50052000D01*
X109855000Y-49177750D01*
X109696250Y-49019000D01*
X109507000Y-49015928D01*
X109382518Y-49028188D01*
X109262820Y-49064498D01*
X109152506Y-49123463D01*
X109055815Y-49202815D01*
X108976463Y-49299506D01*
X108917498Y-49409820D01*
X108881188Y-49529518D01*
X108868928Y-49654000D01*
X104537864Y-49654000D01*
X104615381Y-49537989D01*
X104744285Y-49226789D01*
X104809999Y-48896420D01*
X104809999Y-48559580D01*
X104744285Y-48229211D01*
X104615381Y-47918011D01*
X104428243Y-47637939D01*
X104190060Y-47399756D01*
X103909988Y-47212618D01*
X103598788Y-47083714D01*
X103268419Y-47018000D01*
X102931579Y-47018000D01*
X102601210Y-47083714D01*
X102290010Y-47212618D01*
X102009938Y-47399756D01*
X101771755Y-47637939D01*
X101584617Y-47918011D01*
X101501200Y-48119396D01*
X99860806Y-46479003D01*
X99837003Y-46449999D01*
X99721278Y-46355026D01*
X99589249Y-46284454D01*
X99445988Y-46240997D01*
X99334335Y-46230000D01*
X99334324Y-46230000D01*
X99297002Y-46226324D01*
X99259680Y-46230000D01*
X94017322Y-46230000D01*
X93979999Y-46226324D01*
X93942676Y-46230000D01*
X93942667Y-46230000D01*
X93831014Y-46240997D01*
X93687753Y-46284454D01*
X93555724Y-46355026D01*
X93439999Y-46449999D01*
X93416201Y-46478997D01*
X92081876Y-47813322D01*
X92037267Y-47768713D01*
X91834992Y-47633557D01*
X91610236Y-47540460D01*
X91371637Y-47493000D01*
X91128363Y-47493000D01*
X90889764Y-47540460D01*
X90665008Y-47633557D01*
X90462733Y-47768713D01*
X90290713Y-47940733D01*
X90155557Y-48143008D01*
X90062460Y-48367764D01*
X90015000Y-48606363D01*
X89110000Y-48606363D01*
X89110000Y-48559580D01*
X89044286Y-48229211D01*
X88915382Y-47918011D01*
X88728244Y-47637939D01*
X88490061Y-47399756D01*
X88209989Y-47212618D01*
X87898789Y-47083714D01*
X87568420Y-47018000D01*
X87231580Y-47018000D01*
X86901211Y-47083714D01*
X86590011Y-47212618D01*
X86309939Y-47399756D01*
X86071756Y-47637939D01*
X85884618Y-47918011D01*
X85755714Y-48229211D01*
X85690000Y-48559580D01*
X72647783Y-48559580D01*
X72629634Y-48372707D01*
X72439792Y-47743797D01*
X72130904Y-47164008D01*
X72125828Y-47156411D01*
X71687374Y-46856231D01*
X69521605Y-49022000D01*
X69162395Y-49022000D01*
X66996626Y-46856231D01*
X66558172Y-47156411D01*
X66247704Y-47735356D01*
X66056148Y-48363746D01*
X65990866Y-49017431D01*
X65660000Y-49017431D01*
X65660000Y-46676626D01*
X67176231Y-46676626D01*
X69342000Y-48842395D01*
X71507769Y-46676626D01*
X71207589Y-46238172D01*
X70628644Y-45927704D01*
X70000254Y-45736148D01*
X69346569Y-45670866D01*
X68692707Y-45734366D01*
X68063797Y-45924208D01*
X67484008Y-46233096D01*
X67476411Y-46238172D01*
X67176231Y-46676626D01*
X65660000Y-46676626D01*
X65660000Y-45660000D01*
X143389922Y-45660000D01*
X142850707Y-45712366D01*
G37*
X142850707Y-45712366D02*
X142221797Y-45902208D01*
X141642008Y-46211096D01*
X141634411Y-46216172D01*
X141334231Y-46654626D01*
X143500000Y-48820395D01*
X145665769Y-46654626D01*
X145365589Y-46216172D01*
X144786644Y-45905704D01*
X144158254Y-45714148D01*
X143616057Y-45660000D01*
X146840000Y-45660000D01*
X146840000Y-48889923D01*
X146787634Y-48350707D01*
X146597792Y-47721797D01*
X146288904Y-47142008D01*
X146283828Y-47134411D01*
X145845374Y-46834231D01*
X143679605Y-49000000D01*
X145845374Y-51165769D01*
X146283828Y-50865589D01*
X146594296Y-50286644D01*
X146785852Y-49658254D01*
X146840000Y-49116056D01*
X146840000Y-65069337D01*
X146687486Y-65039000D01*
X146424514Y-65039000D01*
X146166595Y-65090304D01*
X145923641Y-65190939D01*
X145704987Y-65337038D01*
X145519038Y-65522987D01*
X145372939Y-65741641D01*
X145272304Y-65984595D01*
X145221000Y-66242514D01*
X145221000Y-66505486D01*
X145272304Y-66763405D01*
X145372939Y-67006359D01*
X145519038Y-67225013D01*
X145704987Y-67410962D01*
X145923641Y-67557061D01*
X146085246Y-67624000D01*
X145923641Y-67690939D01*
X145704987Y-67837038D01*
X145519038Y-68022987D01*
X145372939Y-68241641D01*
X145272304Y-68484595D01*
X145221000Y-68742514D01*
X145221000Y-69005486D01*
X145272304Y-69263405D01*
X145372939Y-69506359D01*
X145519038Y-69725013D01*
X145704987Y-69910962D01*
X145923641Y-70057061D01*
X146085246Y-70124000D01*
X145923641Y-70190939D01*
X145704987Y-70337038D01*
X145519038Y-70522987D01*
X145372939Y-70741641D01*
X145272304Y-70984595D01*
X145221000Y-71242514D01*
X145221000Y-71505486D01*
X145272304Y-71763405D01*
X145372939Y-72006359D01*
X145519038Y-72225013D01*
X145704987Y-72410962D01*
X145923641Y-72557061D01*
X146166595Y-72657696D01*
X146424514Y-72709000D01*
X146687486Y-72709000D01*
X146840001Y-72678663D01*
X146840001Y-88432961D01*
X146797634Y-87996707D01*
X146607792Y-87367797D01*
X146298904Y-86788008D01*
X146293828Y-86780411D01*
X145855374Y-86480231D01*
X143689605Y-88646000D01*
X145855374Y-90811769D01*
X146293828Y-90511589D01*
X146604296Y-89932644D01*
X146795852Y-89304254D01*
X146840001Y-88862180D01*
X146840001Y-91840000D01*
X144469484Y-91840000D01*
X144788203Y-91743792D01*
X145367992Y-91434904D01*
X145375589Y-91429828D01*
X145675769Y-90991374D01*
X143510000Y-88825605D01*
X141344231Y-90991374D01*
X141644411Y-91429828D01*
X142223356Y-91740296D01*
X142550430Y-91840000D01*
X65660000Y-91840000D01*
X65660000Y-90483374D01*
X67176231Y-90483374D01*
X67476411Y-90921828D01*
X68055356Y-91232296D01*
X68683746Y-91423852D01*
X69337431Y-91489134D01*
X69991293Y-91425634D01*
X70620203Y-91235792D01*
X71199992Y-90926904D01*
X71207589Y-90921828D01*
X71507769Y-90483374D01*
X69342000Y-88317605D01*
X67176231Y-90483374D01*
X65660000Y-90483374D01*
X65660000Y-88133431D01*
X65990866Y-88133431D01*
X66054366Y-88787293D01*
X66244208Y-89416203D01*
X66553096Y-89995992D01*
X66558172Y-90003589D01*
X66996626Y-90303769D01*
X69162395Y-88138000D01*
X69521605Y-88138000D01*
X71687374Y-90303769D01*
X72125828Y-90003589D01*
X72436296Y-89424644D01*
X72627852Y-88796254D01*
X72643313Y-88641431D01*
X140158866Y-88641431D01*
X140222366Y-89295293D01*
X140412208Y-89924203D01*
X140721096Y-90503992D01*
X140726172Y-90511589D01*
X141164626Y-90811769D01*
X143330395Y-88646000D01*
X141164626Y-86480231D01*
X140726172Y-86780411D01*
X140415704Y-87359356D01*
X140224148Y-87987746D01*
X140158866Y-88641431D01*
X72643313Y-88641431D01*
X72693134Y-88142569D01*
X72629634Y-87488707D01*
X72439792Y-86859797D01*
X72130904Y-86280008D01*
X72125828Y-86272411D01*
X71687374Y-85972231D01*
X69521605Y-88138000D01*
X69162395Y-88138000D01*
X66996626Y-85972231D01*
X66558172Y-86272411D01*
X66247704Y-86851356D01*
X66056148Y-87479746D01*
X65990866Y-88133431D01*
X65660000Y-88133431D01*
X65660000Y-85792626D01*
X67176231Y-85792626D01*
X69342000Y-87958395D01*
X71507769Y-85792626D01*
X71207589Y-85354172D01*
X70915883Y-85197740D01*
X93765000Y-85197740D01*
X93765000Y-86760260D01*
X93776376Y-86817449D01*
X93786487Y-86920111D01*
X93816433Y-87018830D01*
X93822068Y-87047158D01*
X93833121Y-87073843D01*
X93871401Y-87200034D01*
X93933560Y-87316325D01*
X93934010Y-87317411D01*
X93934663Y-87318389D01*
X94009295Y-87458014D01*
X94194867Y-87684134D01*
X94420987Y-87869706D01*
X94678967Y-88007599D01*
X94958890Y-88092513D01*
X95250000Y-88121185D01*
X95541111Y-88092513D01*
X95821034Y-88007599D01*
X96079014Y-87869706D01*
X96305134Y-87684134D01*
X96490706Y-87458014D01*
X96520000Y-87403208D01*
X96549295Y-87458014D01*
X96734867Y-87684134D01*
X96960987Y-87869706D01*
X97218967Y-88007599D01*
X97498890Y-88092513D01*
X97790000Y-88121185D01*
X98081111Y-88092513D01*
X98361034Y-88007599D01*
X98619014Y-87869706D01*
X98845134Y-87684134D01*
X99030706Y-87458014D01*
X99060000Y-87403208D01*
X99089295Y-87458014D01*
X99274867Y-87684134D01*
X99500987Y-87869706D01*
X99758967Y-88007599D01*
X100038890Y-88092513D01*
X100330000Y-88121185D01*
X100621111Y-88092513D01*
X100901034Y-88007599D01*
X101159014Y-87869706D01*
X101385134Y-87684134D01*
X101570706Y-87458014D01*
X101600000Y-87403208D01*
X101629295Y-87458014D01*
X101814867Y-87684134D01*
X102040987Y-87869706D01*
X102298967Y-88007599D01*
X102578890Y-88092513D01*
X102870000Y-88121185D01*
X103161111Y-88092513D01*
X103441034Y-88007599D01*
X103699014Y-87869706D01*
X103925134Y-87684134D01*
X104110706Y-87458014D01*
X104140000Y-87403208D01*
X104169295Y-87458014D01*
X104354867Y-87684134D01*
X104580987Y-87869706D01*
X104838967Y-88007599D01*
X105118890Y-88092513D01*
X105410000Y-88121185D01*
X105701111Y-88092513D01*
X105981034Y-88007599D01*
X106239014Y-87869706D01*
X106465134Y-87684134D01*
X106650706Y-87458014D01*
X106680000Y-87403208D01*
X106709295Y-87458014D01*
X106894867Y-87684134D01*
X107120987Y-87869706D01*
X107378967Y-88007599D01*
X107658890Y-88092513D01*
X107950000Y-88121185D01*
X108241111Y-88092513D01*
X108521034Y-88007599D01*
X108779014Y-87869706D01*
X109005134Y-87684134D01*
X109190706Y-87458014D01*
X109220000Y-87403208D01*
X109249295Y-87458014D01*
X109434867Y-87684134D01*
X109660987Y-87869706D01*
X109918967Y-88007599D01*
X110198890Y-88092513D01*
X110490000Y-88121185D01*
X110781111Y-88092513D01*
X111061034Y-88007599D01*
X111319014Y-87869706D01*
X111545134Y-87684134D01*
X111730706Y-87458014D01*
X111760000Y-87403208D01*
X111789295Y-87458014D01*
X111974867Y-87684134D01*
X112200987Y-87869706D01*
X112458967Y-88007599D01*
X112738890Y-88092513D01*
X113030000Y-88121185D01*
X113321111Y-88092513D01*
X113601034Y-88007599D01*
X113859014Y-87869706D01*
X114085134Y-87684134D01*
X114270706Y-87458014D01*
X114300000Y-87403208D01*
X114329295Y-87458014D01*
X114514867Y-87684134D01*
X114740987Y-87869706D01*
X114998967Y-88007599D01*
X115278890Y-88092513D01*
X115570000Y-88121185D01*
X115861111Y-88092513D01*
X116141034Y-88007599D01*
X116399014Y-87869706D01*
X116625134Y-87684134D01*
X116810706Y-87458014D01*
X116840000Y-87403208D01*
X116869295Y-87458014D01*
X117054867Y-87684134D01*
X117280987Y-87869706D01*
X117538967Y-88007599D01*
X117818890Y-88092513D01*
X118110000Y-88121185D01*
X118401111Y-88092513D01*
X118681034Y-88007599D01*
X118939014Y-87869706D01*
X119165134Y-87684134D01*
X119350706Y-87458014D01*
X119380000Y-87403208D01*
X119409295Y-87458014D01*
X119594867Y-87684134D01*
X119820987Y-87869706D01*
X120078967Y-88007599D01*
X120358890Y-88092513D01*
X120650000Y-88121185D01*
X120941111Y-88092513D01*
X121221034Y-88007599D01*
X121479014Y-87869706D01*
X121705134Y-87684134D01*
X121890706Y-87458014D01*
X121920000Y-87403208D01*
X121949295Y-87458014D01*
X122134867Y-87684134D01*
X122360987Y-87869706D01*
X122618967Y-88007599D01*
X122898890Y-88092513D01*
X123190000Y-88121185D01*
X123481111Y-88092513D01*
X123761034Y-88007599D01*
X124019014Y-87869706D01*
X124245134Y-87684134D01*
X124430706Y-87458014D01*
X124460000Y-87403208D01*
X124489295Y-87458014D01*
X124674867Y-87684134D01*
X124900987Y-87869706D01*
X125158967Y-88007599D01*
X125438890Y-88092513D01*
X125730000Y-88121185D01*
X126021111Y-88092513D01*
X126301034Y-88007599D01*
X126559014Y-87869706D01*
X126785134Y-87684134D01*
X126970706Y-87458014D01*
X127001895Y-87399663D01*
X127105824Y-87559619D01*
X127309748Y-87768857D01*
X127550574Y-87934291D01*
X127819047Y-88049563D01*
X127913110Y-88070476D01*
X127932267Y-88060366D01*
X128046411Y-88089339D01*
X128338531Y-88104611D01*
X128615427Y-88064426D01*
X128626890Y-88070476D01*
X128720953Y-88049563D01*
X128989426Y-87934291D01*
X129230252Y-87768857D01*
X129434176Y-87559619D01*
X129538105Y-87399662D01*
X129569295Y-87458014D01*
X129754867Y-87684134D01*
X129980987Y-87869706D01*
X130238967Y-88007599D01*
X130518890Y-88092513D01*
X130810000Y-88121185D01*
X131101111Y-88092513D01*
X131381034Y-88007599D01*
X131639014Y-87869706D01*
X131865134Y-87684134D01*
X132050706Y-87458014D01*
X132125339Y-87318385D01*
X132125990Y-87317411D01*
X132126438Y-87316328D01*
X132188599Y-87200034D01*
X132226879Y-87073843D01*
X132237932Y-87047158D01*
X132243567Y-87018830D01*
X132273513Y-86920111D01*
X132283624Y-86817449D01*
X132295000Y-86760260D01*
X132295000Y-86300626D01*
X141344231Y-86300626D01*
X143510000Y-88466395D01*
X145675769Y-86300626D01*
X145375589Y-85862172D01*
X144796644Y-85551704D01*
X144168254Y-85360148D01*
X143514569Y-85294866D01*
X142860707Y-85358366D01*
X142231797Y-85548208D01*
X141652008Y-85857096D01*
X141644411Y-85862172D01*
X141344231Y-86300626D01*
X132295000Y-86300626D01*
X132295000Y-85197740D01*
X132283624Y-85140551D01*
X132273513Y-85037889D01*
X132243567Y-84939170D01*
X132237932Y-84910842D01*
X132226879Y-84884157D01*
X132188599Y-84757966D01*
X132126438Y-84641672D01*
X132125990Y-84640589D01*
X132125339Y-84639615D01*
X132050706Y-84499986D01*
X131865134Y-84273866D01*
X131639013Y-84088294D01*
X131381033Y-83950401D01*
X131101110Y-83865487D01*
X130810000Y-83836815D01*
X130518889Y-83865487D01*
X130238966Y-83950401D01*
X129980986Y-84088294D01*
X129754866Y-84273866D01*
X129569294Y-84499987D01*
X129538105Y-84558338D01*
X129434176Y-84398381D01*
X129230252Y-84189143D01*
X128989426Y-84023709D01*
X128720953Y-83908437D01*
X128626890Y-83887524D01*
X128397000Y-84008845D01*
X128397000Y-85133611D01*
X128201469Y-85123389D01*
X128143000Y-85131874D01*
X128143000Y-84008845D01*
X127913110Y-83887524D01*
X127819047Y-83908437D01*
X127550574Y-84023709D01*
X127309748Y-84189143D01*
X127105824Y-84398381D01*
X127001895Y-84558337D01*
X126970706Y-84499986D01*
X126785134Y-84273866D01*
X126559013Y-84088294D01*
X126301033Y-83950401D01*
X126021110Y-83865487D01*
X125730000Y-83836815D01*
X125438889Y-83865487D01*
X125158966Y-83950401D01*
X124900986Y-84088294D01*
X124674866Y-84273866D01*
X124489294Y-84499987D01*
X124460000Y-84554792D01*
X124430706Y-84499986D01*
X124245134Y-84273866D01*
X124019013Y-84088294D01*
X123761033Y-83950401D01*
X123481110Y-83865487D01*
X123190000Y-83836815D01*
X122898889Y-83865487D01*
X122618966Y-83950401D01*
X122360986Y-84088294D01*
X122134866Y-84273866D01*
X121949294Y-84499987D01*
X121920000Y-84554792D01*
X121890706Y-84499986D01*
X121705134Y-84273866D01*
X121479013Y-84088294D01*
X121221033Y-83950401D01*
X120941110Y-83865487D01*
X120650000Y-83836815D01*
X120358889Y-83865487D01*
X120078966Y-83950401D01*
X119820986Y-84088294D01*
X119594866Y-84273866D01*
X119409294Y-84499987D01*
X119380000Y-84554792D01*
X119350706Y-84499986D01*
X119165134Y-84273866D01*
X118939013Y-84088294D01*
X118681033Y-83950401D01*
X118401110Y-83865487D01*
X118110000Y-83836815D01*
X117818889Y-83865487D01*
X117538966Y-83950401D01*
X117280986Y-84088294D01*
X117054866Y-84273866D01*
X116869294Y-84499987D01*
X116840000Y-84554792D01*
X116810706Y-84499986D01*
X116625134Y-84273866D01*
X116399013Y-84088294D01*
X116141033Y-83950401D01*
X115861110Y-83865487D01*
X115570000Y-83836815D01*
X115278889Y-83865487D01*
X114998966Y-83950401D01*
X114740986Y-84088294D01*
X114514866Y-84273866D01*
X114329294Y-84499987D01*
X114300000Y-84554792D01*
X114270706Y-84499986D01*
X114085134Y-84273866D01*
X113859013Y-84088294D01*
X113601033Y-83950401D01*
X113321110Y-83865487D01*
X113030000Y-83836815D01*
X112738889Y-83865487D01*
X112458966Y-83950401D01*
X112200986Y-84088294D01*
X111974866Y-84273866D01*
X111789294Y-84499987D01*
X111760000Y-84554792D01*
X111730706Y-84499986D01*
X111545134Y-84273866D01*
X111319013Y-84088294D01*
X111061033Y-83950401D01*
X110781110Y-83865487D01*
X110490000Y-83836815D01*
X110198889Y-83865487D01*
X109918966Y-83950401D01*
X109660986Y-84088294D01*
X109434866Y-84273866D01*
X109249294Y-84499987D01*
X109220000Y-84554792D01*
X109190706Y-84499986D01*
X109005134Y-84273866D01*
X108779013Y-84088294D01*
X108521033Y-83950401D01*
X108241110Y-83865487D01*
X107950000Y-83836815D01*
X107658889Y-83865487D01*
X107378966Y-83950401D01*
X107120986Y-84088294D01*
X106894866Y-84273866D01*
X106709294Y-84499987D01*
X106680000Y-84554792D01*
X106650706Y-84499986D01*
X106465134Y-84273866D01*
X106239013Y-84088294D01*
X105981033Y-83950401D01*
X105701110Y-83865487D01*
X105410000Y-83836815D01*
X105118889Y-83865487D01*
X104838966Y-83950401D01*
X104580986Y-84088294D01*
X104354866Y-84273866D01*
X104169294Y-84499987D01*
X104140000Y-84554792D01*
X104110706Y-84499986D01*
X103925134Y-84273866D01*
X103699013Y-84088294D01*
X103441033Y-83950401D01*
X103161110Y-83865487D01*
X102870000Y-83836815D01*
X102578889Y-83865487D01*
X102298966Y-83950401D01*
X102040986Y-84088294D01*
X101814866Y-84273866D01*
X101629294Y-84499987D01*
X101600000Y-84554792D01*
X101570706Y-84499986D01*
X101385134Y-84273866D01*
X101159013Y-84088294D01*
X100901033Y-83950401D01*
X100621110Y-83865487D01*
X100330000Y-83836815D01*
X100038889Y-83865487D01*
X99758966Y-83950401D01*
X99500986Y-84088294D01*
X99274866Y-84273866D01*
X99089294Y-84499987D01*
X99060000Y-84554792D01*
X99030706Y-84499986D01*
X98845134Y-84273866D01*
X98619013Y-84088294D01*
X98361033Y-83950401D01*
X98081110Y-83865487D01*
X97790000Y-83836815D01*
X97498889Y-83865487D01*
X97218966Y-83950401D01*
X96960986Y-84088294D01*
X96734866Y-84273866D01*
X96549294Y-84499987D01*
X96520000Y-84554792D01*
X96490706Y-84499986D01*
X96305134Y-84273866D01*
X96079013Y-84088294D01*
X95821033Y-83950401D01*
X95541110Y-83865487D01*
X95250000Y-83836815D01*
X94958889Y-83865487D01*
X94678966Y-83950401D01*
X94420986Y-84088294D01*
X94194866Y-84273866D01*
X94009294Y-84499987D01*
X93934664Y-84639611D01*
X93934010Y-84640589D01*
X93933560Y-84641676D01*
X93871401Y-84757967D01*
X93833122Y-84884154D01*
X93822068Y-84910842D01*
X93816433Y-84939173D01*
X93786487Y-85037890D01*
X93776376Y-85140550D01*
X93765000Y-85197740D01*
X70915883Y-85197740D01*
X70628644Y-85043704D01*
X70000254Y-84852148D01*
X69346569Y-84786866D01*
X68692707Y-84850366D01*
X68063797Y-85040208D01*
X67484008Y-85349096D01*
X67476411Y-85354172D01*
X67176231Y-85792626D01*
X65660000Y-85792626D01*
X65660000Y-73829877D01*
X68355054Y-73829877D01*
X68355054Y-74270123D01*
X68440942Y-74701910D01*
X68609417Y-75108644D01*
X68854004Y-75474695D01*
X69165305Y-75785996D01*
X69531356Y-76030583D01*
X69938090Y-76199058D01*
X70369877Y-76284946D01*
X70810123Y-76284946D01*
X71241910Y-76199058D01*
X71648644Y-76030583D01*
X72014695Y-75785996D01*
X72325996Y-75474695D01*
X72570583Y-75108644D01*
X72739058Y-74701910D01*
X72824946Y-74270123D01*
X72824946Y-73924916D01*
X73638000Y-73924916D01*
X73638000Y-74175084D01*
X73686805Y-74420445D01*
X73782541Y-74651571D01*
X73921527Y-74859578D01*
X74098422Y-75036473D01*
X74306429Y-75175459D01*
X74537555Y-75271195D01*
X74782916Y-75320000D01*
X75033084Y-75320000D01*
X75278445Y-75271195D01*
X75509571Y-75175459D01*
X75717578Y-75036473D01*
X75829251Y-74924800D01*
X76752805Y-74924800D01*
X76804369Y-75151946D01*
X77031716Y-75256339D01*
X77275059Y-75314373D01*
X77525049Y-75323818D01*
X77772078Y-75284310D01*
X78006653Y-75197369D01*
X78091631Y-75151946D01*
X78143195Y-74924800D01*
X79292805Y-74924800D01*
X79344369Y-75151946D01*
X79571716Y-75256339D01*
X79815059Y-75314373D01*
X80065049Y-75323818D01*
X80312078Y-75284310D01*
X80546653Y-75197369D01*
X80631631Y-75151946D01*
X80683195Y-74924800D01*
X79988000Y-74229605D01*
X79292805Y-74924800D01*
X78143195Y-74924800D01*
X77448000Y-74229605D01*
X76752805Y-74924800D01*
X75829251Y-74924800D01*
X75894473Y-74859578D01*
X76033459Y-74651571D01*
X76129195Y-74420445D01*
X76178000Y-74175084D01*
X76178000Y-74150922D01*
X76213690Y-74374078D01*
X76300631Y-74608653D01*
X76346054Y-74693631D01*
X76573200Y-74745195D01*
X77268395Y-74050000D01*
X77627605Y-74050000D01*
X78322800Y-74745195D01*
X78549946Y-74693631D01*
X78654339Y-74466284D01*
X78712373Y-74222941D01*
X78715649Y-74136224D01*
X78753690Y-74374078D01*
X78840631Y-74608653D01*
X78886054Y-74693631D01*
X79113200Y-74745195D01*
X79808395Y-74050000D01*
X80167605Y-74050000D01*
X80862800Y-74745195D01*
X81089946Y-74693631D01*
X81194339Y-74466284D01*
X81252373Y-74222941D01*
X81258000Y-74074006D01*
X81258000Y-74175084D01*
X81306805Y-74420445D01*
X81402541Y-74651571D01*
X81541527Y-74859578D01*
X81718422Y-75036473D01*
X81926429Y-75175459D01*
X82157555Y-75271195D01*
X82402916Y-75320000D01*
X82653084Y-75320000D01*
X82898445Y-75271195D01*
X83129571Y-75175459D01*
X83337578Y-75036473D01*
X83514473Y-74859578D01*
X83653459Y-74651571D01*
X83749195Y-74420445D01*
X83798000Y-74175084D01*
X83798000Y-73924916D01*
X83779096Y-73829877D01*
X84103054Y-73829877D01*
X84103054Y-74270123D01*
X84188942Y-74701910D01*
X84357417Y-75108644D01*
X84602004Y-75474695D01*
X84913305Y-75785996D01*
X85279356Y-76030583D01*
X85686090Y-76199058D01*
X86117877Y-76284946D01*
X86558123Y-76284946D01*
X86989910Y-76199058D01*
X87396644Y-76030583D01*
X87762695Y-75785996D01*
X88073996Y-75474695D01*
X88318583Y-75108644D01*
X88487058Y-74701910D01*
X88572946Y-74270123D01*
X88572946Y-73829877D01*
X88487058Y-73398090D01*
X88318583Y-72991356D01*
X88073996Y-72625305D01*
X87762695Y-72314004D01*
X87396644Y-72069417D01*
X86989910Y-71900942D01*
X86558123Y-71815054D01*
X86117877Y-71815054D01*
X85686090Y-71900942D01*
X85279356Y-72069417D01*
X84913305Y-72314004D01*
X84602004Y-72625305D01*
X84357417Y-72991356D01*
X84188942Y-73398090D01*
X84103054Y-73829877D01*
X83779096Y-73829877D01*
X83749195Y-73679555D01*
X83653459Y-73448429D01*
X83514473Y-73240422D01*
X83337578Y-73063527D01*
X83129571Y-72924541D01*
X82898445Y-72828805D01*
X82653084Y-72780000D01*
X82402916Y-72780000D01*
X82157555Y-72828805D01*
X81926429Y-72924541D01*
X81718422Y-73063527D01*
X81541527Y-73240422D01*
X81402541Y-73448429D01*
X81306805Y-73679555D01*
X81258000Y-73924916D01*
X81258000Y-73949078D01*
X81222310Y-73725922D01*
X81135369Y-73491347D01*
X81089946Y-73406369D01*
X80862800Y-73354805D01*
X80167605Y-74050000D01*
X79808395Y-74050000D01*
X79113200Y-73354805D01*
X78886054Y-73406369D01*
X78781661Y-73633716D01*
X78723627Y-73877059D01*
X78720351Y-73963776D01*
X78682310Y-73725922D01*
X78595369Y-73491347D01*
X78549946Y-73406369D01*
X78322800Y-73354805D01*
X77627605Y-74050000D01*
X77268395Y-74050000D01*
X76573200Y-73354805D01*
X76346054Y-73406369D01*
X76241661Y-73633716D01*
X76183627Y-73877059D01*
X76178000Y-74025994D01*
X76178000Y-73924916D01*
X76129195Y-73679555D01*
X76033459Y-73448429D01*
X75894473Y-73240422D01*
X75829251Y-73175200D01*
X76752805Y-73175200D01*
X77448000Y-73870395D01*
X78143195Y-73175200D01*
X79292805Y-73175200D01*
X79988000Y-73870395D01*
X80683195Y-73175200D01*
X80631631Y-72948054D01*
X80404284Y-72843661D01*
X80160941Y-72785627D01*
X79910951Y-72776182D01*
X79663922Y-72815690D01*
X79429347Y-72902631D01*
X79344369Y-72948054D01*
X79292805Y-73175200D01*
X78143195Y-73175200D01*
X78091631Y-72948054D01*
X77864284Y-72843661D01*
X77620941Y-72785627D01*
X77370951Y-72776182D01*
X77123922Y-72815690D01*
X76889347Y-72902631D01*
X76804369Y-72948054D01*
X76752805Y-73175200D01*
X75829251Y-73175200D01*
X75717578Y-73063527D01*
X75509571Y-72924541D01*
X75278445Y-72828805D01*
X75033084Y-72780000D01*
X74782916Y-72780000D01*
X74537555Y-72828805D01*
X74306429Y-72924541D01*
X74098422Y-73063527D01*
X73921527Y-73240422D01*
X73782541Y-73448429D01*
X73686805Y-73679555D01*
X73638000Y-73924916D01*
X72824946Y-73924916D01*
X72824946Y-73829877D01*
X72739058Y-73398090D01*
X72570583Y-72991356D01*
X72325996Y-72625305D01*
X72014695Y-72314004D01*
X71648644Y-72069417D01*
X71241910Y-71900942D01*
X70810123Y-71815054D01*
X70369877Y-71815054D01*
X69938090Y-71900942D01*
X69531356Y-72069417D01*
X69165305Y-72314004D01*
X68854004Y-72625305D01*
X68609417Y-72991356D01*
X68440942Y-73398090D01*
X68355054Y-73829877D01*
X65660000Y-73829877D01*
X65660000Y-59859877D01*
X68355054Y-59859877D01*
X68355054Y-60300123D01*
X68440942Y-60731910D01*
X68609417Y-61138644D01*
X68854004Y-61504695D01*
X69165305Y-61815996D01*
X69531356Y-62060583D01*
X69938090Y-62229058D01*
X70369877Y-62314946D01*
X70810123Y-62314946D01*
X71241910Y-62229058D01*
X71648644Y-62060583D01*
X72014695Y-61815996D01*
X72325996Y-61504695D01*
X72570583Y-61138644D01*
X72739058Y-60731910D01*
X72824946Y-60300123D01*
X72824946Y-59859877D01*
X84103054Y-59859877D01*
X84103054Y-60300123D01*
X84188942Y-60731910D01*
X84357417Y-61138644D01*
X84602004Y-61504695D01*
X84913305Y-61815996D01*
X85279356Y-62060583D01*
X85686090Y-62229058D01*
X86117877Y-62314946D01*
X86558123Y-62314946D01*
X86989910Y-62229058D01*
X87396644Y-62060583D01*
X87762695Y-61815996D01*
X88073996Y-61504695D01*
X88318583Y-61138644D01*
X88487058Y-60731910D01*
X88572946Y-60300123D01*
X88572946Y-59859877D01*
X88487058Y-59428090D01*
X88318583Y-59021356D01*
X88073996Y-58655305D01*
X87762695Y-58344004D01*
X87396644Y-58099417D01*
X86989910Y-57930942D01*
X86558123Y-57845054D01*
X86117877Y-57845054D01*
X85686090Y-57930942D01*
X85279356Y-58099417D01*
X84913305Y-58344004D01*
X84602004Y-58655305D01*
X84357417Y-59021356D01*
X84188942Y-59428090D01*
X84103054Y-59859877D01*
X72824946Y-59859877D01*
X72739058Y-59428090D01*
X72570583Y-59021356D01*
X72325996Y-58655305D01*
X72014695Y-58344004D01*
X71648644Y-58099417D01*
X71241910Y-57930942D01*
X70810123Y-57845054D01*
X70369877Y-57845054D01*
X69938090Y-57930942D01*
X69531356Y-58099417D01*
X69165305Y-58344004D01*
X68854004Y-58655305D01*
X68609417Y-59021356D01*
X68440942Y-59428090D01*
X68355054Y-59859877D01*
X65660000Y-59859877D01*
X65660000Y-55085000D01*
X88893928Y-55085000D01*
X88906188Y-55209482D01*
X88942498Y-55329180D01*
X89001463Y-55439494D01*
X89080815Y-55536185D01*
X89177506Y-55615537D01*
X89287820Y-55674502D01*
X89407518Y-55710812D01*
X89532000Y-55723072D01*
X89771250Y-55720000D01*
X89930000Y-55561250D01*
X89930000Y-54737000D01*
X89055750Y-54737000D01*
X88897000Y-54895750D01*
X88893928Y-55085000D01*
X65660000Y-55085000D01*
X65660000Y-54135000D01*
X88893928Y-54135000D01*
X88897000Y-54324250D01*
X89055750Y-54483000D01*
X89930000Y-54483000D01*
X89930000Y-53658750D01*
X89771250Y-53500000D01*
X89532000Y-53496928D01*
X89407518Y-53509188D01*
X89287820Y-53545498D01*
X89177506Y-53604463D01*
X89080815Y-53683815D01*
X89001463Y-53780506D01*
X88942498Y-53890820D01*
X88906188Y-54010518D01*
X88893928Y-54135000D01*
X65660000Y-54135000D01*
X65660000Y-51367374D01*
X67176231Y-51367374D01*
X67476411Y-51805828D01*
X68055356Y-52116296D01*
X68683746Y-52307852D01*
X69337431Y-52373134D01*
X69991293Y-52309634D01*
X70620203Y-52119792D01*
X71199992Y-51810904D01*
X71207589Y-51805828D01*
X71507769Y-51367374D01*
X69342000Y-49201605D01*
X67176231Y-51367374D01*
X65660000Y-51367374D01*
X65660000Y-49017431D01*
X65990866Y-49017431D01*
X66054366Y-49671293D01*
X66244208Y-50300203D01*
X66553096Y-50879992D01*
X66558172Y-50887589D01*
X66996626Y-51187769D01*
X69162395Y-49022000D01*
X69521605Y-49022000D01*
X71687374Y-51187769D01*
X72125828Y-50887589D01*
X72436296Y-50308644D01*
X72627852Y-49680254D01*
X72693134Y-49026569D01*
X72647783Y-48559580D01*
X85690000Y-48559580D01*
X85690000Y-48896420D01*
X85755714Y-49226789D01*
X85884618Y-49537989D01*
X86071756Y-49818061D01*
X86309939Y-50056244D01*
X86590011Y-50243382D01*
X86901211Y-50372286D01*
X87231580Y-50438000D01*
X87568420Y-50438000D01*
X87898789Y-50372286D01*
X88209989Y-50243382D01*
X88490061Y-50056244D01*
X88728244Y-49818061D01*
X88915382Y-49537989D01*
X89044286Y-49226789D01*
X89110000Y-48896420D01*
X89110000Y-48606363D01*
X90015000Y-48606363D01*
X90015000Y-48849637D01*
X90062460Y-49088236D01*
X90155557Y-49312992D01*
X90290713Y-49515267D01*
X90462733Y-49687287D01*
X90665008Y-49822443D01*
X90889764Y-49915540D01*
X91128363Y-49963000D01*
X91371637Y-49963000D01*
X91610236Y-49915540D01*
X91834992Y-49822443D01*
X92037267Y-49687287D01*
X92209287Y-49515267D01*
X92226097Y-49490110D01*
X92242000Y-49491676D01*
X92279322Y-49488000D01*
X92279333Y-49488000D01*
X92390986Y-49477003D01*
X92534247Y-49433546D01*
X92666276Y-49362974D01*
X92782001Y-49268001D01*
X92805804Y-49238997D01*
X94294802Y-47750000D01*
X94490739Y-47750000D01*
X94462733Y-47768713D01*
X94290713Y-47940733D01*
X94155557Y-48143008D01*
X94062460Y-48367764D01*
X94015000Y-48606363D01*
X94015000Y-48849637D01*
X94062460Y-49088236D01*
X94155557Y-49312992D01*
X94290713Y-49515267D01*
X94462733Y-49687287D01*
X94665008Y-49822443D01*
X94889764Y-49915540D01*
X95128363Y-49963000D01*
X95371637Y-49963000D01*
X95506000Y-49936274D01*
X95506000Y-50485198D01*
X92428075Y-53563124D01*
X92265316Y-53513752D01*
X92094500Y-53496928D01*
X91519500Y-53496928D01*
X91348684Y-53513752D01*
X91184433Y-53563577D01*
X91033058Y-53644488D01*
X91009161Y-53664099D01*
X90936494Y-53604463D01*
X90826180Y-53545498D01*
X90706482Y-53509188D01*
X90582000Y-53496928D01*
X90342750Y-53500000D01*
X90184000Y-53658750D01*
X90184000Y-54483000D01*
X90204000Y-54483000D01*
X90204000Y-54737000D01*
X90184000Y-54737000D01*
X90184000Y-55561250D01*
X90342750Y-55720000D01*
X90582000Y-55723072D01*
X90706482Y-55710812D01*
X90826180Y-55674502D01*
X90936494Y-55615537D01*
X91009161Y-55555901D01*
X91033058Y-55575512D01*
X91059032Y-55589395D01*
X91066214Y-55613072D01*
X91101454Y-55729246D01*
X91172026Y-55861276D01*
X91228428Y-55930001D01*
X91267000Y-55977001D01*
X91295998Y-56000799D01*
X99570000Y-64274802D01*
X99570001Y-66242658D01*
X99570000Y-66242668D01*
X99570000Y-67541406D01*
X99500987Y-67578294D01*
X99274867Y-67763866D01*
X99089295Y-67989986D01*
X99060000Y-68044792D01*
X99030706Y-67989986D01*
X98845134Y-67763866D01*
X98619014Y-67578294D01*
X98361034Y-67440401D01*
X98081111Y-67355487D01*
X97790000Y-67326815D01*
X97498890Y-67355487D01*
X97218967Y-67440401D01*
X96960987Y-67578294D01*
X96734867Y-67763866D01*
X96549295Y-67989986D01*
X96520000Y-68044792D01*
X96490706Y-67989986D01*
X96305134Y-67763866D01*
X96079014Y-67578294D01*
X95821034Y-67440401D01*
X95541111Y-67355487D01*
X95250000Y-67326815D01*
X94958890Y-67355487D01*
X94678967Y-67440401D01*
X94420987Y-67578294D01*
X94194867Y-67763866D01*
X94009295Y-67989986D01*
X93934663Y-68129611D01*
X93934010Y-68130589D01*
X93933560Y-68131675D01*
X93871401Y-68247966D01*
X93833121Y-68374157D01*
X93822068Y-68400842D01*
X93816433Y-68429170D01*
X93786487Y-68527889D01*
X93776376Y-68630551D01*
X93765000Y-68687740D01*
X93765000Y-70250260D01*
X93776376Y-70307450D01*
X93786487Y-70410110D01*
X93816433Y-70508827D01*
X93822068Y-70537158D01*
X93833122Y-70563846D01*
X93871401Y-70690033D01*
X93933560Y-70806324D01*
X93934010Y-70807411D01*
X93934664Y-70808389D01*
X94009294Y-70948013D01*
X94194866Y-71174134D01*
X94420986Y-71359706D01*
X94678966Y-71497599D01*
X94958889Y-71582513D01*
X95250000Y-71611185D01*
X95541110Y-71582513D01*
X95821033Y-71497599D01*
X96079013Y-71359706D01*
X96305134Y-71174134D01*
X96490706Y-70948014D01*
X96520000Y-70893208D01*
X96549294Y-70948013D01*
X96734866Y-71174134D01*
X96960986Y-71359706D01*
X97218966Y-71497599D01*
X97498889Y-71582513D01*
X97790000Y-71611185D01*
X98081110Y-71582513D01*
X98361033Y-71497599D01*
X98619013Y-71359706D01*
X98845134Y-71174134D01*
X99030706Y-70948014D01*
X99060000Y-70893208D01*
X99089294Y-70948013D01*
X99274866Y-71174134D01*
X99500986Y-71359706D01*
X99758966Y-71497599D01*
X100038889Y-71582513D01*
X100330000Y-71611185D01*
X100621110Y-71582513D01*
X100901033Y-71497599D01*
X101159013Y-71359706D01*
X101385134Y-71174134D01*
X101570706Y-70948014D01*
X101600000Y-70893208D01*
X101629294Y-70948013D01*
X101814866Y-71174134D01*
X102040986Y-71359706D01*
X102298966Y-71497599D01*
X102578889Y-71582513D01*
X102870000Y-71611185D01*
X103161110Y-71582513D01*
X103441033Y-71497599D01*
X103699013Y-71359706D01*
X103925134Y-71174134D01*
X104110706Y-70948014D01*
X104140000Y-70893208D01*
X104169294Y-70948013D01*
X104354866Y-71174134D01*
X104580986Y-71359706D01*
X104838966Y-71497599D01*
X105118889Y-71582513D01*
X105410000Y-71611185D01*
X105701110Y-71582513D01*
X105981033Y-71497599D01*
X106239013Y-71359706D01*
X106465134Y-71174134D01*
X106650706Y-70948014D01*
X106680000Y-70893208D01*
X106709294Y-70948013D01*
X106894866Y-71174134D01*
X107120986Y-71359706D01*
X107378966Y-71497599D01*
X107658889Y-71582513D01*
X107950000Y-71611185D01*
X108241110Y-71582513D01*
X108521033Y-71497599D01*
X108779013Y-71359706D01*
X109005134Y-71174134D01*
X109190706Y-70948014D01*
X109220000Y-70893208D01*
X109249294Y-70948013D01*
X109434866Y-71174134D01*
X109660986Y-71359706D01*
X109918966Y-71497599D01*
X110198889Y-71582513D01*
X110490000Y-71611185D01*
X110781110Y-71582513D01*
X111061033Y-71497599D01*
X111319013Y-71359706D01*
X111545134Y-71174134D01*
X111730706Y-70948014D01*
X111760000Y-70893208D01*
X111789294Y-70948013D01*
X111974866Y-71174134D01*
X112200986Y-71359706D01*
X112458966Y-71497599D01*
X112738889Y-71582513D01*
X113030000Y-71611185D01*
X113321110Y-71582513D01*
X113601033Y-71497599D01*
X113859013Y-71359706D01*
X114085134Y-71174134D01*
X114270706Y-70948014D01*
X114300000Y-70893208D01*
X114329294Y-70948013D01*
X114514866Y-71174134D01*
X114740986Y-71359706D01*
X114998966Y-71497599D01*
X115278889Y-71582513D01*
X115570000Y-71611185D01*
X115861110Y-71582513D01*
X116141033Y-71497599D01*
X116399013Y-71359706D01*
X116625134Y-71174134D01*
X116810706Y-70948014D01*
X116840000Y-70893208D01*
X116869294Y-70948013D01*
X117054866Y-71174134D01*
X117280986Y-71359706D01*
X117538966Y-71497599D01*
X117818889Y-71582513D01*
X118110000Y-71611185D01*
X118401110Y-71582513D01*
X118681033Y-71497599D01*
X118939013Y-71359706D01*
X119165134Y-71174134D01*
X119350706Y-70948014D01*
X119380000Y-70893208D01*
X119409294Y-70948013D01*
X119594866Y-71174134D01*
X119820986Y-71359706D01*
X120078966Y-71497599D01*
X120358889Y-71582513D01*
X120650000Y-71611185D01*
X120941110Y-71582513D01*
X121221033Y-71497599D01*
X121479013Y-71359706D01*
X121705134Y-71174134D01*
X121890706Y-70948014D01*
X121920000Y-70893208D01*
X121949294Y-70948013D01*
X122134866Y-71174134D01*
X122360986Y-71359706D01*
X122618966Y-71497599D01*
X122898889Y-71582513D01*
X123190000Y-71611185D01*
X123481110Y-71582513D01*
X123761033Y-71497599D01*
X124019013Y-71359706D01*
X124245134Y-71174134D01*
X124430706Y-70948014D01*
X124460000Y-70893208D01*
X124489294Y-70948013D01*
X124674866Y-71174134D01*
X124900986Y-71359706D01*
X125158966Y-71497599D01*
X125438889Y-71582513D01*
X125730000Y-71611185D01*
X126021110Y-71582513D01*
X126301033Y-71497599D01*
X126559013Y-71359706D01*
X126785134Y-71174134D01*
X126970706Y-70948014D01*
X127000000Y-70893208D01*
X127029294Y-70948013D01*
X127214866Y-71174134D01*
X127440986Y-71359706D01*
X127698966Y-71497599D01*
X127978889Y-71582513D01*
X128270000Y-71611185D01*
X128561110Y-71582513D01*
X128841033Y-71497599D01*
X129099013Y-71359706D01*
X129325134Y-71174134D01*
X129510706Y-70948014D01*
X129540000Y-70893208D01*
X129569294Y-70948013D01*
X129754866Y-71174134D01*
X129980986Y-71359706D01*
X130238966Y-71497599D01*
X130518889Y-71582513D01*
X130810000Y-71611185D01*
X131101110Y-71582513D01*
X131381033Y-71497599D01*
X131639013Y-71359706D01*
X131865134Y-71174134D01*
X132050706Y-70948014D01*
X132125339Y-70808385D01*
X132125990Y-70807411D01*
X132126438Y-70806328D01*
X132188599Y-70690034D01*
X132193462Y-70674000D01*
X141917928Y-70674000D01*
X141917928Y-72074000D01*
X141930188Y-72198482D01*
X141966498Y-72318180D01*
X142025463Y-72428494D01*
X142104815Y-72525185D01*
X142201506Y-72604537D01*
X142311820Y-72663502D01*
X142431518Y-72699812D01*
X142556000Y-72712072D01*
X143956000Y-72712072D01*
X144080482Y-72699812D01*
X144200180Y-72663502D01*
X144310494Y-72604537D01*
X144407185Y-72525185D01*
X144486537Y-72428494D01*
X144545502Y-72318180D01*
X144581812Y-72198482D01*
X144594072Y-72074000D01*
X144594072Y-70674000D01*
X144581812Y-70549518D01*
X144545502Y-70429820D01*
X144486537Y-70319506D01*
X144407185Y-70222815D01*
X144310494Y-70143463D01*
X144200180Y-70084498D01*
X144080482Y-70048188D01*
X143956000Y-70035928D01*
X143919987Y-70035928D01*
X144107013Y-69910962D01*
X144292962Y-69725013D01*
X144439061Y-69506359D01*
X144539696Y-69263405D01*
X144591000Y-69005486D01*
X144591000Y-68742514D01*
X144539696Y-68484595D01*
X144439061Y-68241641D01*
X144292962Y-68022987D01*
X144107013Y-67837038D01*
X143888359Y-67690939D01*
X143726754Y-67624000D01*
X143888359Y-67557061D01*
X144107013Y-67410962D01*
X144292962Y-67225013D01*
X144439061Y-67006359D01*
X144539696Y-66763405D01*
X144591000Y-66505486D01*
X144591000Y-66242514D01*
X144539696Y-65984595D01*
X144439061Y-65741641D01*
X144292962Y-65522987D01*
X144107013Y-65337038D01*
X143888359Y-65190939D01*
X143645405Y-65090304D01*
X143387486Y-65039000D01*
X143124514Y-65039000D01*
X142866595Y-65090304D01*
X142623641Y-65190939D01*
X142404987Y-65337038D01*
X142219038Y-65522987D01*
X142072939Y-65741641D01*
X141972304Y-65984595D01*
X141921000Y-66242514D01*
X141921000Y-66505486D01*
X141972304Y-66763405D01*
X142072939Y-67006359D01*
X142219038Y-67225013D01*
X142404987Y-67410962D01*
X142623641Y-67557061D01*
X142785246Y-67624000D01*
X142623641Y-67690939D01*
X142404987Y-67837038D01*
X142219038Y-68022987D01*
X142072939Y-68241641D01*
X141972304Y-68484595D01*
X141921000Y-68742514D01*
X141921000Y-69005486D01*
X141972304Y-69263405D01*
X142072939Y-69506359D01*
X142219038Y-69725013D01*
X142404987Y-69910962D01*
X142592013Y-70035928D01*
X142556000Y-70035928D01*
X142431518Y-70048188D01*
X142311820Y-70084498D01*
X142201506Y-70143463D01*
X142104815Y-70222815D01*
X142025463Y-70319506D01*
X141966498Y-70429820D01*
X141930188Y-70549518D01*
X141917928Y-70674000D01*
X132193462Y-70674000D01*
X132226879Y-70563843D01*
X132237932Y-70537158D01*
X132243567Y-70508830D01*
X132273513Y-70410111D01*
X132283624Y-70307449D01*
X132295000Y-70250260D01*
X132295000Y-68687740D01*
X132283624Y-68630551D01*
X132273513Y-68527889D01*
X132243567Y-68429170D01*
X132237932Y-68400842D01*
X132226879Y-68374157D01*
X132188599Y-68247966D01*
X132126438Y-68131672D01*
X132125990Y-68130589D01*
X132125339Y-68129615D01*
X132050706Y-67989986D01*
X131865134Y-67763866D01*
X131639014Y-67578294D01*
X131381034Y-67440401D01*
X131101111Y-67355487D01*
X130810000Y-67326815D01*
X130518890Y-67355487D01*
X130238967Y-67440401D01*
X129980987Y-67578294D01*
X129754867Y-67763866D01*
X129569295Y-67989986D01*
X129540000Y-68044792D01*
X129510706Y-67989986D01*
X129325134Y-67763866D01*
X129099014Y-67578294D01*
X128841034Y-67440401D01*
X128561111Y-67355487D01*
X128270000Y-67326815D01*
X127978890Y-67355487D01*
X127698967Y-67440401D01*
X127440987Y-67578294D01*
X127214867Y-67763866D01*
X127029295Y-67989986D01*
X127000000Y-68044792D01*
X126970706Y-67989986D01*
X126785134Y-67763866D01*
X126559014Y-67578294D01*
X126301034Y-67440401D01*
X126021111Y-67355487D01*
X125768222Y-67330580D01*
X134369003Y-58729799D01*
X134398001Y-58706001D01*
X134492974Y-58590276D01*
X134563546Y-58458247D01*
X134607003Y-58314986D01*
X134618000Y-58203333D01*
X134618000Y-58203324D01*
X134621676Y-58166001D01*
X134618000Y-58128678D01*
X134618000Y-53100072D01*
X134758000Y-53100072D01*
X134882482Y-53087812D01*
X135002180Y-53051502D01*
X135112494Y-52992537D01*
X135209185Y-52913185D01*
X135288537Y-52816494D01*
X135347502Y-52706180D01*
X135383812Y-52586482D01*
X135396072Y-52462000D01*
X135396072Y-51345374D01*
X141334231Y-51345374D01*
X141634411Y-51783828D01*
X142213356Y-52094296D01*
X142841746Y-52285852D01*
X143495431Y-52351134D01*
X144149293Y-52287634D01*
X144778203Y-52097792D01*
X145357992Y-51788904D01*
X145365589Y-51783828D01*
X145665769Y-51345374D01*
X143500000Y-49179605D01*
X141334231Y-51345374D01*
X135396072Y-51345374D01*
X135396072Y-50662000D01*
X135383812Y-50537518D01*
X135347502Y-50417820D01*
X135288537Y-50307506D01*
X135209185Y-50210815D01*
X135112494Y-50131463D01*
X135002180Y-50072498D01*
X134882482Y-50036188D01*
X134758000Y-50023928D01*
X132958000Y-50023928D01*
X132833518Y-50036188D01*
X132713820Y-50072498D01*
X132603506Y-50131463D01*
X132506815Y-50210815D01*
X132427463Y-50307506D01*
X132368498Y-50417820D01*
X132362944Y-50436127D01*
X132296505Y-50369688D01*
X132045095Y-50201701D01*
X131765743Y-50085989D01*
X131469184Y-50027000D01*
X131166816Y-50027000D01*
X130870257Y-50085989D01*
X130590905Y-50201701D01*
X130339495Y-50369688D01*
X130125688Y-50583495D01*
X129979687Y-50802000D01*
X127284192Y-50802000D01*
X127284423Y-50801567D01*
X127334248Y-50637316D01*
X127351072Y-50466500D01*
X127351072Y-49891500D01*
X127334248Y-49720684D01*
X127284423Y-49556433D01*
X127203512Y-49405058D01*
X127094623Y-49272377D01*
X126961942Y-49163488D01*
X126810567Y-49082577D01*
X126646316Y-49032752D01*
X126475500Y-49015928D01*
X126000500Y-49015928D01*
X125829684Y-49032752D01*
X125665433Y-49082577D01*
X125514058Y-49163488D01*
X125381377Y-49272377D01*
X125272488Y-49405058D01*
X125211602Y-49518969D01*
X125164724Y-49544026D01*
X125048999Y-49638999D01*
X125025201Y-49667997D01*
X123441003Y-51252196D01*
X123411999Y-51275999D01*
X123371582Y-51325248D01*
X123317026Y-51391724D01*
X123246455Y-51523753D01*
X123246454Y-51523754D01*
X123202997Y-51667015D01*
X123192000Y-51778668D01*
X123192000Y-51778678D01*
X123188324Y-51816000D01*
X123192000Y-51853322D01*
X123192000Y-53335831D01*
X123134168Y-53045088D01*
X123010918Y-52747537D01*
X122831987Y-52479748D01*
X122604252Y-52252013D01*
X122336463Y-52073082D01*
X122038912Y-51949832D01*
X121723033Y-51887000D01*
X121400967Y-51887000D01*
X121085088Y-51949832D01*
X120787537Y-52073082D01*
X120519748Y-52252013D01*
X120292013Y-52479748D01*
X120113082Y-52747537D01*
X119989832Y-53045088D01*
X119927000Y-53360967D01*
X119927000Y-53683033D01*
X119989832Y-53998912D01*
X120113082Y-54296463D01*
X120292013Y-54564252D01*
X120519748Y-54791987D01*
X120787537Y-54970918D01*
X121085088Y-55094168D01*
X121400967Y-55157000D01*
X121723033Y-55157000D01*
X122038912Y-55094168D01*
X122336463Y-54970918D01*
X122604252Y-54791987D01*
X122831987Y-54564252D01*
X123010918Y-54296463D01*
X123134168Y-53998912D01*
X123192000Y-53708169D01*
X123192001Y-65217197D01*
X121027504Y-67381694D01*
X120941111Y-67355487D01*
X120650000Y-67326815D01*
X120358890Y-67355487D01*
X120078967Y-67440401D01*
X119820987Y-67578294D01*
X119594867Y-67763866D01*
X119409295Y-67989986D01*
X119380000Y-68044792D01*
X119350706Y-67989986D01*
X119165134Y-67763866D01*
X118939014Y-67578294D01*
X118681034Y-67440401D01*
X118401111Y-67355487D01*
X118110000Y-67326815D01*
X117818890Y-67355487D01*
X117732496Y-67381694D01*
X110742000Y-60391199D01*
X110742000Y-53360967D01*
X113427000Y-53360967D01*
X113427000Y-53683033D01*
X113489832Y-53998912D01*
X113613082Y-54296463D01*
X113792013Y-54564252D01*
X114019748Y-54791987D01*
X114287537Y-54970918D01*
X114585088Y-55094168D01*
X114900967Y-55157000D01*
X115223033Y-55157000D01*
X115538912Y-55094168D01*
X115836463Y-54970918D01*
X116104252Y-54791987D01*
X116331987Y-54564252D01*
X116510918Y-54296463D01*
X116634168Y-53998912D01*
X116697000Y-53683033D01*
X116697000Y-53360967D01*
X116634168Y-53045088D01*
X116510918Y-52747537D01*
X116331987Y-52479748D01*
X116104252Y-52252013D01*
X115836463Y-52073082D01*
X115538912Y-51949832D01*
X115223033Y-51887000D01*
X114900967Y-51887000D01*
X114585088Y-51949832D01*
X114287537Y-52073082D01*
X114019748Y-52252013D01*
X113792013Y-52479748D01*
X113613082Y-52747537D01*
X113489832Y-53045088D01*
X113427000Y-53360967D01*
X110742000Y-53360967D01*
X110742000Y-52914920D01*
X110838623Y-52835623D01*
X110947512Y-52702942D01*
X111028423Y-52551567D01*
X111078248Y-52387316D01*
X111095072Y-52216500D01*
X111095072Y-51890729D01*
X113203802Y-49782000D01*
X113607091Y-49782000D01*
X113613082Y-49796463D01*
X113792013Y-50064252D01*
X114019748Y-50291987D01*
X114287537Y-50470918D01*
X114585088Y-50594168D01*
X114900967Y-50657000D01*
X115223033Y-50657000D01*
X115538912Y-50594168D01*
X115836463Y-50470918D01*
X116104252Y-50291987D01*
X116331987Y-50064252D01*
X116510918Y-49796463D01*
X116516909Y-49782000D01*
X120107091Y-49782000D01*
X120113082Y-49796463D01*
X120292013Y-50064252D01*
X120519748Y-50291987D01*
X120787537Y-50470918D01*
X121085088Y-50594168D01*
X121400967Y-50657000D01*
X121723033Y-50657000D01*
X122038912Y-50594168D01*
X122336463Y-50470918D01*
X122604252Y-50291987D01*
X122831987Y-50064252D01*
X123010918Y-49796463D01*
X123134168Y-49498912D01*
X123197000Y-49183033D01*
X123197000Y-48995431D01*
X140148866Y-48995431D01*
X140212366Y-49649293D01*
X140402208Y-50278203D01*
X140711096Y-50857992D01*
X140716172Y-50865589D01*
X141154626Y-51165769D01*
X143320395Y-49000000D01*
X141154626Y-46834231D01*
X140716172Y-47134411D01*
X140405704Y-47713356D01*
X140214148Y-48341746D01*
X140148866Y-48995431D01*
X123197000Y-48995431D01*
X123197000Y-48860967D01*
X123134168Y-48545088D01*
X123010918Y-48247537D01*
X122831987Y-47979748D01*
X122604252Y-47752013D01*
X122336463Y-47573082D01*
X122038912Y-47449832D01*
X121723033Y-47387000D01*
X121400967Y-47387000D01*
X121085088Y-47449832D01*
X120787537Y-47573082D01*
X120519748Y-47752013D01*
X120292013Y-47979748D01*
X120113082Y-48247537D01*
X120107091Y-48262000D01*
X116516909Y-48262000D01*
X116510918Y-48247537D01*
X116331987Y-47979748D01*
X116104252Y-47752013D01*
X115836463Y-47573082D01*
X115538912Y-47449832D01*
X115223033Y-47387000D01*
X114900967Y-47387000D01*
X114585088Y-47449832D01*
X114287537Y-47573082D01*
X114019748Y-47752013D01*
X113792013Y-47979748D01*
X113613082Y-48247537D01*
X113607091Y-48262000D01*
X112926323Y-48262000D01*
X112889000Y-48258324D01*
X112851677Y-48262000D01*
X112851667Y-48262000D01*
X112740014Y-48272997D01*
X112596753Y-48316454D01*
X112464724Y-48387026D01*
X112348999Y-48481999D01*
X112325201Y-48510997D01*
X111093939Y-49742260D01*
X111095072Y-49654000D01*
X111082812Y-49529518D01*
X111046502Y-49409820D01*
X110987537Y-49299506D01*
X110908185Y-49202815D01*
X110811494Y-49123463D01*
X110701180Y-49064498D01*
X110581482Y-49028188D01*
X110457000Y-49015928D01*
X110267750Y-49019000D01*
X110109000Y-49177750D01*
X110109000Y-50052000D01*
X110129000Y-50052000D01*
X110129000Y-50306000D01*
X110109000Y-50306000D01*
X110109000Y-50326000D01*
X109855000Y-50326000D01*
X109855000Y-50306000D01*
X109030750Y-50306000D01*
X108872000Y-50464750D01*
X108868928Y-50704000D01*
X108881188Y-50828482D01*
X108917498Y-50948180D01*
X108976463Y-51058494D01*
X109036099Y-51131161D01*
X109016488Y-51155058D01*
X108935577Y-51306433D01*
X108885752Y-51470684D01*
X108868928Y-51641500D01*
X108868928Y-52216500D01*
X108885752Y-52387316D01*
X108935577Y-52551567D01*
X109016488Y-52702942D01*
X109125377Y-52835623D01*
X109222000Y-52914920D01*
X109222001Y-60668668D01*
X109218324Y-60706000D01*
X109232998Y-60854985D01*
X109276454Y-60998246D01*
X109347026Y-61130276D01*
X109353894Y-61138644D01*
X109442000Y-61246001D01*
X109470998Y-61269799D01*
X115531778Y-67330580D01*
X115278890Y-67355487D01*
X114998967Y-67440401D01*
X114740987Y-67578294D01*
X114514867Y-67763866D01*
X114329295Y-67989986D01*
X114300000Y-68044792D01*
X114270706Y-67989986D01*
X114085134Y-67763866D01*
X113859014Y-67578294D01*
X113601034Y-67440401D01*
X113321111Y-67355487D01*
X113030000Y-67326815D01*
X112738890Y-67355487D01*
X112458967Y-67440401D01*
X112200987Y-67578294D01*
X111974867Y-67763866D01*
X111789295Y-67989986D01*
X111760000Y-68044792D01*
X111730706Y-67989986D01*
X111545134Y-67763866D01*
X111319014Y-67578294D01*
X111061034Y-67440401D01*
X110781111Y-67355487D01*
X110490000Y-67326815D01*
X110198890Y-67355487D01*
X109918967Y-67440401D01*
X109660987Y-67578294D01*
X109434867Y-67763866D01*
X109249295Y-67989986D01*
X109220000Y-68044792D01*
X109190706Y-67989986D01*
X109005134Y-67763866D01*
X108779014Y-67578294D01*
X108521034Y-67440401D01*
X108241111Y-67355487D01*
X107950000Y-67326815D01*
X107658890Y-67355487D01*
X107378967Y-67440401D01*
X107120987Y-67578294D01*
X106894867Y-67763866D01*
X106709295Y-67989986D01*
X106680000Y-68044792D01*
X106650706Y-67989986D01*
X106465134Y-67763866D01*
X106239014Y-67578294D01*
X106170000Y-67541405D01*
X106170000Y-55427333D01*
X106173677Y-55390000D01*
X106159003Y-55241014D01*
X106115546Y-55097753D01*
X106044974Y-54965724D01*
X105973799Y-54878997D01*
X105950001Y-54849999D01*
X105921004Y-54826202D01*
X105670072Y-54575270D01*
X105670072Y-54372500D01*
X105653248Y-54201684D01*
X105603423Y-54037433D01*
X105522512Y-53886058D01*
X105413623Y-53753377D01*
X105280942Y-53644488D01*
X105129567Y-53563577D01*
X104965316Y-53513752D01*
X104794500Y-53496928D01*
X104468730Y-53496928D01*
X102106000Y-51134199D01*
X102106000Y-50120431D01*
X102290010Y-50243382D01*
X102601210Y-50372286D01*
X102931579Y-50438000D01*
X103268419Y-50438000D01*
X103598788Y-50372286D01*
X103909988Y-50243382D01*
X104190060Y-50056244D01*
X104428243Y-49818061D01*
X104537864Y-49654000D01*
X108868928Y-49654000D01*
X108872000Y-49893250D01*
X109030750Y-50052000D01*
X109855000Y-50052000D01*
X109855000Y-49177750D01*
X109696250Y-49019000D01*
X109507000Y-49015928D01*
X109382518Y-49028188D01*
X109262820Y-49064498D01*
X109152506Y-49123463D01*
X109055815Y-49202815D01*
X108976463Y-49299506D01*
X108917498Y-49409820D01*
X108881188Y-49529518D01*
X108868928Y-49654000D01*
X104537864Y-49654000D01*
X104615381Y-49537989D01*
X104744285Y-49226789D01*
X104809999Y-48896420D01*
X104809999Y-48559580D01*
X104744285Y-48229211D01*
X104615381Y-47918011D01*
X104428243Y-47637939D01*
X104190060Y-47399756D01*
X103909988Y-47212618D01*
X103598788Y-47083714D01*
X103268419Y-47018000D01*
X102931579Y-47018000D01*
X102601210Y-47083714D01*
X102290010Y-47212618D01*
X102009938Y-47399756D01*
X101771755Y-47637939D01*
X101584617Y-47918011D01*
X101501200Y-48119396D01*
X99860806Y-46479003D01*
X99837003Y-46449999D01*
X99721278Y-46355026D01*
X99589249Y-46284454D01*
X99445988Y-46240997D01*
X99334335Y-46230000D01*
X99334324Y-46230000D01*
X99297002Y-46226324D01*
X99259680Y-46230000D01*
X94017322Y-46230000D01*
X93979999Y-46226324D01*
X93942676Y-46230000D01*
X93942667Y-46230000D01*
X93831014Y-46240997D01*
X93687753Y-46284454D01*
X93555724Y-46355026D01*
X93439999Y-46449999D01*
X93416201Y-46478997D01*
X92081876Y-47813322D01*
X92037267Y-47768713D01*
X91834992Y-47633557D01*
X91610236Y-47540460D01*
X91371637Y-47493000D01*
X91128363Y-47493000D01*
X90889764Y-47540460D01*
X90665008Y-47633557D01*
X90462733Y-47768713D01*
X90290713Y-47940733D01*
X90155557Y-48143008D01*
X90062460Y-48367764D01*
X90015000Y-48606363D01*
X89110000Y-48606363D01*
X89110000Y-48559580D01*
X89044286Y-48229211D01*
X88915382Y-47918011D01*
X88728244Y-47637939D01*
X88490061Y-47399756D01*
X88209989Y-47212618D01*
X87898789Y-47083714D01*
X87568420Y-47018000D01*
X87231580Y-47018000D01*
X86901211Y-47083714D01*
X86590011Y-47212618D01*
X86309939Y-47399756D01*
X86071756Y-47637939D01*
X85884618Y-47918011D01*
X85755714Y-48229211D01*
X85690000Y-48559580D01*
X72647783Y-48559580D01*
X72629634Y-48372707D01*
X72439792Y-47743797D01*
X72130904Y-47164008D01*
X72125828Y-47156411D01*
X71687374Y-46856231D01*
X69521605Y-49022000D01*
X69162395Y-49022000D01*
X66996626Y-46856231D01*
X66558172Y-47156411D01*
X66247704Y-47735356D01*
X66056148Y-48363746D01*
X65990866Y-49017431D01*
X65660000Y-49017431D01*
X65660000Y-46676626D01*
X67176231Y-46676626D01*
X69342000Y-48842395D01*
X71507769Y-46676626D01*
X71207589Y-46238172D01*
X70628644Y-45927704D01*
X70000254Y-45736148D01*
X69346569Y-45670866D01*
X68692707Y-45734366D01*
X68063797Y-45924208D01*
X67484008Y-46233096D01*
X67476411Y-46238172D01*
X67176231Y-46676626D01*
X65660000Y-46676626D01*
X65660000Y-45660000D01*
X143389922Y-45660000D01*
X142850707Y-45712366D01*
G36*
X96490001Y-53388982D02*
G01*
X96410750Y-53390000D01*
X96252000Y-53548750D01*
X96252000Y-54373000D01*
X96272000Y-54373000D01*
X96272000Y-54627000D01*
X96252000Y-54627000D01*
X96252000Y-55451250D01*
X96410750Y-55610000D01*
X96650000Y-55613072D01*
X96774482Y-55600812D01*
X96894180Y-55564502D01*
X97004494Y-55505537D01*
X97077161Y-55445901D01*
X97101058Y-55465512D01*
X97252433Y-55546423D01*
X97416684Y-55596248D01*
X97587500Y-55613072D01*
X98008271Y-55613072D01*
X102110000Y-59714803D01*
X102110001Y-60892658D01*
X102110000Y-60892668D01*
X102110001Y-67541405D01*
X102040987Y-67578294D01*
X101814867Y-67763866D01*
X101629295Y-67989986D01*
X101600000Y-68044792D01*
X101570706Y-67989986D01*
X101385134Y-67763866D01*
X101159014Y-67578294D01*
X101090000Y-67541405D01*
X101090000Y-63997322D01*
X101093676Y-63959999D01*
X101090000Y-63922676D01*
X101090000Y-63922667D01*
X101079003Y-63811014D01*
X101035546Y-63667753D01*
X100964974Y-63535724D01*
X100870001Y-63419999D01*
X100841004Y-63396202D01*
X92802783Y-55357982D01*
X92822512Y-55333942D01*
X92865982Y-55252614D01*
X92880276Y-55244974D01*
X92996001Y-55150001D01*
X93019804Y-55120997D01*
X93165801Y-54975000D01*
X94961928Y-54975000D01*
X94974188Y-55099482D01*
X95010498Y-55219180D01*
X95069463Y-55329494D01*
X95148815Y-55426185D01*
X95245506Y-55505537D01*
X95355820Y-55564502D01*
X95475518Y-55600812D01*
X95600000Y-55613072D01*
X95839250Y-55610000D01*
X95998000Y-55451250D01*
X95998000Y-54627000D01*
X95123750Y-54627000D01*
X94965000Y-54785750D01*
X94961928Y-54975000D01*
X93165801Y-54975000D01*
X94115801Y-54025000D01*
X94961928Y-54025000D01*
X94965000Y-54214250D01*
X95123750Y-54373000D01*
X95998000Y-54373000D01*
X95998000Y-53548750D01*
X95839250Y-53390000D01*
X95600000Y-53386928D01*
X95475518Y-53399188D01*
X95355820Y-53435498D01*
X95245506Y-53494463D01*
X95148815Y-53573815D01*
X95069463Y-53670506D01*
X95010498Y-53780820D01*
X94974188Y-53900518D01*
X94961928Y-54025000D01*
X94115801Y-54025000D01*
X96490001Y-51650801D01*
X96490001Y-53388982D01*
G37*
X96490001Y-53388982D02*
X96410750Y-53390000D01*
X96252000Y-53548750D01*
X96252000Y-54373000D01*
X96272000Y-54373000D01*
X96272000Y-54627000D01*
X96252000Y-54627000D01*
X96252000Y-55451250D01*
X96410750Y-55610000D01*
X96650000Y-55613072D01*
X96774482Y-55600812D01*
X96894180Y-55564502D01*
X97004494Y-55505537D01*
X97077161Y-55445901D01*
X97101058Y-55465512D01*
X97252433Y-55546423D01*
X97416684Y-55596248D01*
X97587500Y-55613072D01*
X98008271Y-55613072D01*
X102110000Y-59714803D01*
X102110001Y-60892658D01*
X102110000Y-60892668D01*
X102110001Y-67541405D01*
X102040987Y-67578294D01*
X101814867Y-67763866D01*
X101629295Y-67989986D01*
X101600000Y-68044792D01*
X101570706Y-67989986D01*
X101385134Y-67763866D01*
X101159014Y-67578294D01*
X101090000Y-67541405D01*
X101090000Y-63997322D01*
X101093676Y-63959999D01*
X101090000Y-63922676D01*
X101090000Y-63922667D01*
X101079003Y-63811014D01*
X101035546Y-63667753D01*
X100964974Y-63535724D01*
X100870001Y-63419999D01*
X100841004Y-63396202D01*
X92802783Y-55357982D01*
X92822512Y-55333942D01*
X92865982Y-55252614D01*
X92880276Y-55244974D01*
X92996001Y-55150001D01*
X93019804Y-55120997D01*
X93165801Y-54975000D01*
X94961928Y-54975000D01*
X94974188Y-55099482D01*
X95010498Y-55219180D01*
X95069463Y-55329494D01*
X95148815Y-55426185D01*
X95245506Y-55505537D01*
X95355820Y-55564502D01*
X95475518Y-55600812D01*
X95600000Y-55613072D01*
X95839250Y-55610000D01*
X95998000Y-55451250D01*
X95998000Y-54627000D01*
X95123750Y-54627000D01*
X94965000Y-54785750D01*
X94961928Y-54975000D01*
X93165801Y-54975000D01*
X94115801Y-54025000D01*
X94961928Y-54025000D01*
X94965000Y-54214250D01*
X95123750Y-54373000D01*
X95998000Y-54373000D01*
X95998000Y-53548750D01*
X95839250Y-53390000D01*
X95600000Y-53386928D01*
X95475518Y-53399188D01*
X95355820Y-53435498D01*
X95245506Y-53494463D01*
X95148815Y-53573815D01*
X95069463Y-53670506D01*
X95010498Y-53780820D01*
X94974188Y-53900518D01*
X94961928Y-54025000D01*
X94115801Y-54025000D01*
X96490001Y-51650801D01*
X96490001Y-53388982D01*
G36*
X100586000Y-49353800D02*
G01*
X100586001Y-51411668D01*
X100582324Y-51449000D01*
X100586001Y-51486333D01*
X100587813Y-51504725D01*
X100596998Y-51597985D01*
X100640454Y-51741246D01*
X100711026Y-51873276D01*
X100756758Y-51929000D01*
X100806000Y-51989001D01*
X100834998Y-52012799D01*
X102320260Y-53498061D01*
X102232000Y-53496928D01*
X102107518Y-53509188D01*
X101987820Y-53545498D01*
X101877506Y-53604463D01*
X101780815Y-53683815D01*
X101701463Y-53780506D01*
X101642498Y-53890820D01*
X101606188Y-54010518D01*
X101593928Y-54135000D01*
X101597000Y-54324250D01*
X101755750Y-54483000D01*
X102630000Y-54483000D01*
X102630000Y-54463000D01*
X102884000Y-54463000D01*
X102884000Y-54483000D01*
X102904000Y-54483000D01*
X102904000Y-54737000D01*
X102884000Y-54737000D01*
X102884000Y-55561250D01*
X103042750Y-55720000D01*
X103282000Y-55723072D01*
X103406482Y-55710812D01*
X103526180Y-55674502D01*
X103636494Y-55615537D01*
X103709161Y-55555901D01*
X103733058Y-55575512D01*
X103884433Y-55656423D01*
X104048684Y-55706248D01*
X104219500Y-55723072D01*
X104650000Y-55723072D01*
X104650001Y-56769963D01*
X104650000Y-56769973D01*
X104650001Y-67541405D01*
X104580987Y-67578294D01*
X104354867Y-67763866D01*
X104169295Y-67989986D01*
X104140000Y-68044792D01*
X104110706Y-67989986D01*
X103925134Y-67763866D01*
X103699014Y-67578294D01*
X103630000Y-67541405D01*
X103630000Y-59437322D01*
X103633676Y-59399999D01*
X103630000Y-59362676D01*
X103630000Y-59362667D01*
X103619003Y-59251014D01*
X103575546Y-59107753D01*
X103504974Y-58975724D01*
X103491811Y-58959685D01*
X103433799Y-58888996D01*
X103433795Y-58888992D01*
X103410001Y-58859999D01*
X103381009Y-58836206D01*
X99629802Y-55085000D01*
X101593928Y-55085000D01*
X101606188Y-55209482D01*
X101642498Y-55329180D01*
X101701463Y-55439494D01*
X101780815Y-55536185D01*
X101877506Y-55615537D01*
X101987820Y-55674502D01*
X102107518Y-55710812D01*
X102232000Y-55723072D01*
X102471250Y-55720000D01*
X102630000Y-55561250D01*
X102630000Y-54737000D01*
X101755750Y-54737000D01*
X101597000Y-54895750D01*
X101593928Y-55085000D01*
X99629802Y-55085000D01*
X99038072Y-54493271D01*
X99038072Y-54262500D01*
X99021248Y-54091684D01*
X98971423Y-53927433D01*
X98890512Y-53776058D01*
X98781623Y-53643377D01*
X98648942Y-53534488D01*
X98497567Y-53453577D01*
X98333316Y-53403752D01*
X98162500Y-53386928D01*
X98010000Y-53386928D01*
X98010000Y-49705506D01*
X98037267Y-49687287D01*
X98092501Y-49632053D01*
X98119463Y-49682494D01*
X98198815Y-49779185D01*
X98295506Y-49858537D01*
X98405820Y-49917502D01*
X98525518Y-49953812D01*
X98650000Y-49966072D01*
X99850000Y-49966072D01*
X99974482Y-49953812D01*
X100094180Y-49917502D01*
X100204494Y-49858537D01*
X100301185Y-49779185D01*
X100380537Y-49682494D01*
X100439502Y-49572180D01*
X100475812Y-49452482D01*
X100488072Y-49328000D01*
X100488072Y-49255872D01*
X100586000Y-49353800D01*
G37*
X100586000Y-49353800D02*
X100586001Y-51411668D01*
X100582324Y-51449000D01*
X100586001Y-51486333D01*
X100587813Y-51504725D01*
X100596998Y-51597985D01*
X100640454Y-51741246D01*
X100711026Y-51873276D01*
X100756758Y-51929000D01*
X100806000Y-51989001D01*
X100834998Y-52012799D01*
X102320260Y-53498061D01*
X102232000Y-53496928D01*
X102107518Y-53509188D01*
X101987820Y-53545498D01*
X101877506Y-53604463D01*
X101780815Y-53683815D01*
X101701463Y-53780506D01*
X101642498Y-53890820D01*
X101606188Y-54010518D01*
X101593928Y-54135000D01*
X101597000Y-54324250D01*
X101755750Y-54483000D01*
X102630000Y-54483000D01*
X102630000Y-54463000D01*
X102884000Y-54463000D01*
X102884000Y-54483000D01*
X102904000Y-54483000D01*
X102904000Y-54737000D01*
X102884000Y-54737000D01*
X102884000Y-55561250D01*
X103042750Y-55720000D01*
X103282000Y-55723072D01*
X103406482Y-55710812D01*
X103526180Y-55674502D01*
X103636494Y-55615537D01*
X103709161Y-55555901D01*
X103733058Y-55575512D01*
X103884433Y-55656423D01*
X104048684Y-55706248D01*
X104219500Y-55723072D01*
X104650000Y-55723072D01*
X104650001Y-56769963D01*
X104650000Y-56769973D01*
X104650001Y-67541405D01*
X104580987Y-67578294D01*
X104354867Y-67763866D01*
X104169295Y-67989986D01*
X104140000Y-68044792D01*
X104110706Y-67989986D01*
X103925134Y-67763866D01*
X103699014Y-67578294D01*
X103630000Y-67541405D01*
X103630000Y-59437322D01*
X103633676Y-59399999D01*
X103630000Y-59362676D01*
X103630000Y-59362667D01*
X103619003Y-59251014D01*
X103575546Y-59107753D01*
X103504974Y-58975724D01*
X103491811Y-58959685D01*
X103433799Y-58888996D01*
X103433795Y-58888992D01*
X103410001Y-58859999D01*
X103381009Y-58836206D01*
X99629802Y-55085000D01*
X101593928Y-55085000D01*
X101606188Y-55209482D01*
X101642498Y-55329180D01*
X101701463Y-55439494D01*
X101780815Y-55536185D01*
X101877506Y-55615537D01*
X101987820Y-55674502D01*
X102107518Y-55710812D01*
X102232000Y-55723072D01*
X102471250Y-55720000D01*
X102630000Y-55561250D01*
X102630000Y-54737000D01*
X101755750Y-54737000D01*
X101597000Y-54895750D01*
X101593928Y-55085000D01*
X99629802Y-55085000D01*
X99038072Y-54493271D01*
X99038072Y-54262500D01*
X99021248Y-54091684D01*
X98971423Y-53927433D01*
X98890512Y-53776058D01*
X98781623Y-53643377D01*
X98648942Y-53534488D01*
X98497567Y-53453577D01*
X98333316Y-53403752D01*
X98162500Y-53386928D01*
X98010000Y-53386928D01*
X98010000Y-49705506D01*
X98037267Y-49687287D01*
X98092501Y-49632053D01*
X98119463Y-49682494D01*
X98198815Y-49779185D01*
X98295506Y-49858537D01*
X98405820Y-49917502D01*
X98525518Y-49953812D01*
X98650000Y-49966072D01*
X99850000Y-49966072D01*
X99974482Y-49953812D01*
X100094180Y-49917502D01*
X100204494Y-49858537D01*
X100301185Y-49779185D01*
X100380537Y-49682494D01*
X100439502Y-49572180D01*
X100475812Y-49452482D01*
X100488072Y-49328000D01*
X100488072Y-49255872D01*
X100586000Y-49353800D01*
G36*
X125124928Y-52216500D02*
G01*
X125141752Y-52387316D01*
X125191577Y-52551567D01*
X125272488Y-52702942D01*
X125381377Y-52835623D01*
X125514058Y-52944512D01*
X125665433Y-53025423D01*
X125829684Y-53075248D01*
X126000500Y-53092072D01*
X126475500Y-53092072D01*
X126646316Y-53075248D01*
X126810567Y-53025423D01*
X126961942Y-52944512D01*
X127094623Y-52835623D01*
X127203512Y-52702942D01*
X127284423Y-52551567D01*
X127334248Y-52387316D01*
X127340681Y-52322000D01*
X129979687Y-52322000D01*
X130125688Y-52540505D01*
X130339495Y-52754312D01*
X130590905Y-52922299D01*
X130870257Y-53038011D01*
X131166816Y-53097000D01*
X131469184Y-53097000D01*
X131765743Y-53038011D01*
X132045095Y-52922299D01*
X132296505Y-52754312D01*
X132362944Y-52687873D01*
X132368498Y-52706180D01*
X132427463Y-52816494D01*
X132506815Y-52913185D01*
X132603506Y-52992537D01*
X132713820Y-53051502D01*
X132833518Y-53087812D01*
X132958000Y-53100072D01*
X133098000Y-53100072D01*
X133098001Y-57851197D01*
X123567505Y-67381694D01*
X123481111Y-67355487D01*
X123228222Y-67330580D01*
X124463003Y-66095799D01*
X124492001Y-66072001D01*
X124586974Y-65956276D01*
X124657546Y-65824247D01*
X124701003Y-65680986D01*
X124712000Y-65569333D01*
X124712000Y-65569324D01*
X124715676Y-65532001D01*
X124712000Y-65494678D01*
X124712000Y-52130801D01*
X125124928Y-51717873D01*
X125124928Y-52216500D01*
G37*
X125124928Y-52216500D02*
X125141752Y-52387316D01*
X125191577Y-52551567D01*
X125272488Y-52702942D01*
X125381377Y-52835623D01*
X125514058Y-52944512D01*
X125665433Y-53025423D01*
X125829684Y-53075248D01*
X126000500Y-53092072D01*
X126475500Y-53092072D01*
X126646316Y-53075248D01*
X126810567Y-53025423D01*
X126961942Y-52944512D01*
X127094623Y-52835623D01*
X127203512Y-52702942D01*
X127284423Y-52551567D01*
X127334248Y-52387316D01*
X127340681Y-52322000D01*
X129979687Y-52322000D01*
X130125688Y-52540505D01*
X130339495Y-52754312D01*
X130590905Y-52922299D01*
X130870257Y-53038011D01*
X131166816Y-53097000D01*
X131469184Y-53097000D01*
X131765743Y-53038011D01*
X132045095Y-52922299D01*
X132296505Y-52754312D01*
X132362944Y-52687873D01*
X132368498Y-52706180D01*
X132427463Y-52816494D01*
X132506815Y-52913185D01*
X132603506Y-52992537D01*
X132713820Y-53051502D01*
X132833518Y-53087812D01*
X132958000Y-53100072D01*
X133098000Y-53100072D01*
X133098001Y-57851197D01*
X123567505Y-67381694D01*
X123481111Y-67355487D01*
X123228222Y-67330580D01*
X124463003Y-66095799D01*
X124492001Y-66072001D01*
X124586974Y-65956276D01*
X124657546Y-65824247D01*
X124701003Y-65680986D01*
X124712000Y-65569333D01*
X124712000Y-65569324D01*
X124715676Y-65532001D01*
X124712000Y-65494678D01*
X124712000Y-52130801D01*
X125124928Y-51717873D01*
X125124928Y-52216500D01*
%TD*%
M02*
