%TF.GenerationSoftware,KiCad,Pcbnew,(5.1.6)-1*%
%TF.CreationDate,2021-03-22T21:05:39-07:00*%
%TF.ProjectId,TSA Location Tracker,54534120-4c6f-4636-9174-696f6e205472,rev?*%
%TF.SameCoordinates,Original*%
%TF.FileFunction,Soldermask,Top*%
%TF.FilePolarity,Negative*%
%FSLAX46Y46*%
G04 Gerber Fmt 4.6, Leading zero omitted, Abs format (unit mm)*
G04 Created by KiCad (PCBNEW (5.1.6)-1) date 2021-03-22 21:05:39*
%MOMM*%
%LPD*%
G01*
G04 APERTURE LIST*
%ADD10C,1.300000*%
%ADD11R,1.300000X1.300000*%
%ADD12C,2.250000*%
%ADD13O,1.800000X1.800000*%
%ADD14C,1.800000*%
%ADD15O,1.800000X3.100000*%
%ADD16R,1.900000X1.900000*%
%ADD17C,1.900000*%
%ADD18C,5.500000*%
%ADD19C,2.100000*%
%ADD20C,3.299892*%
%ADD21C,1.370000*%
%ADD22C,1.500000*%
%ADD23R,1.500000X1.500000*%
G04 APERTURE END LIST*
D10*
%TO.C,Mode_Switch1*%
X91250000Y-48728000D03*
X95250000Y-48728000D03*
X97250000Y-48728000D03*
D11*
X99250000Y-48728000D03*
D12*
X87400000Y-48728000D03*
X103099999Y-48728000D03*
%TD*%
D13*
%TO.C,Arduino1*%
X95250000Y-70104000D03*
X97790000Y-70104000D03*
X100330000Y-70104000D03*
X102870000Y-70104000D03*
X105410000Y-70104000D03*
X107950000Y-70104000D03*
X110490000Y-70104000D03*
X113030000Y-70104000D03*
X115570000Y-70104000D03*
X118110000Y-70104000D03*
X120650000Y-70104000D03*
X123190000Y-70104000D03*
X125730000Y-70104000D03*
X128270000Y-70104000D03*
D14*
X130810000Y-70104000D03*
X130810000Y-68834000D03*
D15*
X130810000Y-69469000D03*
D14*
X128270000Y-68834000D03*
X125730000Y-68834000D03*
X123190000Y-68834000D03*
X118110000Y-68834000D03*
X120650000Y-68834000D03*
X115570000Y-68834000D03*
X110490000Y-68834000D03*
X113030000Y-68834000D03*
X105410000Y-68834000D03*
X102870000Y-68834000D03*
X107950000Y-68834000D03*
X100330000Y-68834000D03*
X95250000Y-68834000D03*
X97790000Y-68834000D03*
D15*
X128270000Y-69469000D03*
X125730000Y-69469000D03*
X123190000Y-69469000D03*
X120650000Y-69469000D03*
X118110000Y-69469000D03*
X115570000Y-69469000D03*
X113030000Y-69469000D03*
X110490000Y-69469000D03*
X107950000Y-69469000D03*
X105410000Y-69469000D03*
X102870000Y-69469000D03*
X100330000Y-69469000D03*
X97790000Y-69469000D03*
X95250000Y-69469000D03*
D14*
X100330000Y-86614000D03*
X125730000Y-86614000D03*
X97790000Y-86614000D03*
D15*
X97790000Y-85979000D03*
X130810000Y-85979000D03*
X113030000Y-85979000D03*
D14*
X130810000Y-86614000D03*
X105410000Y-86614000D03*
X128270000Y-86614000D03*
D13*
X123190000Y-85344000D03*
D15*
X107950000Y-85979000D03*
D13*
X130810000Y-85344000D03*
D15*
X110490000Y-85979000D03*
D14*
X95250000Y-85344000D03*
D13*
X97790000Y-85344000D03*
X100330000Y-85344000D03*
X102870000Y-85344000D03*
X105410000Y-85344000D03*
X128270000Y-85344000D03*
X107950000Y-85344000D03*
D14*
X120650000Y-86614000D03*
D15*
X115570000Y-85979000D03*
X118110000Y-85979000D03*
D13*
X120650000Y-85344000D03*
X118110000Y-85344000D03*
D15*
X102870000Y-85979000D03*
D13*
X110490000Y-85344000D03*
D14*
X118110000Y-86614000D03*
X107950000Y-86614000D03*
D15*
X95250000Y-85979000D03*
D14*
X115570000Y-86614000D03*
X113030000Y-86614000D03*
X102870000Y-86614000D03*
D13*
X113030000Y-85344000D03*
X115570000Y-85344000D03*
D14*
X95250000Y-86614000D03*
D13*
X125730000Y-85344000D03*
D14*
X110490000Y-86614000D03*
D15*
X123190000Y-85979000D03*
X125730000Y-85979000D03*
X105410000Y-85979000D03*
X100330000Y-85979000D03*
D14*
X123190000Y-86614000D03*
D15*
X120650000Y-85979000D03*
%TD*%
D16*
%TO.C,D1*%
X133858000Y-51562000D03*
D17*
X131318000Y-51562000D03*
%TD*%
D18*
%TO.C,H1*%
X69342000Y-49022000D03*
%TD*%
%TO.C,H2*%
X143500000Y-49000000D03*
%TD*%
%TO.C,H3*%
X69342000Y-88138000D03*
%TD*%
%TO.C,H4*%
X143510000Y-88646000D03*
%TD*%
D19*
%TO.C,LED_Switch1*%
X121562000Y-49022000D03*
X121562000Y-53522000D03*
X115062000Y-49022000D03*
X115062000Y-53522000D03*
%TD*%
%TO.C,R1*%
G36*
G01*
X105082000Y-54347500D02*
X105082000Y-54872500D01*
G75*
G02*
X104819500Y-55135000I-262500J0D01*
G01*
X104194500Y-55135000D01*
G75*
G02*
X103932000Y-54872500I0J262500D01*
G01*
X103932000Y-54347500D01*
G75*
G02*
X104194500Y-54085000I262500J0D01*
G01*
X104819500Y-54085000D01*
G75*
G02*
X105082000Y-54347500I0J-262500D01*
G01*
G37*
G36*
G01*
X103332000Y-54347500D02*
X103332000Y-54872500D01*
G75*
G02*
X103069500Y-55135000I-262500J0D01*
G01*
X102444500Y-55135000D01*
G75*
G02*
X102182000Y-54872500I0J262500D01*
G01*
X102182000Y-54347500D01*
G75*
G02*
X102444500Y-54085000I262500J0D01*
G01*
X103069500Y-54085000D01*
G75*
G02*
X103332000Y-54347500I0J-262500D01*
G01*
G37*
%TD*%
%TO.C,R2*%
G36*
G01*
X98450000Y-54237500D02*
X98450000Y-54762500D01*
G75*
G02*
X98187500Y-55025000I-262500J0D01*
G01*
X97562500Y-55025000D01*
G75*
G02*
X97300000Y-54762500I0J262500D01*
G01*
X97300000Y-54237500D01*
G75*
G02*
X97562500Y-53975000I262500J0D01*
G01*
X98187500Y-53975000D01*
G75*
G02*
X98450000Y-54237500I0J-262500D01*
G01*
G37*
G36*
G01*
X96700000Y-54237500D02*
X96700000Y-54762500D01*
G75*
G02*
X96437500Y-55025000I-262500J0D01*
G01*
X95812500Y-55025000D01*
G75*
G02*
X95550000Y-54762500I0J262500D01*
G01*
X95550000Y-54237500D01*
G75*
G02*
X95812500Y-53975000I262500J0D01*
G01*
X96437500Y-53975000D01*
G75*
G02*
X96700000Y-54237500I0J-262500D01*
G01*
G37*
%TD*%
%TO.C,R3*%
G36*
G01*
X92382000Y-54347500D02*
X92382000Y-54872500D01*
G75*
G02*
X92119500Y-55135000I-262500J0D01*
G01*
X91494500Y-55135000D01*
G75*
G02*
X91232000Y-54872500I0J262500D01*
G01*
X91232000Y-54347500D01*
G75*
G02*
X91494500Y-54085000I262500J0D01*
G01*
X92119500Y-54085000D01*
G75*
G02*
X92382000Y-54347500I0J-262500D01*
G01*
G37*
G36*
G01*
X90632000Y-54347500D02*
X90632000Y-54872500D01*
G75*
G02*
X90369500Y-55135000I-262500J0D01*
G01*
X89744500Y-55135000D01*
G75*
G02*
X89482000Y-54872500I0J262500D01*
G01*
X89482000Y-54347500D01*
G75*
G02*
X89744500Y-54085000I262500J0D01*
G01*
X90369500Y-54085000D01*
G75*
G02*
X90632000Y-54347500I0J-262500D01*
G01*
G37*
%TD*%
%TO.C,R4*%
G36*
G01*
X126500500Y-50754000D02*
X125975500Y-50754000D01*
G75*
G02*
X125713000Y-50491500I0J262500D01*
G01*
X125713000Y-49866500D01*
G75*
G02*
X125975500Y-49604000I262500J0D01*
G01*
X126500500Y-49604000D01*
G75*
G02*
X126763000Y-49866500I0J-262500D01*
G01*
X126763000Y-50491500D01*
G75*
G02*
X126500500Y-50754000I-262500J0D01*
G01*
G37*
G36*
G01*
X126500500Y-52504000D02*
X125975500Y-52504000D01*
G75*
G02*
X125713000Y-52241500I0J262500D01*
G01*
X125713000Y-51616500D01*
G75*
G02*
X125975500Y-51354000I262500J0D01*
G01*
X126500500Y-51354000D01*
G75*
G02*
X126763000Y-51616500I0J-262500D01*
G01*
X126763000Y-52241500D01*
G75*
G02*
X126500500Y-52504000I-262500J0D01*
G01*
G37*
%TD*%
%TO.C,R5*%
G36*
G01*
X110244500Y-50754000D02*
X109719500Y-50754000D01*
G75*
G02*
X109457000Y-50491500I0J262500D01*
G01*
X109457000Y-49866500D01*
G75*
G02*
X109719500Y-49604000I262500J0D01*
G01*
X110244500Y-49604000D01*
G75*
G02*
X110507000Y-49866500I0J-262500D01*
G01*
X110507000Y-50491500D01*
G75*
G02*
X110244500Y-50754000I-262500J0D01*
G01*
G37*
G36*
G01*
X110244500Y-52504000D02*
X109719500Y-52504000D01*
G75*
G02*
X109457000Y-52241500I0J262500D01*
G01*
X109457000Y-51616500D01*
G75*
G02*
X109719500Y-51354000I262500J0D01*
G01*
X110244500Y-51354000D01*
G75*
G02*
X110507000Y-51616500I0J-262500D01*
G01*
X110507000Y-52241500D01*
G75*
G02*
X110244500Y-52504000I-262500J0D01*
G01*
G37*
%TD*%
D20*
%TO.C,U1*%
X86338000Y-60080000D03*
X86338000Y-74050000D03*
X70590000Y-60080000D03*
X70590000Y-74050000D03*
D21*
X74908000Y-74050000D03*
X82528000Y-74050000D03*
X79988000Y-74050000D03*
X77448000Y-74050000D03*
%TD*%
D22*
%TO.C,Power_Switch1*%
X146556000Y-66374000D03*
X146556000Y-68874000D03*
X146556000Y-71374000D03*
X143256000Y-66374000D03*
X143256000Y-68874000D03*
D23*
X143256000Y-71374000D03*
%TD*%
M02*
