M48
; DRILL file {KiCad (5.1.6)-1} date 03/22/21 21:06:29
; FORMAT={-:-/ absolute / inch / decimal}
; #@! TF.CreationDate,2021-03-22T21:06:29-07:00
; #@! TF.GenerationSoftware,Kicad,Pcbnew,(5.1.6)-1
; #@! TF.FileFunction,Plated,1,2,PTH
FMAT,2
INCH
T1C0.0276
T2C0.0354
T3C0.0394
T4C0.0394
T5C0.0433
T6C0.0551
T7C0.0984
T8C0.1063
%
G90
G05
T1
X3.5925Y-1.9184
X3.75Y-1.9184
X3.8287Y-1.9184
X3.9075Y-1.9184
T2
X5.64Y-2.6131
X5.64Y-2.7116
X5.64Y-2.81
X5.7699Y-2.6131
X5.7699Y-2.7116
X5.7699Y-2.81
X5.17Y-2.03
X5.27Y-2.03
T3
X2.9491Y-2.9154
X3.0491Y-2.9154
X3.1491Y-2.9154
X3.2491Y-2.9154
T4
X3.75Y-2.71
X3.75Y-2.76
X3.75Y-3.36
X3.75Y-3.41
X3.85Y-2.71
X3.85Y-2.76
X3.85Y-3.36
X3.85Y-3.41
X3.95Y-2.71
X3.95Y-2.76
X3.95Y-3.36
X3.95Y-3.41
X4.05Y-2.71
X4.05Y-2.76
X4.05Y-3.36
X4.05Y-3.41
X4.15Y-2.71
X4.15Y-2.76
X4.15Y-3.36
X4.15Y-3.41
X4.25Y-2.71
X4.25Y-2.76
X4.25Y-3.36
X4.25Y-3.41
X4.35Y-2.71
X4.35Y-2.76
X4.35Y-3.36
X4.35Y-3.41
X4.45Y-2.71
X4.45Y-2.76
X4.45Y-3.36
X4.45Y-3.41
X4.55Y-2.71
X4.55Y-2.76
X4.55Y-3.36
X4.55Y-3.41
X4.65Y-2.71
X4.65Y-2.76
X4.65Y-3.36
X4.65Y-3.41
X4.75Y-2.71
X4.75Y-2.76
X4.75Y-3.36
X4.75Y-3.41
X4.85Y-2.71
X4.85Y-2.76
X4.85Y-3.36
X4.85Y-3.41
X4.95Y-2.71
X4.95Y-2.76
X4.95Y-3.36
X4.95Y-3.41
X5.05Y-2.71
X5.05Y-2.76
X5.05Y-3.36
X5.05Y-3.41
X5.15Y-2.71
X5.15Y-2.76
X5.15Y-3.36
X5.15Y-3.41
T5
X3.8614Y-2.2874
X3.9461Y-2.0976
X4.9811Y-2.3067
X5.1421Y-2.1839
X4.53Y-1.93
X4.53Y-2.1072
X4.7859Y-1.93
X4.7859Y-2.1072
T6
X3.4409Y-1.9184
X4.0591Y-1.9184
T7
X2.7791Y-2.3654
X2.7791Y-2.9154
X3.3991Y-2.3654
X3.3991Y-2.9154
T8
X5.65Y-3.49
X5.6496Y-1.9291
X2.73Y-3.47
X2.73Y-1.93
T0
M30
